<svg width="21" height="19" viewBox="0 0 21 19" fill="none" xmlns="http://www.w3.org/2000/svg">
<path d="M20.1003 8.22L15.5003 4.52V2C15.5248 1.49494 15.3481 1.00078 15.0088 0.625867C14.6695 0.250952 14.1953 0.0258806 13.6903 0H2.29035C1.78891 0.0309596 1.31987 0.258233 0.984824 0.632584C0.64978 1.00693 0.475718 1.49822 0.500345 2V12C0.491064 12.3971 0.60024 12.788 0.813955 13.1228C1.02767 13.4576 1.33625 13.7212 1.70035 13.88C1.51618 14.3305 1.4444 14.8191 1.49121 15.3036C1.53802 15.7881 1.702 16.2539 1.96902 16.6609C2.23603 17.0678 2.59805 17.4037 3.02385 17.6395C3.44964 17.8753 3.92642 18.004 4.41304 18.0144C4.89966 18.0249 5.38151 17.9167 5.81701 17.6994C6.25252 17.482 6.62859 17.1619 6.9128 16.7668C7.197 16.3717 7.38078 15.9133 7.4483 15.4313C7.51582 14.9492 7.46504 14.458 7.30035 14H13.6603C13.4959 14.4531 13.443 14.9392 13.5063 15.4171C13.5695 15.895 13.747 16.3506 14.0237 16.7454C14.3003 17.1401 14.6681 17.4624 15.0957 17.6849C15.5233 17.9074 15.9983 18.0235 16.4803 18.0235C16.9624 18.0235 17.4374 17.9074 17.865 17.6849C18.2926 17.4624 18.6604 17.1401 18.937 16.7454C19.2137 16.3506 19.3912 15.895 19.4544 15.4171C19.5177 14.9392 19.4648 14.4531 19.3003 14H19.5003C19.7656 14 20.0199 13.8946 20.2075 13.7071C20.395 13.5196 20.5003 13.2652 20.5003 13V9C20.4973 8.84815 20.4597 8.69898 20.3904 8.56384C20.3211 8.42869 20.2219 8.3111 20.1003 8.22ZM18.5003 9.48V12H15.5003V7.08L18.5003 9.48ZM5.50035 15C5.50035 15.1978 5.4417 15.3911 5.33181 15.5556C5.22193 15.72 5.06575 15.8482 4.88303 15.9239C4.7003 15.9996 4.49924 16.0194 4.30526 15.9808C4.11127 15.9422 3.93309 15.847 3.79324 15.7071C3.65339 15.5673 3.55815 15.3891 3.51956 15.1951C3.48097 15.0011 3.50078 14.8 3.57647 14.6173C3.65215 14.4346 3.78033 14.2784 3.94478 14.1685C4.10922 14.0586 4.30256 14 4.50035 14C4.76556 14 5.01992 14.1054 5.20745 14.2929C5.39499 14.4804 5.50035 14.7348 5.50035 15ZM17.5003 15C17.5003 15.1978 17.4417 15.3911 17.3318 15.5556C17.2219 15.72 17.0658 15.8482 16.883 15.9239C16.7003 15.9996 16.4992 16.0194 16.3053 15.9808C16.1113 15.9422 15.9331 15.847 15.7932 15.7071C15.6534 15.5673 15.5581 15.3891 15.5196 15.1951C15.481 15.0011 15.5008 14.8 15.5765 14.6173C15.6522 14.4346 15.7803 14.2784 15.9448 14.1685C16.1092 14.0586 16.3026 14 16.5003 14C16.7656 14 17.0199 14.1054 17.2075 14.2929C17.395 14.4804 17.5003 14.7348 17.5003 15Z" fill="white"/>
</svg>
