<svg width="17" height="22" viewBox="0 0 17 22" fill="none" xmlns="http://www.w3.org/2000/svg">
<path d="M15.2106 0H1.7896C0.800911 0 0.00012207 0.820417 0.00012207 1.83333V20.1667C0.00012207 21.1796 0.800911 22 1.7896 22H15.2106C16.1993 22 17.0001 21.1796 17.0001 20.1667V1.83333C17.0001 0.820417 16.1993 0 15.2106 0ZM4.02644 11.9167C4.76728 11.9167 5.36854 12.5327 5.36854 13.2917C5.36854 14.0507 4.76728 14.6667 4.02644 14.6667C3.2856 14.6667 2.68433 14.0507 2.68433 13.2917C2.68433 12.5327 3.2856 11.9167 4.02644 11.9167ZM2.68433 8.70833C2.68433 7.94933 3.2856 7.33333 4.02644 7.33333C4.76728 7.33333 5.36854 7.94933 5.36854 8.70833C5.36854 9.46733 4.76728 10.0833 4.02644 10.0833C3.2856 10.0833 2.68433 9.46733 2.68433 8.70833ZM8.50012 19.25H4.02644C3.2856 19.25 2.68433 18.634 2.68433 17.875C2.68433 17.116 3.2856 16.5 4.02644 16.5H8.50012C9.24096 16.5 9.84223 17.116 9.84223 17.875C9.84223 18.634 9.24096 19.25 8.50012 19.25ZM8.50012 14.6667C7.75928 14.6667 7.15802 14.0507 7.15802 13.2917C7.15802 12.5327 7.75928 11.9167 8.50012 11.9167C9.24096 11.9167 9.84223 12.5327 9.84223 13.2917C9.84223 14.0507 9.24096 14.6667 8.50012 14.6667ZM8.50012 10.0833C7.75928 10.0833 7.15802 9.46733 7.15802 8.70833C7.15802 7.94933 7.75928 7.33333 8.50012 7.33333C9.24096 7.33333 9.84223 7.94933 9.84223 8.70833C9.84223 9.46733 9.24096 10.0833 8.50012 10.0833ZM12.9738 19.25C12.233 19.25 11.6317 18.634 11.6317 17.875C11.6317 17.116 12.233 16.5 12.9738 16.5C13.7146 16.5 14.3159 17.116 14.3159 17.875C14.3159 18.634 13.7146 19.25 12.9738 19.25ZM12.9738 14.6667C12.233 14.6667 11.6317 14.0507 11.6317 13.2917C11.6317 12.5327 12.233 11.9167 12.9738 11.9167C13.7146 11.9167 14.3159 12.5327 14.3159 13.2917C14.3159 14.0507 13.7146 14.6667 12.9738 14.6667ZM12.9738 10.0833C12.233 10.0833 11.6317 9.46733 11.6317 8.70833C11.6317 7.94933 12.233 7.33333 12.9738 7.33333C13.7146 7.33333 14.3159 7.94933 14.3159 8.70833C14.3159 9.46733 13.7146 10.0833 12.9738 10.0833ZM14.3159 5.5H2.68433V2.75H14.3159V5.5Z" fill="white"/>
</svg>
