<svg width="22" height="22" viewBox="0 0 22 22" fill="none" xmlns="http://www.w3.org/2000/svg">
<path d="M22 11.9331C22 12.7405 19.6492 13.8685 15.822 13.8685C14.8875 13.8685 13.9944 13.7974 13.1615 13.6605C13.1752 13.5843 13.1907 13.5098 13.1907 13.4318V11.2278C14.0236 11.3561 14.9047 11.4236 15.822 11.4236C18.2175 11.4236 20.7162 10.9368 22 10.0167V11.9331ZM12.3096 13.4318C12.3096 14.2358 9.96746 15.3603 6.15394 15.3603C2.34043 15.3603 0 14.2375 0 13.4318V11.5259C1.28035 12.4425 3.76705 12.9259 6.15394 12.9259C8.54083 12.9259 11.0275 12.4425 12.3096 11.5259V13.4318ZM0 14.8457C1.28207 15.7623 3.76877 16.2475 6.15394 16.2475C8.54083 16.2475 11.0275 15.7623 12.3096 14.8457V16.7517C12.3096 17.5574 9.96746 18.6802 6.15394 18.6802C2.34215 18.6802 0 17.5574 0 16.7517V14.8457ZM22 5.26912C22 6.07655 19.6492 7.20454 15.822 7.20454C11.9947 7.20454 9.64393 6.07655 9.64393 5.26912V3.35276C10.9277 4.27282 13.4247 4.75971 15.822 4.75971C18.2175 4.75971 20.7162 4.27282 22 3.35276V5.26912ZM15.822 0C19.6492 0 22 1.12798 22 1.93542C22 2.74459 19.6492 3.87257 15.822 3.87257C11.9947 3.87257 9.64393 2.74459 9.64393 1.93542C9.64393 1.12798 11.993 0 15.822 0ZM9.64393 6.683C10.9277 7.60479 13.4247 8.09167 15.822 8.09167C18.2175 8.09167 20.7162 7.60479 22 6.683V8.60109C22 9.40852 19.6492 10.5365 15.822 10.5365C14.9047 10.5365 13.9944 10.462 13.1632 10.3268C13.1752 10.2558 13.1907 10.1865 13.1907 10.112C13.1907 8.92337 11.6539 8.09341 9.64393 7.65504V6.683ZM6.15394 8.18351C9.96746 8.18351 12.3096 9.30629 12.3096 10.112C12.3096 10.916 9.96746 12.0387 6.15394 12.0387C2.34043 12.0387 0 10.916 0 10.112C0 9.30629 2.34215 8.18351 6.15394 8.18351ZM6.15394 22C2.34215 22 0 20.8772 0 20.0715V18.1656C1.28035 19.0821 3.76705 19.5673 6.15394 19.5673C8.54083 19.5673 11.0275 19.0821 12.3096 18.1656V20.0715C12.3096 20.8772 9.96746 22 6.15394 22ZM15.822 17.2004C14.8927 17.2004 13.9995 17.1294 13.1597 16.9925C13.1752 16.9128 13.1907 16.8348 13.1907 16.7517V14.5615C14.0202 14.688 14.903 14.7556 15.822 14.7556C18.2175 14.7556 20.7162 14.2687 22 13.3487V15.265C22 16.0725 19.6492 17.2004 15.822 17.2004Z" fill="white"/>
</svg>
