<svg width="16" height="20" viewBox="0 0 16 20" fill="none" xmlns="http://www.w3.org/2000/svg">
<path d="M15.7657 5.22538L10.5657 0.225385C10.4153 0.0807692 10.2121 0 10.0001 0H1.60012C0.716122 0 0.00012207 0.688462 0.00012207 1.53846V18.4615C0.00012207 19.3115 0.716122 20 1.60012 20H14.4001C15.2841 20 16.0001 19.3115 16.0001 18.4615V5.76923C16.0001 5.56538 15.9161 5.37 15.7657 5.22538ZM10.4001 14.6154H4.00012C3.55852 14.6154 3.20012 14.2708 3.20012 13.8462C3.20012 13.4215 3.55852 13.0769 4.00012 13.0769H10.4001C10.8417 13.0769 11.2001 13.4215 11.2001 13.8462C11.2001 14.2708 10.8417 14.6154 10.4001 14.6154ZM12.0001 11.5385H4.00012C3.55852 11.5385 3.20012 11.1938 3.20012 10.7692C3.20012 10.3446 3.55852 10 4.00012 10H12.0001C12.4417 10 12.8001 10.3446 12.8001 10.7692C12.8001 11.1938 12.4417 11.5385 12.0001 11.5385ZM10.4001 6.15385C9.95852 6.15385 9.60012 5.80923 9.60012 5.38462V1.46462L14.4769 6.15385H10.4001Z" fill="white"/>
</svg>
