<svg width="24" height="24" viewBox="0 0 24 24" fill="none" xmlns="http://www.w3.org/2000/svg">
<path d="M12 0C11.337 0 10.7011 0.263392 10.2322 0.732233C9.76339 1.20107 9.5 1.83696 9.5 2.5C9.5 3.16304 9.76339 3.79893 10.2322 4.26777C10.7011 4.73661 11.337 5 12 5C12.663 5 13.2989 4.73661 13.7678 4.26777C14.2366 3.79893 14.5 3.16304 14.5 2.5C14.5 1.83696 14.2366 1.20107 13.7678 0.732233C13.2989 0.263392 12.663 0 12 0ZM2.5 1C1.83696 1 1.20107 1.26339 0.732233 1.73223C0.263392 2.20107 0 2.83696 0 3.5C0 4.16304 0.263392 4.79893 0.732233 5.26777C1.20107 5.73661 1.83696 6 2.5 6C3.16304 6 3.79893 5.73661 4.26777 5.26777C4.73661 4.79893 5 4.16304 5 3.5C5 2.83696 4.73661 2.20107 4.26777 1.73223C3.79893 1.26339 3.16304 1 2.5 1ZM21.5 1C20.837 1 20.2011 1.26339 19.7322 1.73223C19.2634 2.20107 19 2.83696 19 3.5C19 4.16304 19.2634 4.79893 19.7322 5.26777C20.2011 5.73661 20.837 6 21.5 6C22.163 6 22.7989 5.73661 23.2678 5.26777C23.7366 4.79893 24 4.16304 24 3.5C24 2.83696 23.7366 2.20107 23.2678 1.73223C22.7989 1.26339 22.163 1 21.5 1ZM12 7C9.791 7 8 8.791 8 11V12H5V10.5C5 9.119 3.881 8 2.5 8C1.119 8 0 9.119 0 10.5V15.5C0 16.8255 1.03395 17.8994 2.33789 17.9844V17.9883L6.60156 18.4004L7 22C6.99813 22.1325 7.02261 22.2641 7.07202 22.387C7.12143 22.51 7.1948 22.6219 7.28784 22.7163C7.38088 22.8107 7.49176 22.8856 7.61401 22.9368C7.73627 22.9879 7.86748 23.0142 8 23.0142C8.13253 23.0142 8.26373 22.9879 8.38599 22.9368C8.50824 22.8856 8.61912 22.8107 8.71216 22.7163C8.8052 22.6219 8.87857 22.51 8.92798 22.387C8.97739 22.2641 9.00187 22.1325 9 22V17.5C9 16.8379 8.54829 16.2701 7.94336 16.0762V16.0664L5 15.2148V14H19V15.2148L16.0566 16.0664V16.0762C15.4517 16.2701 15 16.8379 15 17.5V22C14.9981 22.1325 15.0226 22.2641 15.072 22.387C15.1214 22.51 15.1948 22.6219 15.2878 22.7163C15.3809 22.8107 15.4918 22.8856 15.614 22.9368C15.7363 22.9879 15.8675 23.0142 16 23.0142C16.1325 23.0142 16.2637 22.9879 16.386 22.9368C16.5082 22.8856 16.6191 22.8107 16.7122 22.7163C16.8052 22.6219 16.8786 22.51 16.928 22.387C16.9774 22.2641 17.0019 22.1325 17 22L17.3984 18.4004L21.6621 17.9883V17.9844C22.9661 17.8994 24 16.8255 24 15.5V10.5C24 9.119 22.881 8 21.5 8C20.119 8 19 9.119 19 10.5V12H16V11C16 8.791 14.209 7 12 7Z" fill="white"/>
</svg>
