<svg width="24" height="24" viewBox="0 0 24 24" fill="none" xmlns="http://www.w3.org/2000/svg">
<path d="M12 0C5.373 0 0 5.373 0 12C0 18.627 5.373 24 12 24C18.627 24 24 18.627 24 12C24 5.373 18.627 0 12 0ZM17.981 10.738L17.971 10.787C17.969 10.797 17.967 10.806 17.965 10.816L16.97 15.798C16.97 15.801 16.969 15.803 16.968 15.806L16.967 15.809C16.825 16.489 16.222 17 15.5 17H10.414C9.509 17 8.64 16.64 8 16H7V9.5H7.305C8.041 9.5 8.718 9.096 9.067 8.447L10 5.364V4C10 4 10.023 4 10.523 4C11.523 4 12.25 4.874 12.25 6C12.25 6.846 11.75 9 11.75 9H16.5C17.328 9 18 9.672 18 10.5C18 10.58 17.989 10.656 17.977 10.733L17.981 10.738Z" fill="white"/>
</svg>
