<svg width="22" height="22" viewBox="0 0 22 22" fill="none" xmlns="http://www.w3.org/2000/svg">
<path d="M8.97654 1.17285C4.56672 1.17285 1 4.65781 1 8.96655C1 13.2753 4.56672 16.7602 8.97654 16.7602C10.551 16.7602 12.0081 16.309 13.2434 15.5425L19.0059 21.1729L21 19.2244L15.3109 13.68C16.3336 12.3691 16.9531 10.7448 16.9531 8.96655C16.9531 4.65781 13.3864 1.17285 8.97654 1.17285ZM8.97654 3.00666C12.3545 3.00666 15.0762 5.66605 15.0762 8.96655C15.0762 12.267 12.3545 14.9264 8.97654 14.9264C5.59861 14.9264 2.87683 12.267 2.87683 8.96655C2.87683 5.66605 5.59861 3.00666 8.97654 3.00666Z" fill="white"/>
</svg>
