<svg width="24" height="24" viewBox="0 0 24 24" fill="none" xmlns="http://www.w3.org/2000/svg">
<path d="M12 0C5.37432 0 0 4.90909 0 10.9091C0 14.2905 1.72215 17.5099 4.69565 19.5277C4.64266 20.1264 4.33084 21.4901 3.23438 23.1264L2.66168 24H3.70516C6.52174 24 8.45177 22.1996 9.07745 21.4901C10.017 21.7095 11.0095 21.8182 12 21.8182C18.6257 21.8182 24 16.9091 24 10.9091C24 4.90909 18.6257 0 12 0ZM6.78261 12C6.20788 12 5.73913 11.5099 5.73913 10.9091C5.73913 10.3082 6.20788 9.81818 6.78261 9.81818C7.35734 9.81818 7.82609 10.3082 7.82609 10.9091C7.82609 11.5099 7.35734 12 6.78261 12ZM12 12C11.4253 12 10.9565 11.5099 10.9565 10.9091C10.9565 10.3082 11.4253 9.81818 12 9.81818C12.5747 9.81818 13.0435 10.3082 13.0435 10.9091C13.0435 11.5099 12.5747 12 12 12ZM17.2174 12C16.6427 12 16.1739 11.5099 16.1739 10.9091C16.1739 10.3082 16.6427 9.81818 17.2174 9.81818C17.7921 9.81818 18.2609 10.3082 18.2609 10.9091C18.2609 11.5099 17.7921 12 17.2174 12Z" fill="white"/>
</svg>
