<svg width="19" height="24" viewBox="0 0 19 24" fill="none" xmlns="http://www.w3.org/2000/svg">
<path d="M0 21.3884C0 21.3884 0 19.9897 0 19.8039C0 17.7533 3.01202 15.8884 6.3024 15.2327C6.3024 15.2327 7.30879 14.6754 7.034 13.6483C6.02761 12.3443 5.75282 10.9456 5.75282 10.9456C5.57081 10.8509 5.29602 10.6652 5.11401 10.4794C4.83922 10.1042 4.47521 8.98601 4.56799 8.14826C4.65721 7.40157 4.83922 7.68203 4.93201 7.49627C4.20041 5.81712 4.56799 3.67174 5.3888 2.0873C7.12322 -0.990533 10.7776 -0.0580774 11.3272 1.06014C14.7996 0.40815 14.7068 6.00288 14.1608 7.40157C14.1608 7.40157 14.432 7.49627 14.432 8.80025C14.3428 10.1989 13.2472 11.0367 13.2472 11.0367C13.2472 11.4119 12.7904 12.5301 12.0588 13.5572C11.42 14.8612 12.6976 15.1417 12.6976 15.1417C15.988 15.7937 19 17.6586 19 19.7092C19 19.895 19 21.2937 19 21.2937C19 22.6013 14.068 24 9.5 24C5.02479 24 0 23.5338 0 21.3884Z" fill="white"/>
</svg>
