<svg width="22" height="21" viewBox="0 0 22 21" fill="none" xmlns="http://www.w3.org/2000/svg">
<path d="M16.4966 0.172852C14.1949 0.172852 12.2266 1.38602 11.4073 3.14693L11.4065 3.14782C11.3079 3.36054 11.231 3.5824 11.1667 3.80922H0V5.07342C1.32528 6.26524 8.93157 13.1049 9.53305 13.6468C10.1517 14.2036 10.765 14.2638 11 14.2638C11.235 14.2638 11.8483 14.2036 12.467 13.6468C12.7653 13.3781 14.7588 11.5859 16.8532 9.70321C17.4468 9.67543 17.9895 9.58314 18.4852 9.44043C17.4024 10.4139 16.3017 11.4035 15.3493 12.26L22 17.6666V4.9589V4.53187C22 4.53187 21.9806 4.58146 21.9785 4.58691C21.7602 2.10592 19.3874 0.172852 16.4966 0.172852ZM16.4966 1.08194C19.0459 1.08194 21.12 2.82117 21.12 4.9589C21.12 7.29799 19.2897 8.80922 16.4579 8.80922C16.351 8.80922 16.1855 8.82213 15.9105 8.80123C15.8691 8.79804 15.8285 8.79235 15.7876 8.79235C15.5913 8.79235 15.4522 8.84397 15.296 8.97079C15.296 8.97079 14.7569 9.51122 14.3842 9.74849C14.0115 9.98576 13.6354 10.1702 13.1716 10.1702L12.821 10.1817L13.0127 9.9074C13.428 9.3415 13.5498 8.42125 13.5498 8.42125C13.5784 8.10444 13.4445 7.79051 13.1888 7.60005C13.03 7.47551 12.7406 7.2448 12.577 7.00435C12.1211 6.38344 11.88 5.67617 11.88 4.9589C11.88 4.4839 11.9831 4.01637 12.1877 3.56774C12.1921 3.5591 12.197 3.54931 12.2014 3.54022C12.8957 2.04658 14.5817 1.08194 16.4966 1.08194ZM14.3 4.26376C13.9357 4.26376 13.64 4.56922 13.64 4.94558C13.64 5.32194 13.9357 5.6274 14.3 5.6274C14.6643 5.6274 14.96 5.32194 14.96 4.94558C14.96 4.56922 14.6643 4.26376 14.3 4.26376ZM16.5 4.26376C16.1357 4.26376 15.84 4.56922 15.84 4.94558C15.84 5.32194 16.1357 5.6274 16.5 5.6274C16.8643 5.6274 17.16 5.32194 17.16 4.94558C17.16 4.56922 16.8643 4.26376 16.5 4.26376ZM18.7 4.26376C18.3357 4.26376 18.04 4.56922 18.04 4.94558C18.04 5.32194 18.3357 5.6274 18.7 5.6274C19.0643 5.6274 19.36 5.32194 19.36 4.94558C19.36 4.56922 19.0643 4.26376 18.7 4.26376ZM0 6.27814V17.6844L6.6507 12.2591C4.49426 10.3196 1.42164 7.55678 0 6.27814ZM7.32617 12.8664L0 18.843V20.1729H22V18.8234L14.6738 12.8673C13.8215 13.6336 13.2011 14.1917 13.0453 14.3321C12.2018 15.0908 11.334 15.1729 11 15.1729C10.666 15.1729 9.79817 15.0903 8.95469 14.3312C8.80025 14.1921 8.18021 13.6346 7.32617 12.8664Z" fill="white"/>
</svg>
