<svg width="18" height="24" viewBox="0 0 18 24" fill="none" xmlns="http://www.w3.org/2000/svg">
<path d="M6.35272 0V0.40483L7.47454 0.995028L7.50452 1.01101L7.52623 1.02379C7.52623 1.02379 7.59857 1.06646 7.68856 1.13246L7.70407 1.14311L7.71751 1.15483C7.86944 1.27428 8.00116 1.41554 8.11868 1.58736L8.15073 1.63423L8.17555 1.67152L8.19416 1.70455C8.23492 1.77382 8.31124 1.90334 8.36682 2.08061C8.54363 2.64188 8.49049 3.26162 8.22104 3.78089C8.04052 4.12999 7.77209 4.41113 7.45076 4.61186C7.60957 4.79077 7.75116 5.01401 7.83745 5.28729C8.01426 5.84856 7.96112 6.46884 7.69166 6.98757C7.43386 7.48666 7.00392 7.85706 6.48196 8.03161C6.41738 8.05342 6.35065 8.06643 6.28448 8.08061C6.40729 8.60043 6.35179 9.1406 6.10457 9.61896C5.84624 10.1175 5.41628 10.4874 4.8959 10.6619C4.70533 10.7257 4.51701 10.7525 4.33861 10.7525C4.09828 10.7525 3.87816 10.7025 3.69447 10.6321C3.69976 10.9986 3.62606 11.3654 3.45666 11.6921C3.19886 12.1912 2.76996 12.5616 2.24799 12.7362C2.06748 12.7967 1.87971 12.8278 1.68967 12.8278C1.2847 12.8278 0.983466 12.6904 0.852181 12.6179L0.390012 12.3697L0.219413 12.5455C0.219413 12.5455 0.00228615 12.75 0.00228615 13.0909C0.00228615 13.3615 0.0995257 13.632 0.295924 13.842C0.503968 14.0645 0.780542 14.1754 1.05793 14.1754C1.38879 14.1754 1.58731 13.956 1.58731 13.956L1.74343 13.7962C1.95042 13.5829 2.28398 13.5829 2.49097 13.7962C2.69795 14.0094 2.69795 14.3542 2.49097 14.5675L0.748788 16.3636C0.748788 16.3636 0.531661 16.5682 0.531661 16.9091C0.531661 17.1796 0.628901 17.4502 0.825299 17.6602C1.03334 17.8827 1.30992 17.9936 1.58731 17.9936C1.91817 17.9936 2.11668 17.7741 2.11668 17.7741L4.39031 15.4325C4.59729 15.2193 4.93086 15.2193 5.13784 15.4325C5.34483 15.6458 5.34483 15.9906 5.13784 16.2038L2.33691 19.0909C2.33691 19.0909 2.11979 19.2955 2.11979 19.6364C2.11979 19.9069 2.21703 20.1774 2.41342 20.3874C2.62147 20.61 2.89804 20.7209 3.17543 20.7209C3.50629 20.7209 3.70481 20.5014 3.70481 20.5014L7.03718 17.0689C7.24417 16.8556 7.57773 16.8556 7.78472 17.0689C7.9917 17.2822 7.9917 17.6269 7.78472 17.8402L4.98172 20.7326C4.98172 20.7326 4.76459 20.9371 4.76459 21.2781C4.76459 21.5486 4.86183 21.8191 5.05823 22.0291C5.26627 22.2517 5.54285 22.3626 5.82024 22.3626C5.88218 22.3626 5.93483 22.3495 5.9867 22.337L6.04047 22.321C6.15534 22.2845 6.22652 22.2414 6.2731 22.2081C6.31863 22.1732 6.34962 22.1431 6.34962 22.1431L9.79365 18.5955H9.79469L12.4012 15.8672C12.5961 15.6637 12.7052 15.3886 12.7052 15.1023V13.5554C12.6877 13.5227 12.6736 13.4965 12.6556 13.4638L10.6818 12.1875C9.84275 11.666 9.39686 10.6918 9.56309 9.66584C9.73143 8.62675 10.5774 7.79894 11.5906 7.65767C12.0745 7.59058 12.547 7.67512 12.9895 7.90803C12.9895 7.90803 14.3577 8.60946 15.9569 9.43146L16.0107 9.46129C16.575 9.79511 17.0636 10.2335 17.4696 10.7408V9.27273C17.4696 7.49236 16.8353 5.9298 16.3716 4.78871C16.1196 4.17016 15.8815 3.58582 15.8815 3.27273V0H6.35272ZM5.13784 1.09091C5.06958 1.0917 4.99429 1.10188 4.91555 1.1282C4.66621 1.21165 4.4472 1.39063 4.3138 1.64808C4.17245 1.92081 4.15566 2.22659 4.24142 2.49822C4.34359 2.82222 4.60743 2.94886 4.60743 2.94886L6.11491 3.74254C6.11491 3.74254 6.37067 3.89204 6.68564 3.78622C6.93498 3.70277 7.15399 3.52379 7.2874 3.26634C7.42821 2.99524 7.44553 2.68944 7.35977 2.41726C7.34071 2.35671 7.31182 2.30863 7.28429 2.26172L7.25224 2.21484C7.18289 2.11393 7.12147 2.05747 7.07647 2.02202C7.03042 1.9882 6.99376 1.96555 6.99376 1.96555L5.48628 1.17294C5.48628 1.17294 5.34264 1.08853 5.13784 1.09091ZM2.6595 3.25462C2.59124 3.25549 2.51595 3.26651 2.4372 3.29297C2.18787 3.37642 1.96886 3.5554 1.83545 3.81286C1.69411 4.08558 1.67629 4.39136 1.76204 4.663C1.86421 4.987 2.12909 5.11364 2.12909 5.11364L5.5845 6.95028C5.5845 6.95028 5.84026 7.09978 6.15524 6.99396C6.40457 6.91051 6.62411 6.73153 6.75699 6.47408C6.89833 6.2019 6.91615 5.89612 6.8304 5.62393C6.72823 5.29993 6.46335 5.1733 6.46335 5.1733L3.00794 3.33665C3.00794 3.33665 2.86429 3.25201 2.6595 3.25462ZM1.47771 6.11506C1.40945 6.11593 1.33416 6.12589 1.25542 6.15234C1.00608 6.2358 0.786539 6.41478 0.653665 6.67223C0.512322 6.94496 0.494497 7.2518 0.580256 7.52344C0.682425 7.84744 0.947303 7.97301 0.947303 7.97301L3.99741 9.58061C3.99741 9.58061 4.25317 9.73011 4.56814 9.62429C4.81748 9.54084 5.03649 9.36186 5.1699 9.1044C5.31071 8.83222 5.32906 8.5259 5.2433 8.25426C5.14114 7.93026 4.87626 7.80362 4.87626 7.80362L1.82615 6.19602C1.82615 6.19602 1.68251 6.11245 1.47771 6.11506ZM11.9112 8.72727C11.1801 8.72727 10.5877 9.33764 10.5877 10.0909C10.5877 10.5862 10.8465 11.0154 11.2298 11.2543C11.2219 11.2526 13.5221 12.7326 13.6078 12.7937C13.7042 12.8624 13.764 12.9464 13.764 13.0909V15.1023C13.764 15.6794 13.5478 16.2224 13.155 16.6332L10.5484 19.3604L10.5422 19.3668L7.05269 22.9592C7.05269 22.9592 6.99269 23.0162 6.90587 23.0827C6.71847 23.2169 6.54697 23.3013 6.35375 23.3629V24H7.4125H14.8238V22.9091C14.8238 21.8182 18 18 18 15.8182C17.9995 14.7273 17.71 13.2308 17.0912 12.0799C16.7143 11.3795 16.1573 10.806 15.4844 10.4084C15.4844 10.4084 12.5093 8.87905 12.5088 8.88068C12.3288 8.78577 12.1277 8.72727 11.9112 8.72727ZM0.949371 9.29617C0.881106 9.29703 0.805819 9.307 0.727075 9.33345C0.477739 9.41691 0.258727 9.59588 0.125324 9.85334C-0.0160186 10.1261 -0.0338436 10.4324 0.051915 10.7045C0.0709725 10.7651 0.0998648 10.8121 0.127392 10.859L0.159444 10.907C0.228793 11.0079 0.290217 11.0643 0.335213 11.0998C0.381269 11.1336 0.417928 11.1552 0.417928 11.1552L1.3495 11.6559C1.3495 11.6559 1.60526 11.8048 1.92024 11.6996C2.16957 11.6161 2.38858 11.4371 2.52199 11.1797C2.66386 10.9059 2.68116 10.6001 2.5954 10.3285C2.49323 10.0045 2.22938 9.87784 2.22938 9.87784L1.29781 9.37713C1.29781 9.37713 1.15416 9.29356 0.949371 9.29617Z" fill="white"/>
</svg>
