<svg width="24" height="18" viewBox="0 0 24 18" fill="none" xmlns="http://www.w3.org/2000/svg">
<path d="M12.915 0C8.65875 0 7.07812 3.24548 8.295 5.99507C8.14312 6.09498 7.89937 6.40769 7.95 6.95724C8.05125 7.95641 8.50688 8.19511 8.76 8.24507C8.86125 9.19428 9.47062 10.3008 9.825 10.4507C9.825 11.1001 9.81563 11.6441 9.765 12.3454C8.98875 14.3567 4.0275 13.8904 3.39 17.4967C3.36187 17.654 3.52687 18 3.855 18H20.16C20.6475 18 20.6381 17.6447 20.61 17.4819C19.9613 13.8904 15.0112 14.3549 14.235 12.3454C14.1844 11.5942 14.175 11.1001 14.175 10.4507C14.5294 10.3008 15.0938 9.14433 15.195 8.24507C15.4481 8.24507 15.8531 7.94346 16.005 6.94243C16.0556 6.39289 15.8475 6.04502 15.645 5.99507C16.455 4.99589 16.3088 0.902961 13.32 0.902961L12.915 0ZM7.275 2.36842C4.07063 2.42208 2.66625 4.93853 3.63 7.09046C3.52687 7.14042 3.32437 7.40502 3.375 7.8602C3.47813 8.67064 3.78375 8.86678 3.99 8.86678C4.09125 9.62541 4.545 10.4766 4.8 10.6283C4.8 11.1334 4.80562 11.1186 4.755 11.7237C4.33875 13.0189 0 12.9227 0 16.1053C0 16.1053 0 16.5789 0.48 16.5789H2.655C3.38812 14.5325 5.38125 13.7442 6.885 13.1595C7.71375 12.8376 8.56312 12.5119 8.82 12.1086C8.84812 11.6682 8.86312 11.2944 8.865 10.8799C8.40937 10.3655 8.07 9.56435 7.905 8.88158C7.515 8.59663 7.09312 8.04893 6.99 7.03125C6.945 6.54831 7.04812 6.14679 7.215 5.83224C6.83437 4.66468 6.85875 3.44531 7.275 2.36842ZM18.24 2.36842C17.7806 2.36842 17.2388 2.40543 16.725 2.48684C17.1094 3.59889 17.1244 4.92743 16.785 5.87665C16.935 6.2023 17.0044 6.59827 16.965 7.03125L16.95 7.06086V7.09046C16.8075 8.02118 16.4606 8.58738 16.05 8.89638C15.8944 9.5366 15.5775 10.3452 15.135 10.8651C15.1369 11.2722 15.1519 11.6386 15.18 12.1086C15.4369 12.5119 16.2881 12.8376 17.115 13.1595C18.6169 13.7424 20.61 14.5325 21.345 16.5789H23.52C24 16.5789 24 16.1201 24 16.1201C24.0019 12.4564 19.8919 13.3242 19.275 11.6497C19.2225 11.0909 19.215 11.1427 19.215 10.5839C19.4719 10.4322 19.9444 9.57915 19.995 8.86678C20.2013 8.86678 20.5069 8.65769 20.61 7.8454C20.6606 7.44017 20.5087 7.14042 20.355 7.09046C20.9737 6.27817 20.8725 3.07895 18.555 3.07895L18.24 2.36842Z" fill="white"/>
</svg>
