<svg width="20" height="20" viewBox="0 0 20 20" fill="none" xmlns="http://www.w3.org/2000/svg">
<path d="M15 0L12.5 2.5L17.5 7.5L20 5L15 0ZM10.8919 4.17155C10.4854 4.15967 10.0736 4.29633 9.74609 4.58008L9.74447 4.57682C8.8628 5.45849 7.5 5.83333 5.83333 5.83333C4.46667 5.83333 3.56098 6.67493 3.08431 8.2666C1.65598 13.0391 0.542721 16.4389 0.164388 17.6139L0.169271 17.6156C0.0634375 17.8331 0 18.075 0 18.3333C0 18.4817 0.0260156 18.6223 0.061849 18.7598L6.72852 12.0931C6.69268 11.9556 6.66667 11.815 6.66667 11.6667C6.66667 10.7458 7.4125 10 8.33333 10C8.79333 10 9.21005 10.1866 9.51172 10.4883C9.81339 10.7899 10 11.2067 10 11.6667C10 12.5875 9.25417 13.3333 8.33333 13.3333C8.185 13.3333 8.0444 13.3073 7.9069 13.2715L1.24023 19.9382C1.37773 19.974 1.51833 20 1.66667 20C1.925 20 2.16694 19.9374 2.38444 19.8324L2.38607 19.8356C3.56107 19.4573 6.9609 18.3456 11.7334 16.9173C13.3251 16.4398 14.1667 15.5333 14.1667 14.1667C14.1667 12.5 14.5415 11.1372 15.4232 10.2555L15.4199 10.2539C15.9874 9.59891 15.9676 8.60995 15.3451 7.98828L13.6784 6.32162L12.0117 4.65495C11.7005 4.3437 11.2985 4.18342 10.8919 4.17155Z" fill="white"/>
</svg>
