<svg width="20" height="19" viewBox="0 0 20 19" fill="none" xmlns="http://www.w3.org/2000/svg">
<path d="M9.98897 8.57924e-05C9.79997 0.00299793 9.61986 0.0797046 9.48817 0.213371C9.35648 0.347037 9.28397 0.526743 9.28656 0.713046V1.41639H0.723845C0.62929 1.41507 0.535412 1.43229 0.447666 1.46705C0.359921 1.5018 0.280059 1.5534 0.21272 1.61884C0.145382 1.68428 0.0919106 1.76227 0.0554136 1.84825C0.0189167 1.93424 0.00012207 2.02652 0.00012207 2.11974C0.00012207 2.21295 0.0189167 2.30523 0.0554136 2.39122C0.0919106 2.4772 0.145382 2.55519 0.21272 2.62063C0.280059 2.68607 0.359921 2.73767 0.447666 2.77242C0.535412 2.80718 0.62929 2.8244 0.723845 2.82308V13.3732C0.723845 14.1504 1.36248 14.7799 2.15096 14.7799H7.70753L6.53824 16.9202C6.30483 16.9757 6.09712 17.1069 5.94849 17.2927C5.79986 17.4786 5.71895 17.7083 5.71876 17.945C5.71876 18.2248 5.83153 18.4931 6.03226 18.691C6.23299 18.8888 6.50523 19 6.7891 19C7.07297 19 7.34522 18.8888 7.54595 18.691C7.74668 18.4931 7.85944 18.2248 7.85944 17.945C7.85915 17.8232 7.83746 17.7023 7.79533 17.5878L9.32837 14.7799H10.6719L12.2049 17.5878C12.1628 17.7023 12.1411 17.8232 12.1408 17.945C12.1408 18.2248 12.2536 18.4931 12.4543 18.691C12.655 18.8888 12.9273 19 13.2111 19C13.495 19 13.7673 18.8888 13.968 18.691C14.1687 18.4931 14.2815 18.2248 14.2815 17.945C14.2813 17.7083 14.2004 17.4786 14.0518 17.2927C13.9031 17.1069 13.6954 16.9757 13.462 16.9202L12.2927 14.7799H17.8493C18.6378 14.7799 19.2764 14.1504 19.2764 13.3732V2.82308C19.371 2.8244 19.4648 2.80718 19.5526 2.77242C19.6403 2.73767 19.7202 2.68607 19.7875 2.62063C19.8549 2.55519 19.9083 2.4772 19.9448 2.39122C19.9813 2.30523 20.0001 2.21295 20.0001 2.11974C20.0001 2.02652 19.9813 1.93424 19.9448 1.84825C19.9083 1.76227 19.8549 1.68428 19.7875 1.61884C19.7202 1.5534 19.6403 1.5018 19.5526 1.46705C19.4648 1.43229 19.371 1.41507 19.2764 1.41639H10.7137V0.713046C10.715 0.618946 10.6971 0.525544 10.6612 0.438372C10.6252 0.351199 10.5718 0.272028 10.5042 0.205547C10.4367 0.139066 10.3562 0.0866269 10.2677 0.051335C10.1792 0.0160431 10.0844 -0.00138392 9.98897 8.57924e-05ZM15.7086 4.93311C15.8911 4.93311 16.0736 5.00167 16.2131 5.13917C16.4921 5.41418 16.4921 5.85874 16.2131 6.13374L11.9318 10.3538C11.6527 10.6288 11.2017 10.6288 10.9227 10.3538L9.28656 8.74106L6.93683 11.0572C6.79769 11.1943 6.61499 11.2632 6.43232 11.2632C6.24965 11.2632 6.06696 11.1943 5.92781 11.0572L4.50069 9.65047C4.22169 9.37546 4.22169 8.9309 4.50069 8.65589C4.7797 8.38088 5.23071 8.38088 5.50971 8.65589L6.43232 9.5653L8.78205 7.2492C9.06106 6.9742 9.51207 6.9742 9.79107 7.2492L11.4272 8.86195L15.2041 5.13917C15.3436 5.00167 15.5261 4.93311 15.7086 4.93311Z" fill="white"/>
</svg>
