<svg width="18" height="20" viewBox="0 0 18 20" fill="none" xmlns="http://www.w3.org/2000/svg">
<path d="M16 2H11.816C11.403 0.837 10.304 0 9 0C7.696 0 6.597 0.837 6.184 2H2C0.895 2 0 2.895 0 4V18C0 19.105 0.895 20 2 20H16C17.105 20 18 19.105 18 18V4C18 2.895 17.105 2 16 2ZM9 2C9.552 2 10 2.448 10 3C10 3.552 9.552 4 9 4C8.448 4 8 3.552 8 3C8 2.448 8.448 2 9 2ZM6 16H4V14L10.146 7.854L12.146 9.854L6 16ZM13.854 8.146L12.854 9.146L10.854 7.146L11.854 6.146C12.049 5.951 12.366 5.951 12.561 6.146L13.854 7.439C14.049 7.635 14.049 7.951 13.854 8.146Z" fill="white"/>
</svg>
