<svg width="24" height="17" viewBox="0 0 24 17" fill="none" xmlns="http://www.w3.org/2000/svg">
<path d="M1.365 0C0.61125 0 0 0.586888 0 1.30659V13.3243C0 14.044 0.68625 14.7027 1.44 14.7027H3.405C3.63375 16.0057 4.815 17 6.24 17C7.665 17 8.84625 16.0057 9.075 14.7027H13.515C14.2669 14.7027 14.88 14.1158 14.88 13.3961V1.3353C14.88 0.599451 14.2744 0 13.53 0H1.365ZM15.84 3.21622V14.7027C16.0706 16.0039 17.295 17 18.72 17C20.145 17 21.3263 16.0039 21.555 14.7027H22.56C23.3137 14.7027 24 14.0458 24 13.3243V8.90203C24 7.97772 23.3044 7.03368 23.22 6.92061L21.225 4.36486C20.7675 3.8372 20.0494 3.21622 19.2 3.21622H15.84ZM18.24 5.51351H20.925L22.455 7.46622C22.6181 7.68697 23.04 8.3636 23.04 8.90203V9.18919H18.24C17.76 9.18919 17.28 8.72973 17.28 8.27027V6.43243C17.28 5.92451 17.76 5.51351 18.24 5.51351ZM6.24 12.4054C7.29937 12.4054 8.16 13.2292 8.16 14.2432C8.16 15.2573 7.29937 16.0811 6.24 16.0811C5.18062 16.0811 4.32 15.2573 4.32 14.2432C4.32 13.2292 5.18062 12.4054 6.24 12.4054ZM18.72 12.4054C19.7794 12.4054 20.64 13.2292 20.64 14.2432C20.64 15.2573 19.7794 16.0811 18.72 16.0811C17.6606 16.0811 16.8 15.2573 16.8 14.2432C16.8 13.2292 17.6606 12.4054 18.72 12.4054Z" fill="white"/>
</svg>
