<svg width="35" height="23" viewBox="0 0 35 23" fill="none" xmlns="http://www.w3.org/2000/svg">
<path opacity="0.35" d="M30.682 15.4861C29.5912 15.4861 28.6091 15.9653 27.9296 16.7266C27.2501 15.9653 26.268 15.4861 25.1773 15.4861C23.7533 15.4861 22.5149 16.303 21.8932 17.4979H12.7606V4.36887C12.7606 3.83315 12.3318 3.39893 11.8028 3.39893H3.1001C2.67963 3.39893 2.30829 3.67664 2.18461 4.08355L0.0423758 11.1326C0.0143296 11.2251 0 11.3213 0 11.4179V18.4679C0 19.0036 0.428815 19.4378 0.957861 19.4378H4.35581C4.4562 21.4193 6.07973 23.0001 8.06105 23.0001C10.0424 23.0001 11.6659 21.4193 11.7663 19.4378H11.8028C11.8029 19.4378 11.803 19.4378 11.8031 19.4378H21.472C21.5724 21.4193 23.1959 23.0001 25.1773 23.0001C26.268 23.0001 27.2501 22.5209 27.9296 21.7596C28.6091 22.5209 29.5912 23.0001 30.682 23.0001C32.7278 23.0001 34.3922 21.3148 34.3922 19.2431C34.3922 17.1715 32.7278 15.4861 30.682 15.4861ZM3.80753 5.33881H6.72349V10.4478H2.25488L3.80753 5.33881ZM8.06105 21.0603C7.07154 21.0603 6.26655 20.2451 6.26655 19.2431C6.26655 18.2411 7.07154 17.426 8.06105 17.426C9.05056 17.426 9.85554 18.2411 9.85554 19.2431C9.85554 20.2451 9.05048 21.0603 8.06105 21.0603ZM8.06105 15.4861C6.63713 15.4861 5.39873 16.303 4.77689 17.4979H1.91572V12.3877H7.68135C8.2104 12.3877 8.63921 11.9535 8.63921 11.4178V5.33881H10.8449V16.7634C10.1644 15.9811 9.16903 15.4861 8.06105 15.4861ZM25.1773 21.0603C24.1877 21.0603 23.3828 20.2451 23.3828 19.2431C23.3828 18.2411 24.1877 17.426 25.1773 17.426C26.1668 17.426 26.9717 18.2411 26.9717 19.2431C26.9717 20.2451 26.1668 21.0603 25.1773 21.0603ZM30.682 21.0603C29.6925 21.0603 28.8875 20.2451 28.8875 19.2431C28.8875 18.2411 29.6925 17.426 30.682 17.426C31.6715 17.426 32.4765 18.2411 32.4765 19.2431C32.4765 20.2451 31.6715 21.0603 30.682 21.0603Z" fill="#2D5EBB"/>
<path d="M34.2124 7.08547L16.168 3.78417C15.7833 1.63509 13.9217 0 11.6902 0H8.99106C8.46209 0 8.0332 0.434224 8.0332 0.969942C8.0332 1.50566 8.46209 1.93988 8.99106 1.93988H11.6902C13.143 1.93988 14.325 3.13679 14.325 4.60792C14.325 4.65968 14.3254 13.4123 14.3254 13.4123C14.3254 13.948 14.7543 14.3822 15.2833 14.3822H33.2685C33.7441 14.3822 34.1477 14.0289 34.2163 13.5522L34.9899 8.17987C35.0644 7.66247 34.7205 7.17843 34.2124 7.08547ZM32.4402 12.4423H16.2412V5.76891L32.9606 8.82779L32.4402 12.4423Z" fill="#2D5EBB"/>
</svg>
