<svg width="35" height="21" viewBox="0 0 35 21" fill="none" xmlns="http://www.w3.org/2000/svg">
<path d="M30.7089 13.4568C29.6173 13.4568 28.6342 13.9379 27.9542 14.7021C27.2741 13.9379 26.2911 13.4568 25.1994 13.4568C23.7741 13.4568 22.5347 14.2769 21.9123 15.4764H12.7718V2.29646C12.7718 1.75866 12.3426 1.32275 11.8131 1.32275H3.10282C2.68199 1.32275 2.31032 1.60154 2.18653 2.01003L0.042413 9.08643C0.0143422 9.1792 0 9.27571 0 9.37285V16.4502C0 16.988 0.429192 17.4239 0.958703 17.4239H4.35964C4.46012 19.413 6.08508 20.9999 8.06814 20.9999C10.0513 20.9999 11.6762 19.413 11.7767 17.4239H11.8131H21.4909C21.5914 19.413 23.2163 21 25.1995 21C26.2912 21 27.2742 20.5189 27.9542 19.7547C28.6343 20.5189 29.6173 21 30.709 21C32.7567 21 34.4225 19.3081 34.4225 17.2284C34.4224 15.1487 32.7566 13.4568 30.7089 13.4568ZM3.81088 3.27016H6.72979V8.39899H2.25686L3.81088 3.27016ZM8.06814 19.0525C7.07776 19.0525 6.27207 18.2342 6.27207 17.2284C6.27207 16.2225 7.07776 15.4042 8.06814 15.4042C9.05852 15.4042 9.86421 16.2225 9.86421 17.2284C9.86421 18.2342 9.05852 19.0525 8.06814 19.0525ZM8.06814 13.4568C6.64297 13.4568 5.4034 14.2769 4.78109 15.4765H1.91741V10.3464H7.68849C8.218 10.3464 8.64719 9.91049 8.64719 9.3727V3.27016H10.8544V14.739C10.1734 13.9537 9.17709 13.4568 8.06814 13.4568ZM25.1995 19.0525C24.2091 19.0525 23.4034 18.2342 23.4034 17.2284C23.4034 16.2225 24.2091 15.4042 25.1995 15.4042C26.1898 15.4042 26.9955 16.2225 26.9955 17.2284C26.9955 18.2342 26.1898 19.0525 25.1995 19.0525ZM30.7089 19.0525C29.7186 19.0525 28.9129 18.2342 28.9129 17.2284C28.9129 16.2225 29.7186 15.4042 30.7089 15.4042C31.6993 15.4042 32.505 16.2225 32.505 17.2284C32.505 18.2342 31.6993 19.0525 30.7089 19.0525Z" fill="#2D5EBB"/>
<path d="M34.0416 1.54141H27.5794C27.6927 1.38149 27.7603 1.18581 27.7603 0.973702C27.7603 0.435906 27.3311 0 26.8016 0H22.3532C21.8237 0 21.3945 0.435906 21.3945 0.973702C21.3945 1.18581 21.462 1.38149 21.5754 1.54141H15.113C14.5836 1.54141 14.1543 1.97732 14.1543 2.51511V11.5941C14.1543 12.1319 14.5836 12.5678 15.113 12.5678H34.0416C34.5711 12.5678 35.0003 12.1319 35.0003 11.5941V2.51511C35.0003 1.97739 34.5711 1.54141 34.0416 1.54141ZM33.0829 10.6204H16.0717V3.48881H33.0829V10.6204Z" fill="#2D5EBB"/>
</svg>
