<svg width="52" height="58" viewBox="0 0 52 58" fill="none" xmlns="http://www.w3.org/2000/svg">
<path d="M13.6562 0C12.3203 0 11.0625 0.519531 10.1211 1.46484L1.46484 10.1211C0.519531 11.0664 0 12.3203 0 13.6562V49C0 50.6523 1.34766 52 3 52H8V55C8 56.6523 9.34766 58 11 58H49C50.6523 58 52 56.6523 52 55V9C52 7.34766 50.6523 6 49 6H44V3C44 1.34766 42.6523 0 41 0H13.6562ZM14 2H41C41.5508 2 42 2.44922 42 3V42C41.4453 42 41 42.4453 41 43V45C41 45.5547 41.4453 46 42 46V49C42 49.5508 41.5508 50 41 50H3C2.44922 50 2 49.5508 2 49V46C2.55469 46 3 45.5547 3 45V43C3 42.4453 2.55469 42 2 42V14H11C12.6523 14 14 12.6523 14 11V2ZM12 2.5V11C12 11.5508 11.5508 12 11 12H2.5C2.61328 11.832 2.73828 11.6758 2.87891 11.5352L11.5352 2.87891C11.6797 2.73437 11.8359 2.60938 12 2.5ZM44 8H49C49.5508 8 50 8.44922 50 9V55C50 55.5508 49.5508 56 49 56H11C10.4492 56 10 55.5508 10 55V52H41C42.6523 52 44 50.6523 44 49V8ZM11 18C10.4453 18 10 18.4453 10 19C10 19.5547 10.4453 20 11 20H25C25.5547 20 26 19.5547 26 19C26 18.4453 25.5547 18 25 18H11ZM29 18C28.4453 18 28 18.4453 28 19C28 19.5547 28.4453 20 29 20H33C33.5547 20 34 19.5547 34 19C34 18.4453 33.5547 18 33 18H29ZM11 22C10.4453 22 10 22.4453 10 23C10 23.5547 10.4453 24 11 24H29C29.5547 24 30 23.5547 30 23C30 22.4453 29.5547 22 29 22H11ZM11 28C10.4453 28 10 28.4453 10 29C10 29.5547 10.4453 30 11 30H31C31.5547 30 32 29.5547 32 29C32 28.4453 31.5547 28 31 28H11ZM11 32C10.4453 32 10 32.4453 10 33C10 33.5547 10.4453 34 11 34H21C21.5547 34 22 33.5547 22 33C22 32.4453 21.5547 32 21 32H11ZM7 42C6.44531 42 6 42.4453 6 43V45C6 45.5547 6.44531 46 7 46C7.55469 46 8 45.5547 8 45V43C8 42.4453 7.55469 42 7 42ZM12 42C11.4453 42 11 42.4453 11 43V45C11 45.5547 11.4453 46 12 46C12.5547 46 13 45.5547 13 45V43C13 42.4453 12.5547 42 12 42ZM17 42C16.4453 42 16 42.4453 16 43V45C16 45.5547 16.4453 46 17 46C17.5547 46 18 45.5547 18 45V43C18 42.4453 17.5547 42 17 42ZM22 42C21.4453 42 21 42.4453 21 43V45C21 45.5547 21.4453 46 22 46C22.5547 46 23 45.5547 23 45V43C23 42.4453 22.5547 42 22 42ZM27 42C26.4453 42 26 42.4453 26 43V45C26 45.5547 26.4453 46 27 46C27.5547 46 28 45.5547 28 45V43C28 42.4453 27.5547 42 27 42ZM32 42C31.4453 42 31 42.4453 31 43V45C31 45.5547 31.4453 46 32 46C32.5547 46 33 45.5547 33 45V43C33 42.4453 32.5547 42 32 42ZM37 42C36.4453 42 36 42.4453 36 43V45C36 45.5547 36.4453 46 37 46C37.5547 46 38 45.5547 38 45V43C38 42.4453 37.5547 42 37 42Z" fill="#2D5EBB"/>
</svg>
