<svg width="62" height="58" viewBox="0 0 62 58" fill="none" xmlns="http://www.w3.org/2000/svg">
<path d="M22.3781 0C20.9977 0 19.702 0.538086 18.7251 1.51716L11.847 8.41113C10.8702 9.39021 10.3333 10.6889 10.3333 12.0725V19.0919L1.50156 24.404C0.577214 24.9583 0 25.9819 0 27.0661V54.8929C0 56.6042 1.39258 58 3.1 58H58.9C60.6074 58 62 56.6042 62 54.8929V27.0661C62 25.9819 61.4228 24.9583 60.4984 24.404L51.6667 19.0919V3.10714C51.6667 1.39579 50.2741 0 48.5667 0H22.3781ZM22.7333 2.07143H48.5667C49.1358 2.07143 49.6 2.53669 49.6 3.10714V27.9643C49.6 28.5347 50.0602 29 50.6333 29C51.2065 29 51.6667 28.5347 51.6667 27.9643V21.5073L59.4328 26.1801C59.7436 26.3662 59.9333 26.7061 59.9333 27.0661V28.3284L32.2674 40.761C31.4642 41.1211 30.5358 41.1211 29.7325 40.761L2.06667 28.3284V27.0661C2.06667 26.7061 2.25638 26.3622 2.56719 26.1801L10.3333 21.5073V27.9643C10.3333 28.5347 10.7935 29 11.3667 29C11.9398 29 12.4 28.5347 12.4 27.9643V12.4286H19.6333C21.3408 12.4286 22.7333 11.0328 22.7333 9.32143V2.07143ZM20.6667 2.58929V9.32143C20.6667 9.89188 20.2025 10.3571 19.6333 10.3571H12.9167C13.0297 10.1872 13.1589 10.0254 13.3082 9.8757L20.1863 2.98172C20.3357 2.83203 20.4971 2.70257 20.6667 2.58929ZM2.06667 30.6021L28.8849 42.6504C29.559 42.9498 30.2815 43.0995 31 43.0995C31.7185 43.0995 32.441 42.9498 33.1151 42.6504L59.9333 30.6021V54.8929C59.9333 55.4633 59.4691 55.9286 58.9 55.9286H3.1C2.53086 55.9286 2.06667 55.4633 2.06667 54.8929V30.6021ZM5.16667 47.6429C4.59349 47.6429 4.13333 48.1081 4.13333 48.6786V50.75C4.13333 51.3204 4.59349 51.7857 5.16667 51.7857C5.73984 51.7857 6.2 51.3204 6.2 50.75V48.6786C6.2 48.1081 5.73984 47.6429 5.16667 47.6429ZM10.3333 47.6429C9.76016 47.6429 9.3 48.1081 9.3 48.6786V50.75C9.3 51.3204 9.76016 51.7857 10.3333 51.7857C10.9065 51.7857 11.3667 51.3204 11.3667 50.75V48.6786C11.3667 48.1081 10.9065 47.6429 10.3333 47.6429ZM15.5 47.6429C14.9268 47.6429 14.4667 48.1081 14.4667 48.6786V50.75C14.4667 51.3204 14.9268 51.7857 15.5 51.7857C16.0732 51.7857 16.5333 51.3204 16.5333 50.75V48.6786C16.5333 48.1081 16.0732 47.6429 15.5 47.6429ZM20.6667 47.6429C20.0935 47.6429 19.6333 48.1081 19.6333 48.6786V50.75C19.6333 51.3204 20.0935 51.7857 20.6667 51.7857C21.2398 51.7857 21.7 51.3204 21.7 50.75V48.6786C21.7 48.1081 21.2398 47.6429 20.6667 47.6429ZM25.8333 47.6429C25.2602 47.6429 24.8 48.1081 24.8 48.6786V50.75C24.8 51.3204 25.2602 51.7857 25.8333 51.7857C26.4065 51.7857 26.8667 51.3204 26.8667 50.75V48.6786C26.8667 48.1081 26.4065 47.6429 25.8333 47.6429ZM31 47.6429C30.4268 47.6429 29.9667 48.1081 29.9667 48.6786V50.75C29.9667 51.3204 30.4268 51.7857 31 51.7857C31.5732 51.7857 32.0333 51.3204 32.0333 50.75V48.6786C32.0333 48.1081 31.5732 47.6429 31 47.6429ZM36.1667 47.6429C35.5935 47.6429 35.1333 48.1081 35.1333 48.6786V50.75C35.1333 51.3204 35.5935 51.7857 36.1667 51.7857C36.7398 51.7857 37.2 51.3204 37.2 50.75V48.6786C37.2 48.1081 36.7398 47.6429 36.1667 47.6429ZM41.3333 47.6429C40.7602 47.6429 40.3 48.1081 40.3 48.6786V50.75C40.3 51.3204 40.7602 51.7857 41.3333 51.7857C41.9065 51.7857 42.3667 51.3204 42.3667 50.75V48.6786C42.3667 48.1081 41.9065 47.6429 41.3333 47.6429ZM46.5 47.6429C45.9268 47.6429 45.4667 48.1081 45.4667 48.6786V50.75C45.4667 51.3204 45.9268 51.7857 46.5 51.7857C47.0732 51.7857 47.5333 51.3204 47.5333 50.75V48.6786C47.5333 48.1081 47.0732 47.6429 46.5 47.6429ZM51.6667 47.6429C51.0935 47.6429 50.6333 48.1081 50.6333 48.6786V50.75C50.6333 51.3204 51.0935 51.7857 51.6667 51.7857C52.2398 51.7857 52.7 51.3204 52.7 50.75V48.6786C52.7 48.1081 52.2398 47.6429 51.6667 47.6429ZM56.8333 47.6429C56.2602 47.6429 55.8 48.1081 55.8 48.6786V50.75C55.8 51.3204 56.2602 51.7857 56.8333 51.7857C57.4065 51.7857 57.8667 51.3204 57.8667 50.75V48.6786C57.8667 48.1081 57.4065 47.6429 56.8333 47.6429Z" fill="#2D5EBB"/>
</svg>
