<svg width="60" height="61" viewBox="0 0 60 61" fill="none" xmlns="http://www.w3.org/2000/svg">
<path d="M29.918 0C29.0234 0.003906 28.1875 0.40625 27.6211 1.09766L24.5273 4.875H3C1.34766 4.875 0 6.22266 0 7.875V13.875C0 15.5273 1.34766 16.875 3 16.875H4V44.875H3C1.34766 44.875 0 46.2227 0 47.875C0 49.5273 1.34766 50.875 3 50.875H29V54.875C29 54.9375 29.0234 54.9922 29.0352 55.0469C27.8555 55.4531 27 56.5586 27 57.875C27 59.5273 28.3477 60.875 30 60.875C31.6523 60.875 33 59.5273 33 57.875C33 56.5586 32.1445 55.4531 30.9648 55.0469C30.9766 54.9922 31 54.9375 31 54.875V50.875H57C58.6523 50.875 60 49.5273 60 47.875C60 46.2227 58.6523 44.875 57 44.875H56V16.875H57C58.6523 16.875 60 15.5273 60 13.875V7.875C60 6.22266 58.6523 4.875 57 4.875H35.4648L32.2305 1.0625C31.6523 0.378906 30.8242 0.003906 29.918 0ZM29.9336 2C30.1289 1.98047 30.4414 2.04297 30.7031 2.35156L32.8438 4.875H27.1094L29.168 2.36719C29.4258 2.05078 29.7578 2 29.9336 2ZM3 6.875H57C57.5508 6.875 58 7.32422 58 7.875V13.875C58 14.4258 57.5508 14.875 57 14.875H3C2.44922 14.875 2 14.4258 2 13.875V7.875C2 7.32422 2.44922 6.875 3 6.875ZM5 8.875C4.44922 8.875 4 9.32422 4 9.875V11.875C4 12.4258 4.44922 12.875 5 12.875C5.55078 12.875 6 12.4258 6 11.875V9.875C6 9.32422 5.55078 8.875 5 8.875ZM10 8.875C9.44922 8.875 9 9.32422 9 9.875V11.875C9 12.4258 9.44922 12.875 10 12.875C10.5508 12.875 11 12.4258 11 11.875V9.875C11 9.32422 10.5508 8.875 10 8.875ZM15 8.875C14.4492 8.875 14 9.32422 14 9.875V11.875C14 12.4258 14.4492 12.875 15 12.875C15.5508 12.875 16 12.4258 16 11.875V9.875C16 9.32422 15.5508 8.875 15 8.875ZM20 8.875C19.4492 8.875 19 9.32422 19 9.875V11.875C19 12.4258 19.4492 12.875 20 12.875C20.5508 12.875 21 12.4258 21 11.875V9.875C21 9.32422 20.5508 8.875 20 8.875ZM25 8.875C24.4492 8.875 24 9.32422 24 9.875V11.875C24 12.4258 24.4492 12.875 25 12.875C25.5508 12.875 26 12.4258 26 11.875V9.875C26 9.32422 25.5508 8.875 25 8.875ZM30 8.875C29.4492 8.875 29 9.32422 29 9.875V11.875C29 12.4258 29.4492 12.875 30 12.875C30.5508 12.875 31 12.4258 31 11.875V9.875C31 9.32422 30.5508 8.875 30 8.875ZM35 8.875C34.4492 8.875 34 9.32422 34 9.875V11.875C34 12.4258 34.4492 12.875 35 12.875C35.5508 12.875 36 12.4258 36 11.875V9.875C36 9.32422 35.5508 8.875 35 8.875ZM40 8.875C39.4492 8.875 39 9.32422 39 9.875V11.875C39 12.4258 39.4492 12.875 40 12.875C40.5508 12.875 41 12.4258 41 11.875V9.875C41 9.32422 40.5508 8.875 40 8.875ZM45 8.875C44.4492 8.875 44 9.32422 44 9.875V11.875C44 12.4258 44.4492 12.875 45 12.875C45.5508 12.875 46 12.4258 46 11.875V9.875C46 9.32422 45.5508 8.875 45 8.875ZM50 8.875C49.4492 8.875 49 9.32422 49 9.875V11.875C49 12.4258 49.4492 12.875 50 12.875C50.5508 12.875 51 12.4258 51 11.875V9.875C51 9.32422 50.5508 8.875 50 8.875ZM55 8.875C54.4492 8.875 54 9.32422 54 9.875V11.875C54 12.4258 54.4492 12.875 55 12.875C55.5508 12.875 56 12.4258 56 11.875V9.875C56 9.32422 55.5508 8.875 55 8.875ZM6 16.875H54V44.875H6V34.375L14.0156 37.7148C14.0117 37.7695 14 37.8203 14 37.875C14 39.5273 15.3477 40.875 17 40.875C18.6523 40.875 20 39.5273 20 37.875C20 37.5195 19.9258 37.1836 19.8125 36.8633L26.4531 31.4336C26.9062 31.707 27.4336 31.875 28 31.875C28.6133 31.875 29.1836 31.6875 29.6602 31.3711L33.1523 33.9844C33.0625 34.2695 33 34.5625 33 34.875C33 36.5273 34.3477 37.875 36 37.875C37.6523 37.875 39 36.5273 39 34.875C39 34.4141 38.8867 33.9805 38.6992 33.5898L46 26.2891V30.3594C46 30.9102 46.4492 31.3594 47 31.3594C47.5508 31.3594 48 30.9102 48 30.3594V23.875C48 23.7461 47.9727 23.6133 47.9219 23.4922C47.8242 23.25 47.6289 23.0547 47.3828 22.9531C47.2617 22.9023 47.1289 22.875 47 22.875H40.5156C39.9648 22.875 39.5156 23.3242 39.5156 23.875C39.5156 24.4258 39.9648 24.875 40.5156 24.875H44.5859L37.2852 32.1758C36.8945 31.9883 36.4609 31.875 36 31.875C35.3867 31.875 34.8164 32.0625 34.3398 32.3789L30.8477 29.7656C30.9375 29.4805 31 29.1875 31 28.875C31 27.2227 29.6523 25.875 28 25.875C26.3477 25.875 25 27.2227 25 28.875C25 29.2305 25.0742 29.5664 25.1875 29.8867L18.5469 35.3164C18.0938 35.043 17.5664 34.875 17 34.875C16.1211 34.875 15.3359 35.2617 14.7852 35.8711L6 32.207V16.875ZM28 27.7188C28.6367 27.7188 29.1562 28.2383 29.1562 28.875C29.1562 29.5117 28.6367 30.0312 28 30.0312C27.3633 30.0312 26.8438 29.5117 26.8438 28.875C26.8438 28.2383 27.3633 27.7188 28 27.7188ZM36 33.7188C36.6367 33.7188 37.1562 34.2383 37.1562 34.875C37.1562 35.5117 36.6367 36.0312 36 36.0312C35.3633 36.0312 34.8438 35.5117 34.8438 34.875C34.8438 34.2383 35.3633 33.7188 36 33.7188ZM17 36.6875C17.6562 36.6875 18.1875 37.2188 18.1875 37.875C18.1875 38.5312 17.6562 39.0625 17 39.0625C16.3438 39.0625 15.8125 38.5312 15.8125 37.875C15.8125 37.2188 16.3438 36.6875 17 36.6875ZM3 46.875H57C57.5508 46.875 58 47.3242 58 47.875C58 48.4258 57.5508 48.875 57 48.875H3C2.44922 48.875 2 48.4258 2 47.875C2 47.3242 2.44922 46.875 3 46.875ZM30 56.875C30.5508 56.875 31 57.3242 31 57.875C31 58.4258 30.5508 58.875 30 58.875C29.4492 58.875 29 58.4258 29 57.875C29 57.3242 29.4492 56.875 30 56.875Z" fill="#2D5EBB"/>
</svg>
