<svg width="58" height="54" viewBox="0 0 58 54" fill="none" xmlns="http://www.w3.org/2000/svg">
<path d="M39 0C34.9141 0 31.4648 2.73828 30.3672 6.46875L20.0508 2.34375C19.3945 2.07812 18.6602 2.05859 17.9883 2.28125L2.05078 7.59375C0.824219 8.00391 0 9.14844 0 10.4414V49.6094C0 50.2539 0.308594 50.8594 0.828125 51.2344C1.34766 51.6094 2.02344 51.7148 2.63281 51.5117L18.6211 46.1797C18.8438 46.1055 19.0859 46.1133 19.3086 46.2031L37.8945 53.6367C38.2539 53.7812 38.6328 53.8516 39.0117 53.8516C39.3789 53.8516 39.7461 53.7852 40.0977 53.6445L56.0859 47.4258C57.25 46.9766 58 45.8789 58 44.6328V5.46094C58 4.80469 57.6758 4.18359 57.1289 3.8125C56.582 3.44141 55.8906 3.35938 55.2773 3.60156L47.6562 6.5625C46.5859 2.78125 43.1172 0 39 0ZM39 2C42.8594 2 46 5.14062 46 9C46 12.8594 42.8594 16 39 16C35.1406 16 32 12.8594 32 9C32 5.14062 35.1406 2 39 2ZM39 4C38.4453 4 38 4.44531 38 5C38 5.55469 38.4453 6 39 6C39.7031 6 40.3906 6.25 40.9258 6.69922C41.1133 6.85547 41.3398 6.93359 41.5664 6.93359C41.8516 6.93359 42.1367 6.80859 42.3359 6.57422C42.6914 6.14844 42.6328 5.51953 42.2109 5.16406C41.3125 4.41406 40.1719 4 39 4ZM18.9648 4.13281C19.082 4.13281 19.1992 4.15625 19.3086 4.20312L30.0273 8.48828C30.0156 8.65625 30 8.82812 30 9C30 9.85547 30.1289 10.6797 30.3516 11.4648L19.7109 7.20703C19.2734 7.03125 18.7812 7.01562 18.3359 7.16797L5.36719 11.4883C4.54688 11.7656 4 12.5273 4 13.3906V43.2812C4 43.9219 4.3125 44.5273 4.82812 44.9023C5.35156 45.2773 6.02344 45.3789 6.63281 45.1758L18.9688 41.0625L38.2656 48.7812C38.5039 48.8789 38.7539 48.9258 39.0078 48.9258C39.2539 48.9258 39.4961 48.8789 39.7305 48.7891L52.7227 43.7344C53.5 43.4336 54 42.7031 54 41.8711V12.0156C54 11.3555 53.6758 10.7383 53.1289 10.3672C52.582 9.99609 51.8906 9.91406 51.2773 10.1562L47.6211 11.5742C47.8633 10.7578 48 9.89453 48 9C48 8.85938 47.9844 8.71875 47.9805 8.57812L56 5.46094V44.6328C56 45.043 55.7422 45.4141 55.3594 45.5625L39.375 51.7812C39.1367 51.875 38.875 51.875 38.6406 51.7812L20.0508 44.3438C19.6953 44.1992 19.3164 44.1289 18.9375 44.1289C18.6172 44.1289 18.2969 44.1797 17.9883 44.2812L2 49.6094V10.4414C2 10.0117 2.27344 9.62891 2.68359 9.49219L18.6211 4.17969C18.7305 4.14453 18.8477 4.12891 18.9648 4.13281ZM18.9688 9.0625L31.6094 14.1211C33.0547 16.2031 35.3555 17.6484 38 17.9414V35C38 35.5547 38.4453 36 39 36C39.5547 36 40 35.5547 40 35V17.9414C42.5977 17.6523 44.8594 16.25 46.3125 14.2305L52 12.0156V41.8711L39.0039 46.9258L19.7109 39.207C19.4727 39.1133 19.2227 39.0625 18.9688 39.0625C18.7539 39.0625 18.5391 39.0977 18.3359 39.168L6 43.2812V13.3867L18.9688 9.0625ZM9 28C8.44531 28 8 28.4453 8 29V31C8 31.5547 8.44531 32 9 32C9.55469 32 10 31.5547 10 31V29C10 28.4453 9.55469 28 9 28ZM14 28C13.4453 28 13 28.4453 13 29V31C13 31.5547 13.4453 32 14 32C14.5547 32 15 31.5547 15 31V29C15 28.4453 14.5547 28 14 28ZM19 28C18.4453 28 18 28.4453 18 29V31C18 31.5547 18.4453 32 19 32C19.5547 32 20 31.5547 20 31V29C20 28.4453 19.5547 28 19 28ZM24 28C23.4453 28 23 28.4453 23 29V31C23 31.5547 23.4453 32 24 32C24.5547 32 25 31.5547 25 31V29C25 28.4453 24.5547 28 24 28ZM29 28C28.4453 28 28 28.4453 28 29V31C28 31.5547 28.4453 32 29 32C29.5547 32 30 31.5547 30 31V29C30 28.4453 29.5547 28 29 28ZM34 28C33.4453 28 33 28.4453 33 29V31C33 31.5547 33.4453 32 34 32C34.5547 32 35 31.5547 35 31V29C35 28.4453 34.5547 28 34 28ZM44 28C43.4453 28 43 28.4453 43 29V31C43 31.5547 43.4453 32 44 32C44.5547 32 45 31.5547 45 31V29C45 28.4453 44.5547 28 44 28ZM49 28C48.4453 28 48 28.4453 48 29V31C48 31.5547 48.4453 32 49 32C49.5547 32 50 31.5547 50 31V29C50 28.4453 49.5547 28 49 28Z" fill="#2D5EBB"/>
</svg>
