<svg width="64" height="66" viewBox="0 0 64 66" fill="none" xmlns="http://www.w3.org/2000/svg">
<path d="M31.9652 0C26.0509 0 21.4186 4.65889 21.4186 10.6071C21.4186 14.3231 22.6145 18.2572 24.5908 21.212H23.7623C18.3635 21.212 12.9897 23.6498 9.73897 27.5744C9.70381 27.6157 9.67214 27.662 9.64284 27.7079L1.71454 40.5617C-1.03813 43.969 -0.399402 49.7543 3.07865 52.7526C3.12787 52.7962 3.18261 52.8323 3.23886 52.8677L12.6434 58.5419L12.9936 62.409C13.1788 64.455 14.6886 66 16.7312 66H46.8628C48.9053 66 50.7517 64.4562 50.9368 62.4113L51.3763 57.5566L60.6137 52.9114C60.6876 52.8749 60.7576 52.8298 60.822 52.7779C62.5692 51.3719 63.7105 49.1847 63.9531 46.7746C64.1851 44.4681 63.5496 42.206 62.2113 40.5548L54.0473 27.6527C54.0203 27.6103 53.9908 27.5708 53.958 27.5307C50.6803 23.5754 45.5259 21.212 40.1682 21.212H39.3396C41.3159 18.2572 42.5119 14.3231 42.5119 10.6071C42.5119 4.65889 37.8795 0 31.9652 0ZM31.9652 2.35714C36.5647 2.35714 40.1682 5.98007 40.1682 10.6071C40.1682 16.4788 36.5096 23.5714 31.9652 23.5714C27.4208 23.5714 23.7623 16.4788 23.7623 10.6071C23.7623 5.98007 27.3657 2.35714 31.9652 2.35714ZM37.3553 23.5691H40.1682C44.8122 23.5691 49.2716 25.5924 52.111 28.9832L60.2727 41.883C60.2997 41.9255 60.3292 41.9661 60.362 42.005C61.3334 43.1777 61.7919 44.8285 61.6208 46.5375C61.4462 48.277 60.6558 49.8468 59.4488 50.8627L55.4022 52.8976V48.3191C55.4022 46.589 54.1575 45.1529 52.5229 44.8502L52.7793 42.0165C52.8801 40.9157 52.5105 39.8166 51.7699 39.001C51.0282 38.1831 49.9738 37.7143 48.8746 37.7143H15.0558C13.9566 37.7143 12.9 38.182 12.1582 38.9987C11.4176 39.8155 11.0492 40.9146 11.1489 42.0165L11.4052 44.8502C9.77167 45.1529 8.52821 46.59 8.52821 48.3191V53.038C8.52821 53.1384 8.54975 53.232 8.55796 53.3304L4.53202 50.8996C2.05824 48.6944 1.58333 44.3999 3.56845 42.005C3.6036 41.9626 3.63528 41.9175 3.66457 41.8715L11.5906 29.0246C14.4136 25.6598 19.069 23.5714 23.7623 23.5714H26.5774C28.1351 25.0252 29.9627 25.9286 31.9652 25.9286C33.9687 25.9286 35.7971 25.0242 37.3553 23.5691ZM15.0558 40.0714H48.8724C49.3212 40.0714 49.7373 40.2558 50.0396 40.5894C50.342 40.9217 50.4846 41.3534 50.4447 41.8025L50.1747 44.7857H47.1993C43.9685 44.7857 41.34 47.4269 41.34 50.6763C41.34 53.9256 43.9685 56.5714 47.1993 56.5714H49.1104L48.6023 62.1973C48.5285 63.0211 47.6855 63.6429 46.8628 63.6429H16.7312C15.9097 63.6429 15.4031 63.0223 15.3281 62.1973L14.82 56.5714H16.7312C19.9608 56.5714 22.5904 53.9256 22.5904 50.6763C22.5904 47.4269 19.962 44.7857 16.7312 44.7857H13.7535L13.4834 41.8025C13.4424 41.3534 13.585 40.9206 13.8885 40.5871C14.192 40.2547 14.607 40.0714 15.0558 40.0714ZM12.0415 47.1429H16.7312C18.6694 47.1429 20.2467 48.7269 20.2467 50.6763C20.2467 52.6256 18.6694 54.2143 16.7312 54.2143H12.0415C11.3958 54.2143 10.8719 53.6874 10.8719 53.038V48.3191C10.8719 47.6697 11.3958 47.1429 12.0415 47.1429ZM47.1993 47.1429H51.8867C52.5324 47.1429 53.0585 47.6686 53.0585 48.3191V53.0334C53.0585 53.684 52.5324 54.2143 51.8867 54.2143H47.1993C45.261 54.2143 43.6837 52.6279 43.6837 50.6786C43.6837 48.7292 45.261 47.1429 47.1993 47.1429ZM37.8062 56.5553C37.4958 56.5602 37.2 56.6887 36.9837 56.9127C36.7674 57.1367 36.6484 57.4378 36.6526 57.75V60.1071C36.6504 60.2633 36.6791 60.4184 36.737 60.5633C36.7949 60.7082 36.8809 60.8401 36.9899 60.9514C37.099 61.0626 37.2289 61.1509 37.3721 61.2112C37.5154 61.2715 37.6692 61.3025 37.8245 61.3025C37.9798 61.3025 38.1335 61.2715 38.2768 61.2112C38.42 61.1509 38.55 61.0626 38.659 60.9514C38.768 60.8401 38.854 60.7082 38.9119 60.5633C38.9698 60.4184 38.9985 60.2633 38.9963 60.1071V57.75C38.9985 57.5923 38.9691 57.4358 38.91 57.2897C38.851 57.1437 38.7633 57.011 38.6524 56.8996C38.5414 56.7882 38.4093 56.7003 38.264 56.6412C38.1186 56.5821 37.9629 56.5529 37.8062 56.5553ZM20.2467 56.5714C19.5998 56.5714 19.0749 57.0983 19.0749 57.75V60.1071C19.0749 60.7589 19.5998 61.2857 20.2467 61.2857C20.8936 61.2857 21.4186 60.7589 21.4186 60.1071V57.75C21.4186 57.0983 20.8936 56.5714 20.2467 56.5714ZM26.106 56.5714C25.4591 56.5714 24.9341 57.0983 24.9341 57.75V60.1071C24.9341 60.7589 25.4591 61.2857 26.106 61.2857C26.7528 61.2857 27.2778 60.7589 27.2778 60.1071V57.75C27.2778 57.0983 26.7528 56.5714 26.106 56.5714ZM31.9652 56.5714C31.3184 56.5714 30.7934 57.0983 30.7934 57.75V60.1071C30.7934 60.7589 31.3184 61.2857 31.9652 61.2857C32.6121 61.2857 33.1371 60.7589 33.1371 60.1071V57.75C33.1371 57.0983 32.6121 56.5714 31.9652 56.5714ZM43.6837 56.5737C43.0369 56.5737 42.5119 57.1006 42.5119 57.7523V60.1071C42.5119 60.7589 43.0369 61.2857 43.6837 61.2857C44.3306 61.2857 44.8556 60.7589 44.8556 60.1071V57.7523C44.8556 57.1006 44.3306 56.5737 43.6837 56.5737Z" fill="#2D5EBB"/>
</svg>
