<svg width="60" height="72" viewBox="0 0 60 72" fill="none" xmlns="http://www.w3.org/2000/svg">
<path d="M30 0C29.2315 0 28.463 0.265562 27.8173 0.792027L25.2071 2.93516C20.4188 6.85803 14.6709 9.37388 8.59116 10.2032L3.02522 10.9673C1.22448 11.2142 -0.0987957 12.8635 0.00579331 14.7224L1.14263 34.565C1.74742 45.1549 6.77223 54.9807 14.9256 61.5219L26.4122 70.7327C27.4671 71.576 28.7313 72 30 72C31.2642 72 32.5283 71.576 33.5833 70.7327L45.0744 61.5219C53.2278 54.9807 58.2526 45.1549 58.8574 34.565L59.9942 14.7271C60.0988 12.8635 58.771 11.2142 56.9703 10.9673L51.4089 10.2032C45.3291 9.37388 39.5812 6.85803 34.7929 2.93516L32.1827 0.792027C31.5416 0.265562 30.7685 0.00465869 30 0ZM30 2.39472C30.2547 2.39472 30.5093 2.47858 30.7276 2.65562L33.3332 4.7941C38.4581 8.99185 44.6015 11.6847 51.0996 12.5699L56.661 13.334C57.2613 13.4132 57.7024 13.963 57.666 14.5826L56.5383 34.4299C55.9698 44.3349 51.2679 53.5271 43.642 59.6444L32.1509 68.8505C30.8867 69.8662 29.1178 69.8708 27.8491 68.8505L16.358 59.6444C8.73213 53.5225 4.03018 44.3349 3.46177 34.4299L2.32948 14.5826C2.2931 13.963 2.73874 13.4132 3.33444 13.334L8.89583 12.5699C15.3985 11.6847 21.5374 8.99185 26.6577 4.7941L29.2724 2.65562C29.4862 2.47858 29.7408 2.39472 30 2.39472ZM30 6.81144C29.4998 6.81144 28.9905 6.97916 28.5676 7.31461L26.8896 8.6564C21.7784 12.7284 15.6668 15.1976 9.21869 15.7986L7.87723 15.9244C6.62216 16.0409 5.69451 17.1404 5.76272 18.431L6.68128 35.4968C7.09509 43.2168 10.692 50.4335 16.549 55.3022L27.7991 64.6435C28.4357 65.1746 29.2179 65.4401 30 65.4401C30.7822 65.4401 31.5643 65.1746 32.2009 64.6435L43.451 55.3022C49.308 50.4335 52.9049 43.2121 53.3187 35.4968L54.2373 18.431C54.3101 17.1404 53.3824 16.0409 52.1228 15.9244L50.7813 15.794C44.3332 15.1976 38.2216 12.7237 33.1104 8.65174L31.4324 7.31461C31.0095 6.97916 30.5048 6.81144 30 6.81144ZM30 9.19684L31.678 10.5386C37.1439 14.8901 43.6738 17.5318 50.5722 18.1747L51.9136 18.2958L50.9951 35.3664C50.795 39.1355 49.7536 42.7695 48.0166 46.0215C47.8483 45.9236 47.6664 45.8538 47.4618 45.8538C46.8161 45.8538 46.2977 46.3895 46.2977 47.0465V48.2392C46.2977 48.3976 46.3295 48.542 46.3841 48.6818C45.1381 50.4429 43.6648 52.0502 41.9868 53.4432L30.7321 62.7938C30.3092 63.1433 29.6908 63.1433 29.2679 62.7938L18.0132 53.4432C16.3353 52.0502 14.8619 50.4429 13.6114 48.6818C13.6705 48.542 13.7024 48.3976 13.7024 48.2392V47.0465C13.7024 46.3895 13.184 45.8538 12.5382 45.8538C12.3336 45.8538 12.1517 45.9236 11.9835 46.0215C10.2464 42.7695 9.20505 39.1355 9.00497 35.3664L8.08641 18.2958L9.42787 18.1747C16.3262 17.5318 22.8561 14.8901 28.322 10.5386L30 9.19684ZM30 14.154C29.5316 14.154 29.0633 14.2938 28.6676 14.5826L25.6709 16.7258C22.6333 18.9108 19.2774 20.5555 15.7077 21.613C15.0938 21.7994 14.7392 22.461 14.9165 23.0946C15.062 23.6164 15.5304 23.9565 16.0351 23.9565C16.1443 23.9565 16.2489 23.9379 16.358 23.9053C20.1732 22.7731 23.752 21.0167 27.0033 18.6825L30 16.5394L32.9876 18.6825C34.3336 19.647 35.7478 20.5228 37.203 21.2869C37.7805 21.5897 38.4808 21.3568 38.7718 20.7698C39.0674 20.1874 38.84 19.4653 38.2716 19.1671C36.9074 18.4496 35.5796 17.6296 34.3245 16.7258L31.3324 14.5826C30.9322 14.2984 30.4638 14.154 30 14.154ZM41.7958 20.8676C41.3411 20.8956 40.9273 21.1891 40.7636 21.6596C40.5453 22.2793 40.859 22.9595 41.4638 23.1831C42.1596 23.4394 42.8553 23.6723 43.5602 23.882C43.6693 23.9146 43.7784 23.9332 43.8876 23.9332C44.3923 23.9332 44.8562 23.5931 45.0062 23.0713C45.1836 22.4377 44.8289 21.7761 44.2104 21.5897C43.5556 21.3941 42.9008 21.1751 42.2551 20.9375C42.105 20.8816 41.9459 20.8629 41.7958 20.8676ZM18.3588 45.8538C17.7131 45.8538 17.1947 46.3895 17.1947 47.0465V49.4319C17.1947 50.0888 17.7131 50.6246 18.3588 50.6246C19.0046 50.6246 19.523 50.0888 19.523 49.4319V47.0465C19.523 46.3895 19.0046 45.8538 18.3588 45.8538ZM24.1794 45.8538C23.5337 45.8538 23.0153 46.3895 23.0153 47.0465V49.4319C23.0153 50.0888 23.5337 50.6246 24.1794 50.6246C24.8251 50.6246 25.3435 50.0888 25.3435 49.4319V47.0465C25.3435 46.3895 24.8251 45.8538 24.1794 45.8538ZM30 45.8538C29.3543 45.8538 28.8359 46.3895 28.8359 47.0465V49.4319C28.8359 50.0888 29.3543 50.6246 30 50.6246C30.6457 50.6246 31.1641 50.0888 31.1641 49.4319V47.0465C31.1641 46.3895 30.6457 45.8538 30 45.8538ZM35.8206 45.8538C35.1749 45.8538 34.6565 46.3895 34.6565 47.0465V49.4319C34.6565 50.0888 35.1749 50.6246 35.8206 50.6246C36.4663 50.6246 36.9847 50.0888 36.9847 49.4319V47.0465C36.9847 46.3895 36.4663 45.8538 35.8206 45.8538ZM41.6412 45.8538C40.9955 45.8538 40.4771 46.3895 40.4771 47.0465V49.4319C40.4771 50.0888 40.9955 50.6246 41.6412 50.6246C42.2869 50.6246 42.8053 50.0888 42.8053 49.4319V47.0465C42.8053 46.3895 42.2869 45.8538 41.6412 45.8538Z" fill="#2D5EBB"/>
</svg>
