<svg width="56" height="66" viewBox="0 0 56 66" fill="none" xmlns="http://www.w3.org/2000/svg">
<path d="M28 0C25.7788 0 23.5577 0.68329 21.6647 2.0457L18.7662 4.13724H3.23077C1.45132 4.13724 0 5.57465 0 7.33704V62.8002C0 64.5626 1.45132 66 3.23077 66H52.7692C54.5487 66 56 64.5626 56 62.8002V7.33704C56 5.57465 54.5487 4.13724 52.7692 4.13724H37.2338L34.3353 2.0457C32.4423 0.68329 30.2212 0 28 0ZM28 2.13736C29.7752 2.13736 31.5505 2.68316 33.0649 3.7706L37.4399 6.9204C38.2728 7.52036 38.7692 8.49113 38.7692 9.5119V11.6034C38.7692 12.1909 38.2855 12.67 37.6923 12.67H18.3077C17.7145 12.67 17.2308 12.1909 17.2308 11.6034V9.5119C17.2308 8.49113 17.7272 7.52036 18.5601 6.9204L22.9351 3.7706C24.4495 2.679 26.2248 2.1332 28 2.13736ZM28 4.13724C26.8095 4.13724 25.8462 5.09134 25.8462 6.27044C25.8462 7.44953 26.8095 8.40364 28 8.40364C29.1905 8.40364 30.1538 7.44953 30.1538 6.27044C30.1538 5.09134 29.1905 4.13724 28 4.13724ZM3.23077 6.27044H16.1959C15.485 7.19121 15.0769 8.32864 15.0769 9.5119V10.5368H8.61539C7.42909 10.5368 6.46154 11.4951 6.46154 12.67V57.4672C6.46154 58.6421 7.42909 59.6004 8.61539 59.6004H38.9543C39.8167 59.6004 40.6286 59.2671 41.2386 58.663L48.5919 51.3801C49.2019 50.776 49.5385 49.9718 49.5385 49.1177V12.67C49.5385 11.4951 48.5709 10.5368 47.3846 10.5368H40.9231V9.5119C40.9231 8.32864 40.515 7.19121 39.8041 6.27044H52.7692C53.3624 6.27044 53.8462 6.74957 53.8462 7.33704V62.8002C53.8462 63.3877 53.3624 63.8668 52.7692 63.8668H3.23077C2.63762 63.8668 2.15385 63.3877 2.15385 62.8002V7.33704C2.15385 6.74957 2.63762 6.27044 3.23077 6.27044ZM8.61539 12.67H15.2746C15.7206 13.9075 16.9069 14.8032 18.3077 14.8032H37.6923C39.0932 14.8032 40.2794 13.9075 40.7254 12.67H47.3846V48.9344H40.9231C39.7368 48.9344 38.7692 49.8927 38.7692 51.0676V57.4672H8.61539V12.67ZM11.8462 16.9364C11.2488 16.9364 10.7692 17.4156 10.7692 18.003V20.1362C10.7692 20.7237 11.2488 21.2028 11.8462 21.2028C12.4435 21.2028 12.9231 20.7237 12.9231 20.1362V18.003C12.9231 17.4156 12.4435 16.9364 11.8462 16.9364ZM17.2308 16.9364C16.6334 16.9364 16.1538 17.4156 16.1538 18.003V20.1362C16.1538 20.7237 16.6334 21.2028 17.2308 21.2028C17.8281 21.2028 18.3077 20.7237 18.3077 20.1362V18.003C18.3077 17.4156 17.8281 16.9364 17.2308 16.9364ZM22.6154 16.9364C22.018 16.9364 21.5385 17.4156 21.5385 18.003V20.1362C21.5385 20.7237 22.018 21.2028 22.6154 21.2028C23.2127 21.2028 23.6923 20.7237 23.6923 20.1362V18.003C23.6923 17.4156 23.2127 16.9364 22.6154 16.9364ZM28 16.9364C27.4026 16.9364 26.9231 17.4156 26.9231 18.003V20.1362C26.9231 20.7237 27.4026 21.2028 28 21.2028C28.5974 21.2028 29.0769 20.7237 29.0769 20.1362V18.003C29.0769 17.4156 28.5974 16.9364 28 16.9364ZM33.3846 16.9364C32.7873 16.9364 32.3077 17.4156 32.3077 18.003V20.1362C32.3077 20.7237 32.7873 21.2028 33.3846 21.2028C33.982 21.2028 34.4615 20.7237 34.4615 20.1362V18.003C34.4615 17.4156 33.982 16.9364 33.3846 16.9364ZM38.7692 16.9364C38.1719 16.9364 37.6923 17.4156 37.6923 18.003V20.1362C37.6923 20.7237 38.1719 21.2028 38.7692 21.2028C39.3666 21.2028 39.8462 20.7237 39.8462 20.1362V18.003C39.8462 17.4156 39.3666 16.9364 38.7692 16.9364ZM44.1538 16.9364C43.5565 16.9364 43.0769 17.4156 43.0769 18.003V20.1362C43.0769 20.7237 43.5565 21.2028 44.1538 21.2028C44.7512 21.2028 45.2308 20.7237 45.2308 20.1362V18.003C45.2308 17.4156 44.7512 16.9364 44.1538 16.9364ZM17.2308 26.5358C16.9573 26.5358 16.6797 26.64 16.4694 26.8483L15.0769 28.2274L14.7614 27.9149C14.3407 27.4983 13.6593 27.4983 13.2386 27.9149C12.8179 28.3315 12.8179 29.0065 13.2386 29.4231L14.3155 30.4897C14.5258 30.6981 14.7993 30.8022 15.0769 30.8022C15.3546 30.8022 15.628 30.6981 15.8383 30.4897L17.9922 28.3565C18.4129 27.9399 18.4129 27.2649 17.9922 26.8483C17.7819 26.64 17.5042 26.5358 17.2308 26.5358ZM22.6154 27.6024C22.018 27.6024 21.5385 28.0816 21.5385 28.669C21.5385 29.2565 22.018 29.7356 22.6154 29.7356H42C42.5974 29.7356 43.0769 29.2565 43.0769 28.669C43.0769 28.0816 42.5974 27.6024 42 27.6024H22.6154ZM17.2308 32.9354C16.9573 32.9354 16.6797 33.0396 16.4694 33.2479L15.0769 34.627L14.7614 34.3145C14.3407 33.8979 13.6593 33.8979 13.2386 34.3145C12.8179 34.7311 12.8179 35.4061 13.2386 35.8227L14.3155 36.8893C14.5258 37.0977 14.7993 37.2018 15.0769 37.2018C15.3546 37.2018 15.628 37.0977 15.8383 36.8893L17.9922 34.7561C18.4129 34.3395 18.4129 33.6645 17.9922 33.2479C17.7819 33.0396 17.5042 32.9354 17.2308 32.9354ZM22.6154 34.002C22.018 34.002 21.5385 34.4812 21.5385 35.0686C21.5385 35.6561 22.018 36.1352 22.6154 36.1352H37.6923C38.2897 36.1352 38.7692 35.6561 38.7692 35.0686C38.7692 34.4812 38.2897 34.002 37.6923 34.002H22.6154ZM17.2308 39.335C16.9573 39.335 16.6797 39.4392 16.4694 39.6475L15.0769 41.0266L14.7614 40.7141C14.3407 40.2975 13.6593 40.2975 13.2386 40.7141C12.8179 41.1307 12.8179 41.8057 13.2386 42.2223L14.3155 43.2889C14.5258 43.4973 14.7993 43.6014 15.0769 43.6014C15.3546 43.6014 15.628 43.4973 15.8383 43.2889L17.9922 41.1557C18.4129 40.7391 18.4129 40.0641 17.9922 39.6475C17.7819 39.4392 17.5042 39.335 17.2308 39.335ZM22.6154 40.4016C22.018 40.4016 21.5385 40.8808 21.5385 41.4682C21.5385 42.0557 22.018 42.5348 22.6154 42.5348H39.8462C40.4435 42.5348 40.9231 42.0557 40.9231 41.4682C40.9231 40.8808 40.4435 40.4016 39.8462 40.4016H22.6154ZM17.2308 45.7346C16.9573 45.7346 16.6797 45.8388 16.4694 46.0471L15.0769 47.4262L14.7614 47.1137C14.3407 46.6971 13.6593 46.6971 13.2386 47.1137C12.8179 47.5303 12.8179 48.2053 13.2386 48.6219L14.3155 49.6885C14.5258 49.8969 14.7993 50.001 15.0769 50.001C15.3546 50.001 15.628 49.8969 15.8383 49.6885L17.9922 47.5553C18.4129 47.1387 18.4129 46.4637 17.9922 46.0471C17.7819 45.8388 17.5042 45.7346 17.2308 45.7346ZM22.6154 46.8012C22.018 46.8012 21.5385 47.2803 21.5385 47.8678C21.5385 48.4553 22.018 48.9344 22.6154 48.9344H29.0769C29.6743 48.9344 30.1538 48.4553 30.1538 47.8678C30.1538 47.2803 29.6743 46.8012 29.0769 46.8012H22.6154ZM40.9231 51.0676H45.8618L40.9231 55.959V51.0676Z" fill="#2D5EBB"/>
</svg>
