<svg width="176" height="42" viewBox="0 0 176 42" fill="none" xmlns="http://www.w3.org/2000/svg">
<path d="M23.1868 30.1397V40.2941H20.3176V30.1397H14.6609V27.9287H28.8668V30.1397H23.1868Z" fill="white"/>
<path d="M41.6499 30.0695H35.2V33.5089H41.6499C42.1475 33.5089 42.4857 33.4387 42.6646 33.2983C42.8512 33.1502 42.9445 32.8928 42.9445 32.5262V31.0405C42.9445 30.6818 42.8512 30.4322 42.6646 30.2918C42.4857 30.1436 42.1475 30.0695 41.6499 30.0695ZM32.3775 40.2941V27.9287H42.9212C43.9009 27.9287 44.6085 28.1198 45.0439 28.5019C45.4871 28.8763 45.7087 29.4846 45.7087 30.3269V33.2281C45.7087 34.0626 45.4871 34.671 45.0439 35.0531C44.6085 35.4353 43.9009 35.6263 42.9212 35.6263H41.3116L47.0033 40.2941H42.8862L37.9176 35.6263H35.2V40.2941H32.3775Z" fill="white"/>
<path d="M53.8264 35.3573H59.2265L56.5673 30.3269L53.8264 35.3573ZM48.3096 40.2941L55.2843 27.9287H58.0485L65.1165 40.2941H61.8974L60.4162 37.5917H52.6017L51.1672 40.2941H48.3096Z" fill="white"/>
<path d="M69.0704 40.2941V27.9287H71.0298L79.7074 35.2169C80.0028 35.4587 80.2633 35.6887 80.4888 35.9071C80.7143 36.1177 80.9204 36.3361 81.107 36.5622C81.0603 35.8681 81.0292 35.3768 81.0137 35.0882C80.9981 34.7997 80.9903 34.5774 80.9903 34.4214V27.9287H83.5679V40.2941H81.6085L72.5577 32.6549C72.34 32.4599 72.1495 32.2845 71.9862 32.1285C71.823 31.9725 71.6713 31.8126 71.5314 31.6488C71.5702 32.031 71.5975 32.3937 71.613 32.7368C71.6363 33.0722 71.648 33.3646 71.648 33.6142V40.2941H69.0704Z" fill="white"/>
<path d="M100.538 30.0929H92.4671V32.7485H100.153C101.358 32.7485 102.171 32.9552 102.591 33.3685C103.019 33.7819 103.232 34.5501 103.232 35.6731V37.3694C103.232 38.4925 103.019 39.2607 102.591 39.674C102.171 40.0874 101.358 40.2941 100.153 40.2941H92.5371C91.3319 40.2941 90.5154 40.0874 90.0878 39.674C89.6679 39.2607 89.4579 38.4925 89.4579 37.3694V37.0302L91.9889 36.5037V37.9661H100.701V35.1467H93.0153C91.8178 35.1467 91.0092 34.94 90.5893 34.5267C90.1694 34.1133 89.9595 33.3451 89.9595 32.2221V30.8533C89.9595 29.7303 90.1694 28.9621 90.5893 28.5487C91.0092 28.1354 91.8178 27.9287 93.0153 27.9287H100.013C101.172 27.9287 101.969 28.1276 102.404 28.5253C102.847 28.9231 103.069 29.6289 103.069 30.6428V30.9001L100.538 31.4968V30.0929Z" fill="white"/>
<path d="M114.931 30.1397V40.2941H112.062V30.1397H106.405V27.9287H120.611V30.1397H114.931Z" fill="white"/>
<path d="M124.121 40.2941V27.9287H136.741V30.0344H126.991V32.7953H132.682V34.901H126.991V37.9661H136.858V40.2941H124.121Z" fill="white"/>
<path d="M152.498 30.1397H144.766V37.9661H152.498V35.3105L155.368 35.9071V37.3694C155.368 38.5003 155.154 39.2724 154.726 39.6857C154.306 40.0913 153.501 40.2941 152.312 40.2941H144.952C143.755 40.2941 142.946 40.0913 142.526 39.6857C142.106 39.2724 141.896 38.5003 141.896 37.3694V30.8533C141.896 29.7303 142.106 28.9621 142.526 28.5487C142.946 28.1354 143.755 27.9287 144.952 27.9287H152.312C153.501 27.9287 154.306 28.1354 154.726 28.5487C155.154 28.9621 155.368 29.7303 155.368 30.8533V32.0232L152.498 32.4794V30.1397Z" fill="white"/>
<path d="M161.281 40.2941V27.9287H164.15V32.7251H173.108V27.9287H176V40.2941H173.108V34.9712H164.15V40.2941H161.281Z" fill="white"/>
<path d="M68.2587 15.712H63.3018V17.6729H67.7153C68.3382 17.6729 68.7646 17.7881 68.9943 18.0185C69.224 18.2489 69.3389 18.6854 69.3389 19.3279V20.1189C69.3389 20.7659 69.2262 21.2046 69.0009 21.435C68.7756 21.6654 68.3471 21.7807 67.7153 21.7807H63.6265C62.9903 21.7807 62.5574 21.6654 62.3276 21.435C62.0979 21.2002 61.983 20.7615 61.983 20.1189V19.9262L63.0698 19.6736V20.8036H68.2852V18.6898H63.885C63.2488 18.6898 62.818 18.5746 62.5927 18.3442C62.3674 18.1094 62.2547 17.6707 62.2547 17.0281V16.4166C62.2547 15.7741 62.3674 15.3376 62.5927 15.1072C62.818 14.8723 63.2488 14.7549 63.885 14.7549H67.6159C68.2388 14.7549 68.6674 14.8701 68.9015 15.1005C69.1401 15.3265 69.2594 15.7253 69.2594 16.297V16.4432L68.2587 16.729V15.712Z" fill="white"/>
<path d="M85.9154 21.7807V18.7164L82.3634 14.7549H83.8147L86.5516 17.8856L89.1759 14.7549H90.6007L87.0818 18.6898V21.7807H85.9154Z" fill="white"/>
<path d="M109.682 15.712H104.725V17.6729H109.139C109.762 17.6729 110.188 17.7881 110.418 18.0185C110.647 18.2489 110.762 18.6854 110.762 19.3279V20.1189C110.762 20.7659 110.65 21.2046 110.424 21.435C110.199 21.6654 109.771 21.7807 109.139 21.7807H105.05C104.414 21.7807 103.981 21.6654 103.751 21.435C103.521 21.2002 103.406 20.7615 103.406 20.1189V19.9262L104.493 19.6736V20.8036H109.709V18.6898H105.308C104.672 18.6898 104.241 18.5746 104.016 18.3442C103.791 18.1094 103.678 17.6707 103.678 17.0281V16.4166C103.678 15.7741 103.791 15.3376 104.016 15.1072C104.241 14.8723 104.672 14.7549 105.308 14.7549H109.039C109.662 14.7549 110.091 14.8701 110.325 15.1005C110.564 15.3265 110.683 15.7253 110.683 16.297V16.4432L109.682 16.729V15.712Z" fill="white"/>
<path d="M127.882 15.712V21.7807H126.716V15.712H123.515V14.7549H131.096V15.712H127.882Z" fill="white"/>
<path d="M143.922 21.7807V14.7549H150.668V15.6987H145.095V17.6529H148.501V18.5835H145.095V20.8169H150.721V21.7807H143.922Z" fill="white"/>
<path d="M165.303 16.0111C165.321 16.1485 165.334 16.2925 165.343 16.4432C165.352 16.5939 165.356 16.7933 165.356 17.0414V21.7807H164.362V14.7549H165.316L168.723 19.3279L171.897 14.7549H172.97V21.7807H171.897V17.0414C171.897 16.9794 171.903 16.8243 171.917 16.5761C171.934 16.3236 171.945 16.1352 171.95 16.0111C171.862 16.1928 171.782 16.3457 171.711 16.4698C171.645 16.5939 171.585 16.6936 171.532 16.7689L168.855 20.6773H168.557L165.774 16.8752C165.769 16.8708 165.758 16.8553 165.74 16.8287C165.537 16.5495 165.391 16.277 165.303 16.0111Z" fill="white"/>
<path opacity="0.2" d="M52.3361 13.723C52.3812 13.7834 52.4264 13.8438 52.4715 13.9042L54.0072 12.7491C53.0347 11.2765 51.9302 9.89609 50.7074 8.625L48.8405 10.0292C50.1354 11.1301 51.3074 12.3686 52.3361 13.723Z" fill="white"/>
<path d="M11.3479 34.9366C10.1474 31.1118 9.94238 27.0426 10.7524 23.116L1.36876 21.8032C1.21668 22.3045 1.07514 22.8074 0.956173 23.3027C-0.0536176 27.3268 -0.266131 31.5107 0.330684 35.6169L0.535352 36.973C0.612107 37.4154 0.735533 37.8322 0.836377 38.2565C1.05613 39.0916 1.21868 39.913 1.4836 40.6575C1.64918 41.1181 1.80572 41.5666 1.96979 41.9999L11.3479 34.9366Z" fill="white"/>
<path opacity="0.8" d="M11.4466 20.5461C12.5294 17.2262 14.3416 14.1925 16.7494 11.6689L12.4501 5.91846C10.5826 7.31467 8.87583 8.91499 7.36126 10.6899C5.19061 13.2317 3.46575 16.1247 2.26016 19.2454L11.4466 20.5461Z" fill="white"/>
<path opacity="0.6" d="M18.6916 9.84929C19.0088 9.61073 19.3259 9.37216 19.6431 9.13359C22.4752 6.99622 25.7562 5.53535 29.2363 4.86227L29.9291 0C26.3136 0.0459151 22.7349 0.734366 19.359 2.0334C17.7167 2.68778 16.1362 3.48818 14.6361 4.42502L18.6916 9.84929Z" fill="white"/>
<path opacity="0.4" d="M33.6973 0.194988C33.3224 0.146645 32.9446 0.119442 32.5772 0.09375L31.9311 4.47734C37.1368 4.0972 42.3204 5.46838 46.6621 8.37408L48.7699 6.78867C47.928 6.05967 47.0421 5.38335 46.1174 4.76355C42.3767 2.31489 38.1294 0.752559 33.6973 0.194988Z" fill="white"/>
</svg>
