<svg width="17" height="16" viewBox="0 0 17 16" fill="none" xmlns="http://www.w3.org/2000/svg">
<path d="M16.1076 7.23171L9.1356 0.317994C8.70803 -0.105998 8.01424 -0.105998 7.58605 0.317994L0.614622 7.23171C0.187053 7.6557 0.187053 8.34369 0.614622 8.76829L7.58667 15.682C8.01424 16.106 8.70803 16.106 9.13622 15.682L16.1083 8.76829C16.5352 8.34369 16.5352 7.6557 16.1076 7.23171ZM9.11326 3.69208L8.98915 9.23044H7.73312L7.60901 3.69208H9.11326ZM8.363 12.4236C7.84917 12.4236 7.54199 12.1522 7.54199 11.6962C7.54199 11.2316 7.84855 10.9603 8.363 10.9603C8.8731 10.9603 9.17966 11.2316 9.17966 11.6962C9.17966 12.1522 8.8731 12.4236 8.363 12.4236Z" fill="#2D5EBB"/>
</svg>
