<svg width="17" height="16" viewBox="0 0 17 16" fill="none" xmlns="http://www.w3.org/2000/svg">
<path d="M16.1086 7.23171L9.13658 0.317994C8.70901 -0.105998 8.01522 -0.105998 7.58703 0.317994L0.615599 7.23171C0.18803 7.6557 0.18803 8.34369 0.615599 8.76829L7.58765 15.682C8.01522 16.106 8.70901 16.106 9.1372 15.682L16.1092 8.76829C16.5362 8.34369 16.5362 7.6557 16.1086 7.23171ZM9.11424 3.69208L8.99012 9.23044H7.7341L7.60999 3.69208H9.11424ZM8.36397 12.4236C7.85015 12.4236 7.54297 12.1522 7.54297 11.6962C7.54297 11.2316 7.84953 10.9603 8.36397 10.9603C8.87408 10.9603 9.18064 11.2316 9.18064 11.6962C9.18064 12.1522 8.87408 12.4236 8.36397 12.4236Z" fill="white"/>
</svg>
