<svg width="24" height="24" viewBox="0 0 24 24" fill="none" xmlns="http://www.w3.org/2000/svg">
<path d="M12 24C18.627 24 24 18.627 24 12C24 5.373 18.627 0 12 0C5.373 0 0 5.373 0 12C0 18.627 5.373 24 12 24ZM7.293 11.293L13.293 5.293C13.488 5.098 13.744 5 14 5C14.256 5 14.512 5.098 14.707 5.293C15.098 5.684 15.098 6.316 14.707 6.707L9.414 12L14.707 17.293C15.098 17.684 15.098 18.316 14.707 18.707C14.316 19.098 13.684 19.098 13.293 18.707L7.293 12.707C6.902 12.316 6.902 11.684 7.293 11.293Z" fill="#2D5EBB"/>
</svg>
