<svg width="50" height="47" viewBox="0 0 50 47" fill="none" xmlns="http://www.w3.org/2000/svg">
<path d="M21.3613 0C15.91 0 12.4068 2.51761 11.3125 5.2207C7.01903 6.13365 4 10.8307 4 15.998C4 18.1251 4.61708 20.2546 5.68555 22.6191C4.8128 23.6869 4 25.0258 4 27C4 29.5874 5.69422 32.0803 8.71289 33.4688C7.76484 35.6746 7.96809 37.8024 9.09766 39.3164C10.2709 40.889 12.2424 41.7072 14.3594 41.8691C15.0011 43.5547 16.157 44.7257 17.4375 45.2832C18.8959 45.9181 20.388 46 21.3613 46C22.8494 46 24.1542 45.2986 25.002 44.2109C25.8492 45.2923 27.1501 45.9893 28.6309 46H28.6328C29.553 46.0066 31.0391 45.9227 32.5098 45.2891C33.7789 44.7422 34.9328 43.591 35.5938 41.9492C37.1924 41.8976 38.8463 41.6608 40.248 40.8711C41.823 39.9838 43 38.3042 43 36C43 35.0991 42.6752 34.2675 42.291 33.4316C43.5752 32.7933 44.587 31.976 45.1406 30.9668C45.8385 29.6946 46 28.3 46 27C46 25.0067 45.0586 23.8077 44.1445 22.8281C45.229 20.4639 46.0353 18.1787 46 15.9824C45.907 10.148 41.9751 6.05236 37.7109 5.20508C36.7607 2.70719 34.0586 0 28.6387 0C27.2746 0 25.9492 0.350431 25.1133 1.42773C25.0721 1.48086 25.0385 1.54043 25 1.5957C24.9615 1.54043 24.9279 1.48086 24.8867 1.42773C24.0508 0.350431 22.7254 0 21.3613 0ZM21.3613 2C22.4402 2 22.9338 2.1719 23.3066 2.65234C23.6794 3.13279 24 4.21132 24 6.18555V11.832C23.9822 11.94 23.9822 12.0502 24 12.1582V16H21V11H16.8125C16.3951 9.84267 15.2932 9 14 9C12.355 9 11 10.355 11 12C11 13.645 12.355 15 14 15C15.2932 15 16.3951 14.1573 16.8125 13H19V18H24V26H17V32.1875C15.8427 32.6049 15 33.7068 15 35C15 36.645 16.355 38 18 38C19.645 38 21 36.645 21 35C21 33.7068 20.1573 32.6049 19 32.1875V28H24V34.832C23.9822 34.94 23.9822 35.0502 24 35.1582V41.332C24 42.9685 22.9403 44 21.3613 44C20.5187 44 19.2795 43.9033 18.2363 43.4492C17.1932 42.9951 16.3472 42.284 15.9707 40.7598L15.7832 40H15C13.1661 40 11.5336 39.2369 10.7012 38.1211C9.86871 37.0053 9.64835 35.547 10.8594 33.5117L11.4922 32.4473L10.3184 32.0527C7.26662 31.027 6 28.976 6 27C6 25.2803 6.63829 24.413 7.54102 23.4258L7.92969 23H11.1875C11.6049 24.1573 12.7068 25 14 25C15.645 25 17 23.645 17 22C17 20.355 15.645 19 14 19C12.7068 19 11.6049 19.8427 11.1875 21H7.13281C6.37483 19.1535 6 17.5613 6 15.998C6 11.4082 8.87545 7.39088 12.1211 6.99219L12.7812 6.91211L12.9609 6.27344C13.4086 4.6991 16.2392 2 21.3613 2ZM28.6387 2C33.7608 2 35.5148 4.43269 36.0391 6.27344L36.2207 6.91211L36.8789 6.99219C40.2507 7.40637 43.9174 10.8297 44 16.0156C44.0296 17.8558 43.2768 20.0996 42.0977 22.5684L41.7949 23.2031L42.2871 23.7012C43.3296 24.7587 44 25.3213 44 27C44 28.127 43.8463 29.1661 43.3867 30.0039C43.0939 30.5377 42.6515 31.0088 42 31.416V27H33V23.8125C34.1573 23.3951 35 22.2932 35 21C35 19.355 33.645 18 32 18C30.355 18 29 19.355 29 21C29 22.2932 29.8427 23.3951 31 23.8125V29H40V32.8574C39.9655 33.0858 40.011 33.319 40.1289 33.5176C40.1296 33.5182 40.1302 33.5189 40.1309 33.5195C40.6491 34.5774 41 35.4745 41 36C41 37.6958 40.3531 38.5162 39.2656 39.1289C38.1781 39.7416 36.5755 40 35 40H34.2168L34.0293 40.7598C33.6555 42.2732 32.7826 42.9948 31.7188 43.4531C30.6549 43.9115 29.4103 44.0054 28.6465 44C27.059 43.9885 26 42.9685 26 41.332V36H30.1875C30.6049 37.1573 31.7068 38 33 38C34.645 38 36 36.645 36 35C36 33.355 34.645 32 33 32C31.7068 32 30.6049 32.8427 30.1875 34H26V27.168C26.0178 27.06 26.0178 26.9498 26 26.8418V17.168C26.0178 17.06 26.0178 16.9498 26 16.8418V13H34.1875C34.6049 14.1573 35.7068 15 37 15C38.645 15 40 13.645 40 12C40 10.355 38.645 9 37 9C35.7068 9 34.6049 9.84267 34.1875 11H26V6.18555C26 4.21132 26.3206 3.13279 26.6934 2.65234C27.0662 2.1719 27.5598 2 28.6387 2ZM14 11C14.5438 11 14.9584 11.4088 14.9883 11.9434C14.9861 11.9817 14.9861 12.0202 14.9883 12.0586C14.9575 12.5922 14.5432 13 14 13C13.4359 13 13 12.5641 13 12C13 11.4359 13.4359 11 14 11ZM37 11C37.5641 11 38 11.4359 38 12C38 12.5641 37.5641 13 37 13C36.4562 13 36.0416 12.5912 36.0117 12.0566C36.0139 12.0183 36.0139 11.9798 36.0117 11.9414C36.0425 11.4078 36.4568 11 37 11ZM32 20C32.5641 20 33 20.4359 33 21C33 21.5438 32.5912 21.9584 32.0566 21.9883C32.0326 21.9868 32.0085 21.9861 31.9844 21.9863C31.97 21.9867 31.9557 21.9873 31.9414 21.9883C31.4078 21.9575 31 21.5432 31 21C31 20.4359 31.4359 20 32 20ZM14 21C14.5641 21 15 21.4359 15 22C15 22.5641 14.5641 23 14 23C13.4562 23 13.0416 22.5912 13.0117 22.0566C13.0139 22.0183 13.0139 21.9798 13.0117 21.9414C13.0425 21.4078 13.4568 21 14 21ZM33 34C33.5641 34 34 34.4359 34 35C34 35.5641 33.5641 36 33 36C32.4562 36 32.0416 35.5912 32.0117 35.0566C32.0139 35.0183 32.0139 34.9798 32.0117 34.9414C32.0425 34.4078 32.4568 34 33 34ZM17.9434 34.0117C17.9817 34.0139 18.0202 34.0139 18.0586 34.0117C18.5922 34.0425 19 34.4568 19 35C19 35.5641 18.5641 36 18 36C17.4359 36 17 35.5641 17 35C17 34.4562 17.4088 34.0416 17.9434 34.0117Z" fill="#2D5EBB"/>
</svg>
