<svg width="24" height="23" viewBox="0 0 24 23" fill="none" xmlns="http://www.w3.org/2000/svg">
<path d="M12 0.776367C5.373 0.776367 0 5.72263 0 11.8233C0 17.924 5.373 22.8702 12 22.8702C18.627 22.8702 24 17.924 24 11.8233C24 5.72263 18.627 0.776367 12 0.776367ZM13.414 11.8233C13.414 11.8233 16.553 14.713 16.707 14.8548C17.098 15.2147 17.098 15.7974 16.707 16.1565C16.316 16.5164 15.683 16.5164 15.293 16.1565C15.139 16.0156 12 13.125 12 13.125C12 13.125 8.861 16.0147 8.707 16.1565C8.316 16.5164 7.683 16.5164 7.293 16.1565C6.902 15.7965 6.902 15.2138 7.293 14.8548C7.446 14.713 10.586 11.8233 10.586 11.8233C10.586 11.8233 7.447 8.93361 7.293 8.79184C6.902 8.43189 6.902 7.84917 7.293 7.49014C7.684 7.1302 8.317 7.1302 8.707 7.49014C8.861 7.63099 12 10.5216 12 10.5216C12 10.5216 15.139 7.63191 15.293 7.49014C15.684 7.1302 16.317 7.1302 16.707 7.49014C17.098 7.85009 17.098 8.43281 16.707 8.79184C16.554 8.93361 13.414 11.8233 13.414 11.8233Z" fill="#2D5EBB"/>
</svg>
