<svg width="24" height="20" viewBox="0 0 24 20" fill="none" xmlns="http://www.w3.org/2000/svg">
<path d="M3.69231 0C1.65323 0 0 1.4925 0 3.33333V13.3333C0 15.1742 1.65323 16.6667 3.69231 16.6667H6.02524C5.84868 17.6452 5.33581 18.6341 3.99339 19.1927C3.90503 19.2223 3.82882 19.2756 3.775 19.3454C3.72118 19.4152 3.69232 19.4983 3.69231 19.5833C3.69231 19.6938 3.74093 19.7998 3.82749 19.878C3.91404 19.9561 4.03144 20 4.15385 20C4.19965 20.0001 4.24522 19.9941 4.28906 19.9821C6.58614 19.9364 9.0616 18.7301 10.4026 16.6667H20.3077C22.3468 16.6667 24 15.1742 24 13.3333V3.33333C24 1.4925 22.3468 0 20.3077 0H3.69231ZM6.46154 6.66667C7.48154 6.66667 8.30769 7.4125 8.30769 8.33333C8.30769 9.25417 7.48154 10 6.46154 10C5.44154 10 4.61538 9.25417 4.61538 8.33333C4.61538 7.4125 5.44154 6.66667 6.46154 6.66667ZM12 6.66667C13.02 6.66667 13.8462 7.4125 13.8462 8.33333C13.8462 9.25417 13.02 10 12 10C10.98 10 10.1538 9.25417 10.1538 8.33333C10.1538 7.4125 10.98 6.66667 12 6.66667ZM17.5385 6.66667C18.5585 6.66667 19.3846 7.4125 19.3846 8.33333C19.3846 9.25417 18.5585 10 17.5385 10C16.5185 10 15.6923 9.25417 15.6923 8.33333C15.6923 7.4125 16.5185 6.66667 17.5385 6.66667Z" fill="white"/>
</svg>
