<?xml version="1.0"?>
<svg xmlns="http://www.w3.org/2000/svg" id="Layer" enable-background="new 0 0 64 64" height="512px" viewBox="0 0 64 64" width="512px" class=""><g><circle cx="32" cy="32" fill="#4dd0e1" r="22" data-original="#4DD0E1" class=""/><g fill="#012e52"><path d="m32 8c-13.234 0-24 10.766-24 24s10.766 24 24 24 24-10.766 24-24-10.766-24-24-24zm0 44c-11.028 0-20-8.972-20-20s8.972-20 20-20 20 8.972 20 20-8.972 20-20 20z" data-original="#012E52" class="active-path" style="fill:#2D5EBB" data-old_color="#012E52"/><path d="m39.414 24.586c-.78-.781-2.048-.781-2.828 0l-4.586 4.586-4.586-4.586c-.78-.781-2.048-.781-2.828 0-.781.781-.781 2.047 0 2.828l4.586 4.586-4.586 4.586c-.781.781-.781 2.047 0 2.828.39.391.902.586 1.414.586s1.024-.195 1.414-.586l4.586-4.586 4.586 4.586c.39.391.902.586 1.414.586s1.024-.195 1.414-.586c.781-.781.781-2.047 0-2.828l-4.586-4.586 4.586-4.586c.781-.781.781-2.047 0-2.828z" data-original="#012E52" class="active-path" style="fill:#2D5EBB" data-old_color="#012E52"/></g></g> </svg>
