<svg width="15" height="13" viewBox="0 0 15 13" fill="none" xmlns="http://www.w3.org/2000/svg">
<path d="M2.30769 0C1.03327 0 0 0.970125 0 2.16667V8.66667C0 9.86321 1.03327 10.8333 2.30769 10.8333H3.76578C3.65542 11.4693 3.33488 12.1122 2.49587 12.4753C2.44065 12.4945 2.39301 12.5291 2.35937 12.5745C2.32573 12.6199 2.3077 12.6739 2.30769 12.7292C2.30769 12.801 2.33808 12.8699 2.39218 12.9207C2.44628 12.9715 2.51965 13 2.59615 13C2.62478 13.0001 2.65326 12.9962 2.68066 12.9884C4.11633 12.9587 5.6635 12.1746 6.50165 10.8333H12.6923C13.9667 10.8333 15 9.86321 15 8.66667V2.16667C15 0.970125 13.9667 0 12.6923 0H2.30769ZM4.03846 4.33333C4.67596 4.33333 5.19231 4.81812 5.19231 5.41667C5.19231 6.01521 4.67596 6.5 4.03846 6.5C3.40096 6.5 2.88462 6.01521 2.88462 5.41667C2.88462 4.81812 3.40096 4.33333 4.03846 4.33333ZM7.5 4.33333C8.1375 4.33333 8.65385 4.81812 8.65385 5.41667C8.65385 6.01521 8.1375 6.5 7.5 6.5C6.8625 6.5 6.34615 6.01521 6.34615 5.41667C6.34615 4.81812 6.8625 4.33333 7.5 4.33333ZM10.9615 4.33333C11.599 4.33333 12.1154 4.81812 12.1154 5.41667C12.1154 6.01521 11.599 6.5 10.9615 6.5C10.324 6.5 9.80769 6.01521 9.80769 5.41667C9.80769 4.81812 10.324 4.33333 10.9615 4.33333Z" fill="#2D5EBB"/>
</svg>
