<svg width="50" height="47" viewBox="0 0 50 47" fill="none" xmlns="http://www.w3.org/2000/svg">
<path d="M36.9732 0C36.9264 0.00390467 36.8756 0.00781035 36.8288 0.0156197H19.9943V5.77148L21.9936 7.7708V2.01494H35.9892V12.0115H45.986V36.0034H31.9904V38.0027H47.9854V11.1798C48.0049 11.0705 48.0049 10.9611 47.9854 10.8557V10.598L47.794 10.4027C47.7393 10.3363 47.6769 10.2739 47.6105 10.2192C47.6066 10.2192 47.6066 10.2153 47.6027 10.2153L37.7816 0.390492C37.7269 0.320204 37.6644 0.257725 37.5941 0.203056L37.4028 0.0156197H37.1451C37.0865 0.00781035 37.0318 0 36.9732 0ZM37.9885 3.42852L44.5724 10.0122H37.9885V3.42852ZM18.979 7.99728C18.9321 8.00119 18.8813 8.00509 18.8345 8.0129H2V46H29.9911V19.1771C30.0106 19.0677 30.0106 18.9584 29.9911 18.853V18.5952L29.7997 18.4C29.7451 18.3297 29.6787 18.2672 29.6084 18.2126L19.7873 8.38778C19.7326 8.31749 19.6702 8.25501 19.5999 8.20034L19.4085 8.0129H19.1508C19.0922 8.00509 19.0375 7.99728 18.979 7.99728ZM3.99936 10.0122H17.9949V20.0088H27.9917V44.0007H3.99936V10.0122ZM19.9943 11.4258L26.5781 18.0095H19.9943V11.4258ZM30.2332 16.0102L32.2326 18.0095H41.9873V16.0102H30.2332ZM31.9904 22.0082V24.0075H37.9885V22.0082H31.9904ZM7.99809 24.0075V26.0068H23.993V24.0075H7.99809ZM31.9904 28.0061V30.0054H41.9873V28.0061H31.9904ZM7.99809 30.0054V32.0048H19.9943V30.0054H7.99809ZM7.99809 36.0034V38.0027H23.993V36.0034H7.99809Z" fill="#2D5EBB"/>
</svg>
