<svg width="14" height="16" viewBox="0 0 14 16" fill="none" xmlns="http://www.w3.org/2000/svg">
<path d="M7 0C6.64873 0 6.36364 0.275692 6.36364 0.615385V3.07692H7.63636V0.615385C7.63636 0.275692 7.35127 0 7 0ZM7.63636 3.07692V10.8221L9.09553 9.41106C9.34434 9.17044 9.74656 9.17044 9.99538 9.41106C10.2442 9.65167 10.2442 10.0406 9.99538 10.2812L7.44993 12.7428C7.32584 12.8628 7.16291 12.9231 7 12.9231C6.83709 12.9231 6.67416 12.8628 6.55007 12.7428L4.00462 10.2812C3.7558 10.0406 3.7558 9.65167 4.00462 9.41106C4.25343 9.17044 4.65566 9.17044 4.90447 9.41106L6.36364 10.8221V3.07692H1.27273C0.569545 3.07692 0 3.62769 0 4.30769V14.7692C0 15.4492 0.569545 16 1.27273 16H12.7273C13.4305 16 14 15.4492 14 14.7692V4.30769C14 3.62769 13.4305 3.07692 12.7273 3.07692H7.63636Z" fill="#2D5EBB"/>
</svg>
