<svg width="36" height="36" viewBox="0 0 36 36" fill="none" xmlns="http://www.w3.org/2000/svg">
<path d="M16.2026 0C15.2104 0 14.4051 0.806396 14.4051 1.79999V16.1999H8.11408C7.87573 16.1999 7.64713 16.2947 7.47859 16.4635C7.31005 16.6323 7.21536 16.8612 7.21536 17.0999C7.2154 17.3386 7.31011 17.5675 7.47866 17.7362C7.49662 17.7546 7.51536 17.7722 7.53483 17.789L16.7116 26.4549L16.7713 26.5112C17.104 26.8245 17.5433 26.9992 18 26.9999C18.4567 26.9992 18.896 26.8245 19.2287 26.5112L19.2533 26.4901C19.2592 26.4831 19.265 26.4761 19.2708 26.469L28.4441 17.8066C28.4623 17.7909 28.4799 17.7744 28.4968 17.7573L28.5108 17.7468C28.5144 17.7433 28.5179 17.7398 28.5213 17.7362C28.6899 17.5675 28.7846 17.3386 28.7846 17.0999C28.7846 16.8612 28.69 16.6323 28.5214 16.4635C28.3529 16.2947 28.1243 16.1999 27.8859 16.1999H21.5949V1.79999C21.5949 0.806396 20.7896 0 19.7974 0H18H16.2026ZM1.82304 32.3998C1.58486 32.3965 1.34838 32.4405 1.12735 32.5295C0.906326 32.6184 0.705154 32.7505 0.53553 32.9179C0.365906 33.0854 0.231213 33.285 0.139278 33.5051C0.0473431 33.7251 0 33.9613 0 34.1998C0 34.4384 0.0473431 34.6745 0.139278 34.8946C0.231213 35.1147 0.365906 35.3142 0.53553 35.4817C0.705154 35.6492 0.906326 35.7812 1.12735 35.8702C1.34838 35.9591 1.58486 36.0032 1.82304 35.9998H34.177C34.4151 36.0032 34.6516 35.9591 34.8726 35.8702C35.0937 35.7812 35.2948 35.6492 35.4645 35.4817C35.6341 35.3142 35.7688 35.1147 35.8607 34.8946C35.9527 34.6745 36 34.4384 36 34.1998C36 33.9613 35.9527 33.7251 35.8607 33.5051C35.7688 33.285 35.6341 33.0854 35.4645 32.9179C35.2948 32.7505 35.0937 32.6184 34.8726 32.5295C34.6516 32.4405 34.4151 32.3965 34.177 32.3998H1.82304Z" fill="white"/>
</svg>
