<svg width="12" height="14" viewBox="0 0 12 14" fill="none" xmlns="http://www.w3.org/2000/svg">
<path d="M11.8242 3.65777L7.9242 0.157769C7.8114 0.0565385 7.659 0 7.5 0H1.2C0.537 0 0 0.481923 0 1.07692V12.9231C0 13.5181 0.537 14 1.2 14H10.8C11.463 14 12 13.5181 12 12.9231V4.03846C12 3.89577 11.937 3.759 11.8242 3.65777ZM7.8 10.2308H3C2.6688 10.2308 2.4 9.98954 2.4 9.69231C2.4 9.39508 2.6688 9.15385 3 9.15385H7.8C8.1312 9.15385 8.4 9.39508 8.4 9.69231C8.4 9.98954 8.1312 10.2308 7.8 10.2308ZM9 8.07692H3C2.6688 8.07692 2.4 7.83569 2.4 7.53846C2.4 7.24123 2.6688 7 3 7H9C9.3312 7 9.6 7.24123 9.6 7.53846C9.6 7.83569 9.3312 8.07692 9 8.07692ZM7.8 4.30769C7.4688 4.30769 7.2 4.06646 7.2 3.76923V1.02523L10.8576 4.30769H7.8Z" fill="#2D5EBB"/>
</svg>
