<svg width="281" height="147" viewBox="0 0 281 147" fill="none" xmlns="http://www.w3.org/2000/svg">
<g filter="url(#filter0_d)">
<path d="M8 139L26.3192 111.39C33.4841 100.591 40.3448 86.5741 46.7799 69.5878L53.4515 51.9773C57.4574 41.4031 61.8056 33.2638 66.3644 27.8057L66.8006 27.2835C73.5018 19.2605 80.5437 17.4388 87.432 21.9464L88.8337 22.8636C93.5817 25.9706 98.4253 25.4888 103.132 21.4415C108.004 17.2526 113.02 16.8842 117.924 20.3552L119.986 21.8146C125.365 25.6218 130.855 25.8181 136.249 22.3961L137.104 21.8541C144.134 17.3936 151.304 18.5031 158.236 25.1242L159.404 26.2401C166.193 32.7246 173.194 34.4583 180.119 31.37L201.348 21.9038C211.406 17.4189 221.578 21.6773 231.22 34.4094C236.701 41.6481 242.369 46.1671 248.106 47.8724L273 55.273" stroke="white" stroke-opacity="0.3" stroke-width="2"/>
</g>
<g opacity="0.79" filter="url(#filter1_d)">
<circle cx="21" cy="119" r="3" fill="white"/>
</g>
<g opacity="0.79" filter="url(#filter2_d)">
<circle cx="42" cy="83" r="3" fill="white"/>
</g>
<g opacity="0.79" filter="url(#filter3_d)">
<circle cx="59" cy="40" r="3" fill="white"/>
</g>
<g opacity="0.79" filter="url(#filter4_d)">
<circle cx="76" cy="20" r="3" fill="white"/>
</g>
<g opacity="0.79" filter="url(#filter5_d)">
<circle cx="96" cy="26" r="3" fill="white"/>
</g>
<g opacity="0.79" filter="url(#filter6_d)">
<circle cx="111" cy="18" r="3" fill="white"/>
</g>
<g opacity="0.79" filter="url(#filter7_d)">
<circle cx="127" cy="25" r="3" fill="white"/>
</g>
<g opacity="0.79" filter="url(#filter8_d)">
<circle cx="146" cy="19" r="3" fill="white"/>
</g>
<g opacity="0.79" filter="url(#filter9_d)">
<circle cx="167" cy="31" r="3" fill="white"/>
</g>
<g opacity="0.79" filter="url(#filter10_d)">
<circle cx="189" cy="28" r="3" fill="white"/>
</g>
<g opacity="0.79" filter="url(#filter11_d)">
<circle cx="211" cy="20" r="3" fill="white"/>
</g>
<g opacity="0.79" filter="url(#filter12_d)">
<circle cx="233" cy="37" r="3" fill="white"/>
</g>
<g opacity="0.79" filter="url(#filter13_d)">
<circle cx="253" cy="50" r="3" fill="white"/>
</g>
<path d="M240.35 83.174V86H230.54V83.768L235.256 79.358C235.712 78.926 236.018 78.56 236.174 78.26C236.33 77.948 236.408 77.636 236.408 77.324C236.408 76.916 236.27 76.598 235.994 76.37C235.718 76.142 235.316 76.028 234.788 76.028C234.32 76.028 233.888 76.136 233.492 76.352C233.108 76.556 232.79 76.856 232.538 77.252L229.892 75.776C230.384 74.96 231.074 74.318 231.962 73.85C232.85 73.382 233.9 73.148 235.112 73.148C236.072 73.148 236.918 73.304 237.65 73.616C238.394 73.928 238.97 74.378 239.378 74.966C239.798 75.542 240.008 76.214 240.008 76.982C240.008 77.666 239.858 78.314 239.558 78.926C239.27 79.526 238.706 80.21 237.866 80.978L235.49 83.174H240.35ZM246.932 86.252C245.852 86.252 244.892 85.994 244.052 85.478C243.212 84.962 242.552 84.212 242.072 83.228C241.604 82.232 241.37 81.056 241.37 79.7C241.37 78.344 241.604 77.174 242.072 76.19C242.552 75.194 243.212 74.438 244.052 73.922C244.892 73.406 245.852 73.148 246.932 73.148C248 73.148 248.954 73.406 249.794 73.922C250.634 74.438 251.288 75.194 251.756 76.19C252.236 77.174 252.476 78.344 252.476 79.7C252.476 81.056 252.236 82.232 251.756 83.228C251.288 84.212 250.634 84.962 249.794 85.478C248.954 85.994 248 86.252 246.932 86.252ZM246.932 83.336C247.532 83.336 248.006 83.048 248.354 82.472C248.714 81.884 248.894 80.96 248.894 79.7C248.894 78.44 248.714 77.522 248.354 76.946C248.006 76.358 247.532 76.064 246.932 76.064C246.32 76.064 245.834 76.358 245.474 76.946C245.126 77.522 244.952 78.44 244.952 79.7C244.952 80.96 245.126 81.884 245.474 82.472C245.834 83.048 246.32 83.336 246.932 83.336ZM258.951 73.4V86H255.387V76.154H253.047V73.4H258.951ZM269.918 79.358C270.494 79.694 270.938 80.108 271.25 80.6C271.562 81.092 271.718 81.656 271.718 82.292C271.718 83.084 271.49 83.78 271.034 84.38C270.578 84.98 269.936 85.442 269.108 85.766C268.28 86.09 267.326 86.252 266.246 86.252C265.166 86.252 264.212 86.09 263.384 85.766C262.556 85.442 261.914 84.98 261.458 84.38C261.002 83.78 260.774 83.084 260.774 82.292C260.774 81.656 260.93 81.092 261.242 80.6C261.554 80.108 261.998 79.694 262.574 79.358C262.142 79.058 261.806 78.692 261.566 78.26C261.338 77.828 261.224 77.348 261.224 76.82C261.224 76.088 261.434 75.446 261.854 74.894C262.274 74.33 262.862 73.898 263.618 73.598C264.386 73.298 265.262 73.148 266.246 73.148C267.23 73.148 268.1 73.298 268.856 73.598C269.624 73.898 270.218 74.33 270.638 74.894C271.058 75.446 271.268 76.088 271.268 76.82C271.268 77.348 271.148 77.828 270.908 78.26C270.68 78.692 270.35 79.058 269.918 79.358ZM266.246 75.65C265.802 75.65 265.442 75.77 265.166 76.01C264.89 76.238 264.752 76.562 264.752 76.982C264.752 77.39 264.884 77.714 265.148 77.954C265.424 78.182 265.79 78.296 266.246 78.296C266.702 78.296 267.068 78.182 267.344 77.954C267.62 77.714 267.758 77.39 267.758 76.982C267.758 76.562 267.62 76.238 267.344 76.01C267.068 75.77 266.702 75.65 266.246 75.65ZM266.246 83.75C266.822 83.75 267.278 83.612 267.614 83.336C267.962 83.048 268.136 82.664 268.136 82.184C268.136 81.704 267.962 81.326 267.614 81.05C267.278 80.762 266.822 80.618 266.246 80.618C265.67 80.618 265.208 80.762 264.86 81.05C264.524 81.326 264.356 81.704 264.356 82.184C264.356 82.664 264.524 83.048 264.86 83.336C265.208 83.612 265.67 83.75 266.246 83.75Z" fill="white" fill-opacity="0.5"/>
<defs>
<filter id="filter0_d" x="0.166748" y="10" width="280.118" height="136.553" filterUnits="userSpaceOnUse" color-interpolation-filters="sRGB">
<feFlood flood-opacity="0" result="BackgroundImageFix"/>
<feColorMatrix in="SourceAlpha" type="matrix" values="0 0 0 0 0 0 0 0 0 0 0 0 0 0 0 0 0 0 127 0"/>
<feOffset/>
<feGaussianBlur stdDeviation="3.5"/>
<feColorMatrix type="matrix" values="0 0 0 0 1 0 0 0 0 1 0 0 0 0 1 0 0 0 0.31 0"/>
<feBlend mode="normal" in2="BackgroundImageFix" result="effect1_dropShadow"/>
<feBlend mode="normal" in="SourceGraphic" in2="effect1_dropShadow" result="shape"/>
</filter>
<filter id="filter1_d" x="3" y="101" width="36" height="36" filterUnits="userSpaceOnUse" color-interpolation-filters="sRGB">
<feFlood flood-opacity="0" result="BackgroundImageFix"/>
<feColorMatrix in="SourceAlpha" type="matrix" values="0 0 0 0 0 0 0 0 0 0 0 0 0 0 0 0 0 0 127 0"/>
<feOffset/>
<feGaussianBlur stdDeviation="7.5"/>
<feColorMatrix type="matrix" values="0 0 0 0 1 0 0 0 0 1 0 0 0 0 1 0 0 0 1 0"/>
<feBlend mode="normal" in2="BackgroundImageFix" result="effect1_dropShadow"/>
<feBlend mode="normal" in="SourceGraphic" in2="effect1_dropShadow" result="shape"/>
</filter>
<filter id="filter2_d" x="24" y="65" width="36" height="36" filterUnits="userSpaceOnUse" color-interpolation-filters="sRGB">
<feFlood flood-opacity="0" result="BackgroundImageFix"/>
<feColorMatrix in="SourceAlpha" type="matrix" values="0 0 0 0 0 0 0 0 0 0 0 0 0 0 0 0 0 0 127 0"/>
<feOffset/>
<feGaussianBlur stdDeviation="7.5"/>
<feColorMatrix type="matrix" values="0 0 0 0 1 0 0 0 0 1 0 0 0 0 1 0 0 0 1 0"/>
<feBlend mode="normal" in2="BackgroundImageFix" result="effect1_dropShadow"/>
<feBlend mode="normal" in="SourceGraphic" in2="effect1_dropShadow" result="shape"/>
</filter>
<filter id="filter3_d" x="41" y="22" width="36" height="36" filterUnits="userSpaceOnUse" color-interpolation-filters="sRGB">
<feFlood flood-opacity="0" result="BackgroundImageFix"/>
<feColorMatrix in="SourceAlpha" type="matrix" values="0 0 0 0 0 0 0 0 0 0 0 0 0 0 0 0 0 0 127 0"/>
<feOffset/>
<feGaussianBlur stdDeviation="7.5"/>
<feColorMatrix type="matrix" values="0 0 0 0 1 0 0 0 0 1 0 0 0 0 1 0 0 0 1 0"/>
<feBlend mode="normal" in2="BackgroundImageFix" result="effect1_dropShadow"/>
<feBlend mode="normal" in="SourceGraphic" in2="effect1_dropShadow" result="shape"/>
</filter>
<filter id="filter4_d" x="58" y="2" width="36" height="36" filterUnits="userSpaceOnUse" color-interpolation-filters="sRGB">
<feFlood flood-opacity="0" result="BackgroundImageFix"/>
<feColorMatrix in="SourceAlpha" type="matrix" values="0 0 0 0 0 0 0 0 0 0 0 0 0 0 0 0 0 0 127 0"/>
<feOffset/>
<feGaussianBlur stdDeviation="7.5"/>
<feColorMatrix type="matrix" values="0 0 0 0 1 0 0 0 0 1 0 0 0 0 1 0 0 0 1 0"/>
<feBlend mode="normal" in2="BackgroundImageFix" result="effect1_dropShadow"/>
<feBlend mode="normal" in="SourceGraphic" in2="effect1_dropShadow" result="shape"/>
</filter>
<filter id="filter5_d" x="78" y="8" width="36" height="36" filterUnits="userSpaceOnUse" color-interpolation-filters="sRGB">
<feFlood flood-opacity="0" result="BackgroundImageFix"/>
<feColorMatrix in="SourceAlpha" type="matrix" values="0 0 0 0 0 0 0 0 0 0 0 0 0 0 0 0 0 0 127 0"/>
<feOffset/>
<feGaussianBlur stdDeviation="7.5"/>
<feColorMatrix type="matrix" values="0 0 0 0 1 0 0 0 0 1 0 0 0 0 1 0 0 0 1 0"/>
<feBlend mode="normal" in2="BackgroundImageFix" result="effect1_dropShadow"/>
<feBlend mode="normal" in="SourceGraphic" in2="effect1_dropShadow" result="shape"/>
</filter>
<filter id="filter6_d" x="93" y="0" width="36" height="36" filterUnits="userSpaceOnUse" color-interpolation-filters="sRGB">
<feFlood flood-opacity="0" result="BackgroundImageFix"/>
<feColorMatrix in="SourceAlpha" type="matrix" values="0 0 0 0 0 0 0 0 0 0 0 0 0 0 0 0 0 0 127 0"/>
<feOffset/>
<feGaussianBlur stdDeviation="7.5"/>
<feColorMatrix type="matrix" values="0 0 0 0 1 0 0 0 0 1 0 0 0 0 1 0 0 0 1 0"/>
<feBlend mode="normal" in2="BackgroundImageFix" result="effect1_dropShadow"/>
<feBlend mode="normal" in="SourceGraphic" in2="effect1_dropShadow" result="shape"/>
</filter>
<filter id="filter7_d" x="109" y="7" width="36" height="36" filterUnits="userSpaceOnUse" color-interpolation-filters="sRGB">
<feFlood flood-opacity="0" result="BackgroundImageFix"/>
<feColorMatrix in="SourceAlpha" type="matrix" values="0 0 0 0 0 0 0 0 0 0 0 0 0 0 0 0 0 0 127 0"/>
<feOffset/>
<feGaussianBlur stdDeviation="7.5"/>
<feColorMatrix type="matrix" values="0 0 0 0 1 0 0 0 0 1 0 0 0 0 1 0 0 0 1 0"/>
<feBlend mode="normal" in2="BackgroundImageFix" result="effect1_dropShadow"/>
<feBlend mode="normal" in="SourceGraphic" in2="effect1_dropShadow" result="shape"/>
</filter>
<filter id="filter8_d" x="128" y="1" width="36" height="36" filterUnits="userSpaceOnUse" color-interpolation-filters="sRGB">
<feFlood flood-opacity="0" result="BackgroundImageFix"/>
<feColorMatrix in="SourceAlpha" type="matrix" values="0 0 0 0 0 0 0 0 0 0 0 0 0 0 0 0 0 0 127 0"/>
<feOffset/>
<feGaussianBlur stdDeviation="7.5"/>
<feColorMatrix type="matrix" values="0 0 0 0 1 0 0 0 0 1 0 0 0 0 1 0 0 0 1 0"/>
<feBlend mode="normal" in2="BackgroundImageFix" result="effect1_dropShadow"/>
<feBlend mode="normal" in="SourceGraphic" in2="effect1_dropShadow" result="shape"/>
</filter>
<filter id="filter9_d" x="149" y="13" width="36" height="36" filterUnits="userSpaceOnUse" color-interpolation-filters="sRGB">
<feFlood flood-opacity="0" result="BackgroundImageFix"/>
<feColorMatrix in="SourceAlpha" type="matrix" values="0 0 0 0 0 0 0 0 0 0 0 0 0 0 0 0 0 0 127 0"/>
<feOffset/>
<feGaussianBlur stdDeviation="7.5"/>
<feColorMatrix type="matrix" values="0 0 0 0 1 0 0 0 0 1 0 0 0 0 1 0 0 0 1 0"/>
<feBlend mode="normal" in2="BackgroundImageFix" result="effect1_dropShadow"/>
<feBlend mode="normal" in="SourceGraphic" in2="effect1_dropShadow" result="shape"/>
</filter>
<filter id="filter10_d" x="171" y="10" width="36" height="36" filterUnits="userSpaceOnUse" color-interpolation-filters="sRGB">
<feFlood flood-opacity="0" result="BackgroundImageFix"/>
<feColorMatrix in="SourceAlpha" type="matrix" values="0 0 0 0 0 0 0 0 0 0 0 0 0 0 0 0 0 0 127 0"/>
<feOffset/>
<feGaussianBlur stdDeviation="7.5"/>
<feColorMatrix type="matrix" values="0 0 0 0 1 0 0 0 0 1 0 0 0 0 1 0 0 0 1 0"/>
<feBlend mode="normal" in2="BackgroundImageFix" result="effect1_dropShadow"/>
<feBlend mode="normal" in="SourceGraphic" in2="effect1_dropShadow" result="shape"/>
</filter>
<filter id="filter11_d" x="193" y="2" width="36" height="36" filterUnits="userSpaceOnUse" color-interpolation-filters="sRGB">
<feFlood flood-opacity="0" result="BackgroundImageFix"/>
<feColorMatrix in="SourceAlpha" type="matrix" values="0 0 0 0 0 0 0 0 0 0 0 0 0 0 0 0 0 0 127 0"/>
<feOffset/>
<feGaussianBlur stdDeviation="7.5"/>
<feColorMatrix type="matrix" values="0 0 0 0 1 0 0 0 0 1 0 0 0 0 1 0 0 0 1 0"/>
<feBlend mode="normal" in2="BackgroundImageFix" result="effect1_dropShadow"/>
<feBlend mode="normal" in="SourceGraphic" in2="effect1_dropShadow" result="shape"/>
</filter>
<filter id="filter12_d" x="215" y="19" width="36" height="36" filterUnits="userSpaceOnUse" color-interpolation-filters="sRGB">
<feFlood flood-opacity="0" result="BackgroundImageFix"/>
<feColorMatrix in="SourceAlpha" type="matrix" values="0 0 0 0 0 0 0 0 0 0 0 0 0 0 0 0 0 0 127 0"/>
<feOffset/>
<feGaussianBlur stdDeviation="7.5"/>
<feColorMatrix type="matrix" values="0 0 0 0 1 0 0 0 0 1 0 0 0 0 1 0 0 0 1 0"/>
<feBlend mode="normal" in2="BackgroundImageFix" result="effect1_dropShadow"/>
<feBlend mode="normal" in="SourceGraphic" in2="effect1_dropShadow" result="shape"/>
</filter>
<filter id="filter13_d" x="235" y="32" width="36" height="36" filterUnits="userSpaceOnUse" color-interpolation-filters="sRGB">
<feFlood flood-opacity="0" result="BackgroundImageFix"/>
<feColorMatrix in="SourceAlpha" type="matrix" values="0 0 0 0 0 0 0 0 0 0 0 0 0 0 0 0 0 0 127 0"/>
<feOffset/>
<feGaussianBlur stdDeviation="7.5"/>
<feColorMatrix type="matrix" values="0 0 0 0 1 0 0 0 0 1 0 0 0 0 1 0 0 0 1 0"/>
<feBlend mode="normal" in2="BackgroundImageFix" result="effect1_dropShadow"/>
<feBlend mode="normal" in="SourceGraphic" in2="effect1_dropShadow" result="shape"/>
</filter>
</defs>
</svg>
