<svg width="50" height="47" viewBox="0 0 50 47" fill="none" xmlns="http://www.w3.org/2000/svg">
<path d="M0.875051 0.00753323C0.371145 0.0700332 -0.00385479 0.499721 5.14614e-05 1.00753V39.0075C-0.00385479 39.3943 0.214895 39.7458 0.562551 39.9138L12.5626 45.9138C12.8399 46.0466 13.1602 46.0466 13.4376 45.9138L25.0313 40.1013L37.5938 45.9138C37.875 46.0388 38.1993 46.0271 38.4688 45.8825L49.4688 39.8825C49.793 39.7107 49.9961 39.3747 50 39.0075V1.00753C49.9961 0.659877 49.8125 0.335658 49.5118 0.155971C49.211 -0.0237168 48.8399 -0.0315288 48.5313 0.132533L37.9688 5.88253L25.4063 0.101283C25.1407 -0.0237168 24.8282 -0.0237168 24.5626 0.101283L13.0001 5.88253L1.43755 0.101283C1.26177 0.0153462 1.06646 -0.0159038 0.875051 0.00753323ZM26.0001 2.53878L37 7.63253V43.445L26.0001 38.3825V2.53878ZM2.00005 2.63253L12.0001 7.63253V43.3825L2.00005 38.3825V2.63253ZM24.0001 2.63253V38.3825L14.0001 43.3825V7.63253L24.0001 2.63253ZM48 2.69503V38.4138L39 43.32V7.60128L48 2.69503Z" fill="#2D5EBB"/>
</svg>
