<svg width="20" height="18" viewBox="0 0 20 18" fill="none" xmlns="http://www.w3.org/2000/svg">
<path d="M0 0.30304V1.4026C1.17527 2.43921 7.92059 8.38815 8.45399 8.85941C9.0026 9.34371 9.54653 9.39606 9.7549 9.39606C9.96326 9.39606 10.5072 9.34371 11.0558 8.85941C11.6091 8.37076 18.7474 2.07664 19.5098 1.40415V0.30304H0ZM0 2.45043V12.3712L5.8979 7.65251C3.98555 5.96556 1.26072 3.56255 0 2.45043ZM19.5098 2.45198C18.3193 3.50163 15.5516 5.94261 13.6119 7.65329L15.5659 9.21074L16.2419 8.52043C16.691 8.06499 17.2894 7.81467 17.9254 7.81467C18.5165 7.81467 19.0732 8.03394 19.5098 8.43008V2.45198ZM6.49691 8.18067L0 13.3789V14.5356H10.7601L10.908 14.0051L11.0162 13.8947C11.072 13.8121 11.121 13.7483 11.1663 13.7024L15.0126 9.77597L13.0129 8.18145C12.2571 8.848 11.7068 9.33336 11.5687 9.45552C10.8207 10.1154 10.0511 10.1868 9.7549 10.1868C9.45874 10.1868 8.6891 10.115 7.9411 9.45475C7.80414 9.33377 7.25428 8.84881 6.49691 8.18067ZM17.9254 8.60536C17.5157 8.60536 17.1058 8.7632 16.7937 9.07947L16.5208 9.35668L11.7211 14.2592C11.6821 14.2987 11.6428 14.3771 11.6038 14.4167L10.9407 16.7888C10.9017 16.9074 10.9404 17.0655 11.0185 17.1841C11.1355 17.2632 11.2139 17.303 11.3309 17.303H11.4483L13.7895 16.6706C13.8675 16.6706 13.9059 16.6308 13.9449 16.5517L18.9009 11.5705C18.9399 11.5309 18.9786 11.4911 18.9786 11.4516L19.0571 11.3728C19.6814 10.7402 19.6814 9.71203 19.0571 9.07947C18.7449 8.7632 18.3351 8.60536 17.9254 8.60536ZM17.1061 9.94971L18.2767 11.1358L13.477 15.9193L12.3453 14.7727V14.7333L17.1061 9.94971Z" fill="white"/>
</svg>
