<svg width="18" height="18" viewBox="0 0 18 18" fill="none" xmlns="http://www.w3.org/2000/svg">
<path d="M8.99984 15.0001C6.9165 15.0001 5.07484 13.9334 3.99984 12.3334C4.02484 10.6667 7.33317 9.75008 8.99984 9.75008C10.6665 9.75008 13.9748 10.6667 13.9998 12.3334C13.4489 13.1538 12.7047 13.826 11.8328 14.2911C10.9609 14.7561 9.98801 14.9996 8.99984 15.0001ZM8.99984 3.16675C9.66288 3.16675 10.2988 3.43014 10.7676 3.89898C11.2364 4.36782 11.4998 5.00371 11.4998 5.66675C11.4998 6.32979 11.2364 6.96567 10.7676 7.43452C10.2988 7.90336 9.66288 8.16675 8.99984 8.16675C8.3368 8.16675 7.70091 7.90336 7.23207 7.43452C6.76323 6.96567 6.49984 6.32979 6.49984 5.66675C6.49984 5.00371 6.76323 4.36782 7.23207 3.89898C7.70091 3.43014 8.3368 3.16675 8.99984 3.16675ZM8.99984 0.666748C7.90549 0.666748 6.82186 0.882296 5.81081 1.30109C4.79976 1.71987 3.8811 2.3337 3.10728 3.10752C1.54448 4.67033 0.666504 6.78994 0.666504 9.00008C0.666504 11.2102 1.54448 13.3298 3.10728 14.8926C3.8811 15.6665 4.79976 16.2803 5.81081 16.6991C6.82186 17.1179 7.90549 17.3334 8.99984 17.3334C11.21 17.3334 13.3296 16.4554 14.8924 14.8926C16.4552 13.3298 17.3332 11.2102 17.3332 9.00008C17.3332 4.39175 13.5832 0.666748 8.99984 0.666748Z" fill="#2D5EBB"/>
</svg>
