<svg width="18" height="14" viewBox="0 0 18 14" fill="none" xmlns="http://www.w3.org/2000/svg">
<path d="M9.68625 0C6.49406 0 5.30859 2.52426 6.22125 4.66283C6.10734 4.74054 5.92453 4.98376 5.9625 5.41118C6.03844 6.18832 6.38016 6.37397 6.57 6.41283C6.64594 7.15111 7.10297 8.01172 7.36875 8.12829C7.36875 8.63343 7.36172 9.05654 7.32375 9.60197C6.74156 11.1663 3.02063 10.8037 2.5425 13.6086C2.52141 13.7309 2.64516 14 2.89125 14H15.12C15.4856 14 15.4786 13.7237 15.4575 13.597C14.9709 10.8037 11.2584 11.1649 10.6763 9.60197C10.6383 9.01768 10.6313 8.63343 10.6313 8.12829C10.897 8.01172 11.3203 7.11225 11.3963 6.41283C11.5861 6.41283 11.8898 6.17825 12.0038 5.39967C12.0417 4.97225 11.8856 4.70169 11.7338 4.66283C12.3413 3.88569 12.2316 0.702303 9.99 0.702303L9.68625 0ZM5.45625 1.84211C3.05297 1.88384 1.99969 3.84108 2.7225 5.5148C2.64516 5.55366 2.49328 5.75946 2.53125 6.11349C2.60859 6.74383 2.83781 6.89638 2.9925 6.89638C3.06844 7.48643 3.40875 8.14844 3.6 8.26645C3.6 8.65933 3.60422 8.64782 3.56625 9.11842C3.25406 10.1258 0 10.051 0 12.5263C0 12.5263 0 12.8947 0.36 12.8947H1.99125C2.54109 11.303 4.03594 10.69 5.16375 10.2352C5.78531 9.98479 6.42234 9.7315 6.615 9.41776C6.63609 9.07525 6.64734 8.78454 6.64875 8.46217C6.30703 8.06209 6.0525 7.43894 5.92875 6.90789C5.63625 6.68627 5.31984 6.26028 5.2425 5.46875C5.20875 5.09313 5.28609 4.78084 5.41125 4.53618C5.12578 3.62808 5.14406 2.67969 5.45625 1.84211ZM13.68 1.84211C13.3355 1.84211 12.9291 1.87089 12.5438 1.93421C12.832 2.79914 12.8433 3.83244 12.5888 4.57072C12.7013 4.82401 12.7533 5.13199 12.7238 5.46875L12.7125 5.49178V5.5148C12.6056 6.23869 12.3455 6.67907 12.0375 6.91941C11.9208 7.41735 11.6831 8.04626 11.3513 8.45066C11.3527 8.76727 11.3639 9.05222 11.385 9.41776C11.5777 9.7315 12.2161 9.98479 12.8363 10.2352C13.9627 10.6885 15.4575 11.303 16.0088 12.8947H17.64C18 12.8947 18 12.5378 18 12.5378C18.0014 9.68832 14.9189 10.3633 14.4563 9.06085C14.4169 8.62623 14.4113 8.66653 14.4113 8.23191C14.6039 8.1139 14.9583 7.45045 14.9963 6.89638C15.1509 6.89638 15.3802 6.73376 15.4575 6.10197C15.4955 5.7868 15.3816 5.55366 15.2663 5.5148C15.7303 4.88302 15.6544 2.39474 13.9163 2.39474L13.68 1.84211Z" fill="#2D5EBB"/>
</svg>
