<svg width="17" height="18" viewBox="0 0 17 18" fill="none" xmlns="http://www.w3.org/2000/svg">
<path d="M15.1779 12.1355C14.124 11.257 13.0516 10.7232 12.011 11.6017L11.3883 12.1303C10.9333 12.5164 10.087 14.3148 6.8164 10.648C3.54579 6.989 5.49113 6.4189 5.94885 6.03797L6.57423 5.50673C7.60944 4.62825 7.21824 3.52173 6.47044 2.38152L6.0207 1.69221C5.27025 0.557189 4.4506 -0.18913 3.41273 0.686758L2.85122 1.16616C2.39084 1.49009 1.10814 2.54996 0.796783 4.56088C0.421555 6.97346 1.60579 9.73846 4.31222 12.7704C7.01599 15.8049 9.66654 17.3286 12.1734 17.3027C14.2571 17.2794 15.5185 16.191 15.9124 15.7945L16.4739 15.3151C17.5117 14.4392 16.8677 13.5452 15.8112 12.6667L15.1779 12.1355Z" fill="white"/>
</svg>
