<svg width="84" height="84" viewBox="0 0 84 84" fill="none" xmlns="http://www.w3.org/2000/svg">
<path d="M83.9999 41.7325C83.9999 18.688 65.312 0 42.2674 0C19.2229 0 0.534912 18.688 0.534912 41.7325C0.534912 64.777 19.2229 83.465 42.2674 83.465C65.312 83.465 83.9999 64.777 83.9999 41.7325Z" fill="#2D5EBB"/>
<path d="M60.9231 40.6467L35.5027 25.3266C34.8051 24.9133 33.8894 24.8848 33.1773 25.2838C32.4506 25.6829 32 26.4382 32 27.2505V57.7483C32 58.5606 32.4506 59.3159 33.1627 59.715C33.5116 59.9002 33.8894 60 34.2819 60C34.7034 60 35.1103 59.886 35.4737 59.6722L60.894 44.4803C61.5771 44.0813 61.9986 43.3402 61.9986 42.5707C62.0277 41.7868 61.6062 41.0458 60.9231 40.6467Z" fill="white"/>
</svg>
