<?xml version="1.0"?>
<svg xmlns="http://www.w3.org/2000/svg" xmlns:xlink="http://www.w3.org/1999/xlink" version="1.1" id="Layer_1" x="0px" y="0px" viewBox="0 0 512.001 512.001" style="enable-background:new 0 0 512.001 512.001;" xml:space="preserve" width="512px" height="512px" class="hovered-paths"><g><g>
	<path style="fill:#2D5EBB" d="M210.089,368H0.001c0,0-1.448-118.152,115.256-153.184l94.832,71.512l94.832-71.512   C421.601,249.848,420.177,368,420.177,368H210.089z" data-original="#00000A" class="hovered-path active-path" data-old_color="#00000A"/>
	<path style="fill:#2D5EBB" d="M210.089,0c47.392,0,85.816,38.424,85.816,85.816s-38.424,85.816-85.816,85.816   s-85.816-38.424-85.816-85.816l0,0C124.329,38.448,162.721,0.056,210.089,0z" data-original="#00000A" class="hovered-path active-path" data-old_color="#00000A"/>
</g><circle style="fill:#E21B1B;" cx="396.001" cy="396" r="116" data-original="#E21B1B"/><g>
	
		<rect x="331.251" y="384.003" transform="matrix(0.7071 -0.7071 0.7071 0.7071 -164.0382 395.9832)" style="fill:#FFFFFF;" width="129.447" height="24" data-original="#FFFFFF" class=""/>
	
		<rect x="383.975" y="331.274" transform="matrix(0.7071 -0.7071 0.7071 0.7071 -164.0342 395.9815)" style="fill:#FFFFFF;" width="24" height="129.447" data-original="#FFFFFF" class=""/>
</g></g> </svg>
