<svg width="16" height="11" viewBox="0 0 16 11" fill="none" xmlns="http://www.w3.org/2000/svg">
<path d="M8 0C7.76613 0.000190793 7.53642 0.0638148 7.33393 0.184487C7.13144 0.305159 6.96329 0.478633 6.84635 0.6875H3.33333H1.33333V2.0625H2.66667L0 7.5625C0 9.46069 1.49267 11 3.33333 11C5.174 11 6.66667 9.46069 6.66667 7.5625L4 2.0625H6.84766C6.96448 2.27117 7.13243 2.44452 7.33467 2.56518C7.53691 2.68584 7.76635 2.74957 8 2.75C8.23387 2.74981 8.46358 2.68619 8.66607 2.56551C8.86856 2.44484 9.03671 2.27137 9.15365 2.0625H12L9.33333 7.5625C9.33333 9.46069 10.826 11 12.6667 11C14.5073 11 16 9.46069 16 7.5625L13.3333 2.0625H14.6667V0.6875H9.15234C9.03552 0.47883 8.86757 0.305482 8.66533 0.184822C8.46309 0.0641616 8.23365 0.000426075 8 0ZM3.33333 3.45227L5.32552 7.5625H1.34115L3.33333 3.45227ZM12.6667 3.45227L14.6589 7.5625H10.6745L12.6667 3.45227Z" fill="#FFFFFF"/>
</svg>
