<svg width="20" height="12" viewBox="0 0 20 12" fill="none" xmlns="http://www.w3.org/2000/svg">
<path d="M10.0142 11.9999C10.25 11.996 10.4752 11.8907 10.6419 11.7073L19.7204 1.71986C19.958 1.47018 20.0538 1.0976 19.9704 0.746479C19.8871 0.397309 19.6388 0.124215 19.3215 0.0325336C19.0023 -0.0591478 18.6636 0.0461884 18.4367 0.307578L10 9.58887L1.56335 0.307578C1.33639 0.0461884 0.997715 -0.0591478 0.678547 0.0325336C0.361153 0.124215 0.112913 0.397309 0.0295753 0.746479C-0.0537624 1.0976 0.0419865 1.47018 0.279589 1.71986L9.35812 11.7073C9.53189 11.8985 9.76772 12.0038 10.0142 11.9999Z" fill="#2D5EBB"/>
</svg>
