<svg width="16" height="15" viewBox="0 0 16 15" fill="none" xmlns="http://www.w3.org/2000/svg">
<path d="M1.84615 4.37262e-07C1.68294 4.37262e-07 1.52642 0.0658484 1.41101 0.183059C1.2956 0.300269 1.23077 0.45924 1.23077 0.625C1.2309 0.681538 1.23858 0.737797 1.25361 0.792237C1.254 0.793459 1.2544 0.794679 1.25481 0.795899L1.84615 5L0 6.25L12.9231 7.5L0 8.75L1.84615 10L1.25481 14.2053C1.23916 14.2605 1.23107 14.3176 1.23077 14.375C1.23077 14.5408 1.2956 14.6997 1.41101 14.8169C1.52642 14.9342 1.68294 15 1.84615 15C1.92797 14.9995 2.00887 14.9825 2.08413 14.95L2.08534 14.9512L2.11178 14.9377L2.125 14.9316C2.12863 14.9296 2.13223 14.9276 2.13582 14.9255L15.625 8.07617L15.6262 8.07373C15.7369 8.02573 15.8314 7.94578 15.8978 7.8438C15.9643 7.74182 15.9998 7.62229 16 7.5C15.9999 7.37737 15.9643 7.25747 15.8977 7.15524C15.831 7.053 15.7362 6.97295 15.625 6.92505C15.625 6.92464 15.625 6.92424 15.625 6.92383H15.6238L2.14062 0.0769047C2.12267 0.0666113 2.10422 0.0572407 2.08534 0.0488286C2.00962 0.016504 1.92829 -9.82356e-05 1.84615 4.37262e-07Z" fill="white"/>
</svg>
