<svg width="50" height="47" viewBox="0 0 50 47" fill="none" xmlns="http://www.w3.org/2000/svg">
<path d="M25 0C22.7431 0 20.8384 1.25781 18.0138 2.70969C15.1855 4.16516 11.4013 5.91891 5.48235 7.21625L4.76001 7.37797V8.11469C4.76001 22.213 9.68704 31.6214 14.6356 37.4613C19.5878 43.3047 24.6119 45.6334 24.6119 45.6334L25.018 45.8203L25.4169 45.6191C25.4169 45.6191 45.24 35.402 45.24 8.11469V7.37797L44.5177 7.21625C38.5988 5.91891 34.8145 4.16516 31.9863 2.70969C29.1616 1.25781 27.2569 0 25 0ZM25 1.84C26.513 1.84 28.2595 2.86063 31.1489 4.34844C33.8874 5.75719 37.7542 7.46422 43.3425 8.78312C43.0155 33.7453 26.1752 43.0927 24.9856 43.718C24.4106 43.4412 20.4288 41.4503 16.0444 36.2717C11.4156 30.8128 6.82282 22.0441 6.65751 8.78312C12.2458 7.46422 16.1127 5.75719 18.8511 4.34844C21.7405 2.86063 23.487 1.84 25 1.84ZM25 14.72C22.9659 14.72 21.32 16.3659 21.32 18.4C21.32 19.6398 21.9489 20.797 22.9875 21.4762L21.32 28.98H28.68L27.0125 21.4762C28.0511 20.8006 28.68 19.6398 28.68 18.4C28.68 16.3659 27.0341 14.72 25 14.72Z" fill="#2D5EBB"/>
</svg>
