<svg width="15" height="15" viewBox="0 0 15 15" fill="none" xmlns="http://www.w3.org/2000/svg">
<path d="M15 7.5C15 6.40912 14.3801 5.457 13.4752 4.97625C13.7224 4.03463 13.4816 2.98763 12.7466 2.253C12.198 1.704 11.475 1.431 10.7512 1.431C10.5064 1.431 10.2615 1.46212 10.0234 1.52475C9.543 0.619875 8.59087 0 7.5 0C6.40912 0 5.457 0.619875 4.97625 1.52475C4.73775 1.46212 4.49325 1.431 4.24837 1.431C3.52463 1.431 2.802 1.70438 2.253 2.253C1.51838 2.98763 1.27725 4.03425 1.52437 4.97625C0.619875 5.457 0 6.40912 0 7.5C0 8.59087 0.619875 9.543 1.52475 10.0238C1.27762 10.9654 1.51837 12.0124 2.25338 12.747C2.802 13.2956 3.525 13.569 4.24875 13.569C4.49363 13.569 4.7385 13.5379 4.97662 13.4752C5.457 14.3801 6.40912 15 7.5 15C8.59087 15 9.543 14.3801 10.0238 13.4752C10.2622 13.5379 10.5068 13.569 10.7516 13.569C11.4754 13.569 12.198 13.2956 12.747 12.747C13.4816 12.0124 13.7228 10.9657 13.4756 10.0238C14.3801 9.543 15 8.59087 15 7.5Z" fill="#2DAD51"/>
<path d="M6.74997 10.8109L3.96973 8.03023L5.03022 6.96973L6.74997 8.68911L10.3447 5.09473L11.4052 6.15523L6.74997 10.8109Z" fill="white"/>
</svg>
