<svg width="55" height="55" viewBox="0 0 55 55" fill="none" xmlns="http://www.w3.org/2000/svg">
<circle cx="27.5" cy="27.5" r="27.5" fill="#2D5EBB"/>
<path d="M22.3842 11C19.143 11 16.5048 13.5825 16.5048 16.7553C16.5048 18.9311 17.745 20.8313 19.5724 21.8068V29.5659L17.5154 31.2139C15.9636 32.4592 15.5462 34.6213 16.5308 36.3338L19.9558 42.2905L19.9298 42.2396C20.6268 43.8622 22.2684 45 24.1736 45H34.3987C36.933 45 39 42.9767 39 40.4959V27.7341C39 26.2191 37.7358 24.9816 36.1881 24.9816C35.4552 24.9816 34.7961 25.2748 34.2949 25.7303C34.0432 24.4616 32.9508 23.4802 31.5868 23.4802C30.7281 23.4802 29.9872 23.8829 29.4699 24.4811H29.4519C28.9806 23.6014 28.066 22.9798 26.9855 22.9798C26.2965 22.9798 25.6854 23.2534 25.1961 23.6581V21.8068C27.0235 20.8313 28.2637 18.9311 28.2637 16.7553C28.2637 13.5825 25.6255 11 22.3842 11ZM22.3842 12.0009C25.0723 12.0009 27.2412 14.122 27.2412 16.7553C27.2412 18.3564 26.4323 19.7659 25.1961 20.626V16.724C25.1961 15.2089 23.932 13.9715 22.3842 13.9715C20.8365 13.9715 19.5724 15.2089 19.5724 16.724V20.626C18.3362 19.7659 17.5273 18.3564 17.5273 16.7553C17.5273 14.122 19.6962 12.0009 22.3842 12.0009ZM22.3842 14.9724C23.3788 14.9724 24.1736 15.7505 24.1736 16.724V26.483H25.1961V25.7323C25.1961 24.7587 25.991 23.9807 26.9855 23.9807C27.9801 23.9807 28.7749 24.7587 28.7749 25.7323V27.4839H29.7974V26.2327C29.7974 25.2592 30.5923 24.4811 31.5868 24.4811C32.5814 24.4811 33.3762 25.2592 33.3762 26.2327V27.7341H34.3987C34.3987 26.7606 35.1936 25.9825 36.1881 25.9825C37.1827 25.9825 37.9775 26.7606 37.9775 27.7341V40.4959C37.9775 42.4371 36.3818 43.9991 34.3987 43.9991H24.1736C22.6838 43.9991 21.4137 43.1115 20.8745 41.8506L20.8605 41.8252L17.4215 35.8431C16.6786 34.549 16.9901 32.9284 18.1644 31.988L20.5949 30.0409V16.724C20.5949 15.7505 21.3897 14.9724 22.3842 14.9724ZM24.6849 30.9871C24.4033 30.9871 24.1736 31.2119 24.1736 31.4876C24.1736 31.7632 24.4033 31.988 24.6849 31.988C24.9665 31.988 25.1961 31.7632 25.1961 31.4876C25.1961 31.2119 24.9665 30.9871 24.6849 30.9871ZM29.2862 30.9871C29.0046 30.9871 28.7749 31.2119 28.7749 31.4876C28.7749 31.7632 29.0046 31.988 29.2862 31.988C29.5678 31.988 29.7974 31.7632 29.7974 31.4876C29.7974 31.2119 29.5678 30.9871 29.2862 30.9871ZM33.8875 30.9871C33.6059 30.9871 33.3762 31.2119 33.3762 31.4876C33.3762 31.7632 33.6059 31.988 33.8875 31.988C34.1691 31.988 34.3987 31.7632 34.3987 31.4876C34.3987 31.2119 34.1691 30.9871 33.8875 30.9871ZM24.6849 32.989C24.4033 32.989 24.1736 33.2138 24.1736 33.4894C24.1736 33.7651 24.4033 33.9899 24.6849 33.9899C24.9665 33.9899 25.1961 33.7651 25.1961 33.4894C25.1961 33.2138 24.9665 32.989 24.6849 32.989ZM29.2862 32.989C29.0046 32.989 28.7749 33.2138 28.7749 33.4894C28.7749 33.7651 29.0046 33.9899 29.2862 33.9899C29.5678 33.9899 29.7974 33.7651 29.7974 33.4894C29.7974 33.2138 29.5678 32.989 29.2862 32.989ZM33.8875 32.989C33.6059 32.989 33.3762 33.2138 33.3762 33.4894C33.3762 33.7651 33.6059 33.9899 33.8875 33.9899C34.1691 33.9899 34.3987 33.7651 34.3987 33.4894C34.3987 33.2138 34.1691 32.989 33.8875 32.989ZM24.6849 34.9908C24.4033 34.9908 24.1736 35.2156 24.1736 35.4913C24.1736 35.7669 24.4033 35.9917 24.6849 35.9917C24.9665 35.9917 25.1961 35.7669 25.1961 35.4913C25.1961 35.2156 24.9665 34.9908 24.6849 34.9908ZM29.2862 34.9908C29.0046 34.9908 28.7749 35.2156 28.7749 35.4913C28.7749 35.7669 29.0046 35.9917 29.2862 35.9917C29.5678 35.9917 29.7974 35.7669 29.7974 35.4913C29.7974 35.2156 29.5678 34.9908 29.2862 34.9908ZM33.8875 34.9908C33.6059 34.9908 33.3762 35.2156 33.3762 35.4913C33.3762 35.7669 33.6059 35.9917 33.8875 35.9917C34.1691 35.9917 34.3987 35.7669 34.3987 35.4913C34.3987 35.2156 34.1691 34.9908 33.8875 34.9908ZM24.6849 36.9926C24.4033 36.9926 24.1736 37.2175 24.1736 37.4931C24.1736 37.7687 24.4033 37.9936 24.6849 37.9936C24.9665 37.9936 25.1961 37.7687 25.1961 37.4931C25.1961 37.2175 24.9665 36.9926 24.6849 36.9926ZM29.2862 36.9926C29.0046 36.9926 28.7749 37.2175 28.7749 37.4931C28.7749 37.7687 29.0046 37.9936 29.2862 37.9936C29.5678 37.9936 29.7974 37.7687 29.7974 37.4931C29.7974 37.2175 29.5678 36.9926 29.2862 36.9926ZM33.8875 36.9926C33.6059 36.9926 33.3762 37.2175 33.3762 37.4931C33.3762 37.7687 33.6059 37.9936 33.8875 37.9936C34.1691 37.9936 34.3987 37.7687 34.3987 37.4931C34.3987 37.2175 34.1691 36.9926 33.8875 36.9926ZM24.6849 38.9945C24.4033 38.9945 24.1736 39.2193 24.1736 39.4949C24.1736 39.7706 24.4033 39.9954 24.6849 39.9954C24.9665 39.9954 25.1961 39.7706 25.1961 39.4949C25.1961 39.2193 24.9665 38.9945 24.6849 38.9945ZM29.2862 38.9945C29.0046 38.9945 28.7749 39.2193 28.7749 39.4949C28.7749 39.7706 29.0046 39.9954 29.2862 39.9954C29.5678 39.9954 29.7974 39.7706 29.7974 39.4949C29.7974 39.2193 29.5678 38.9945 29.2862 38.9945ZM33.8875 38.9945C33.6059 38.9945 33.3762 39.2193 33.3762 39.4949C33.3762 39.7706 33.6059 39.9954 33.8875 39.9954C34.1691 39.9954 34.3987 39.7706 34.3987 39.4949C34.3987 39.2193 34.1691 38.9945 33.8875 38.9945Z" fill="white"/>
</svg>
