<svg width="55" height="55" viewBox="0 0 55 55" fill="none" xmlns="http://www.w3.org/2000/svg">
<circle cx="27.5" cy="27.5" r="27.5" fill="#2D5EBB"/>
<path d="M13 18V18.4002V34.81V36.0107V36.4109V38.0119H13.4C24.9607 38.0119 37.2547 42.7874 37.2547 42.7874L37.8 43V39.2087C38.7075 39.4343 39.2867 39.5964 39.2867 39.5964L39.8 39.7481V34.81H41V18H13ZM13.8 18.8005H40.2V34.0095H13.8V18.8005ZM18.2 19.601C18.0939 19.601 17.9922 19.6431 17.9172 19.7182C17.8421 19.7932 17.8 19.895 17.8 20.0012C17.8 20.1073 17.8421 20.2091 17.9172 20.2842C17.9922 20.3593 18.0939 20.4014 18.2 20.4014C18.3061 20.4014 18.4078 20.3593 18.4828 20.2842C18.5579 20.2091 18.6 20.1073 18.6 20.0012C18.6 19.895 18.5579 19.7932 18.4828 19.7182C18.4078 19.6431 18.3061 19.601 18.2 19.601ZM19.8 19.601C19.6939 19.601 19.5922 19.6431 19.5172 19.7182C19.4421 19.7932 19.4 19.895 19.4 20.0012C19.4 20.1073 19.4421 20.2091 19.5172 20.2842C19.5922 20.3593 19.6939 20.4014 19.8 20.4014C19.9061 20.4014 20.0078 20.3593 20.0828 20.2842C20.1579 20.2091 20.2 20.1073 20.2 20.0012C20.2 19.895 20.1579 19.7932 20.0828 19.7182C20.0078 19.6431 19.9061 19.601 19.8 19.601ZM21.4 19.601C21.2939 19.601 21.1922 19.6431 21.1172 19.7182C21.0421 19.7932 21 19.895 21 20.0012C21 20.1073 21.0421 20.2091 21.1172 20.2842C21.1922 20.3593 21.2939 20.4014 21.4 20.4014C21.5061 20.4014 21.6078 20.3593 21.6828 20.2842C21.7579 20.2091 21.8 20.1073 21.8 20.0012C21.8 19.895 21.7579 19.7932 21.6828 19.7182C21.6078 19.6431 21.5061 19.601 21.4 19.601ZM23 19.601C22.8939 19.601 22.7922 19.6431 22.7172 19.7182C22.6421 19.7932 22.6 19.895 22.6 20.0012C22.6 20.1073 22.6421 20.2091 22.7172 20.2842C22.7922 20.3593 22.8939 20.4014 23 20.4014C23.1061 20.4014 23.2078 20.3593 23.2828 20.2842C23.3579 20.2091 23.4 20.1073 23.4 20.0012C23.4 19.895 23.3579 19.7932 23.2828 19.7182C23.2078 19.6431 23.1061 19.601 23 19.601ZM24.6 19.601C24.4939 19.601 24.3922 19.6431 24.3172 19.7182C24.2421 19.7932 24.2 19.895 24.2 20.0012C24.2 20.1073 24.2421 20.2091 24.3172 20.2842C24.3922 20.3593 24.4939 20.4014 24.6 20.4014C24.7061 20.4014 24.8078 20.3593 24.8828 20.2842C24.9579 20.2091 25 20.1073 25 20.0012C25 19.895 24.9579 19.7932 24.8828 19.7182C24.8078 19.6431 24.7061 19.601 24.6 19.601ZM26.2 19.601C26.0939 19.601 25.9922 19.6431 25.9172 19.7182C25.8421 19.7932 25.8 19.895 25.8 20.0012C25.8 20.1073 25.8421 20.2091 25.9172 20.2842C25.9922 20.3593 26.0939 20.4014 26.2 20.4014C26.3061 20.4014 26.4078 20.3593 26.4828 20.2842C26.5579 20.2091 26.6 20.1073 26.6 20.0012C26.6 19.895 26.5579 19.7932 26.4828 19.7182C26.4078 19.6431 26.3061 19.601 26.2 19.601ZM27.8 19.601C27.6939 19.601 27.5922 19.6431 27.5172 19.7182C27.4421 19.7932 27.4 19.895 27.4 20.0012C27.4 20.1073 27.4421 20.2091 27.5172 20.2842C27.5922 20.3593 27.6939 20.4014 27.8 20.4014C27.9061 20.4014 28.0078 20.3593 28.0828 20.2842C28.1579 20.2091 28.2 20.1073 28.2 20.0012C28.2 19.895 28.1579 19.7932 28.0828 19.7182C28.0078 19.6431 27.9061 19.601 27.8 19.601ZM29.4 19.601C29.2939 19.601 29.1922 19.6431 29.1172 19.7182C29.0421 19.7932 29 19.895 29 20.0012C29 20.1073 29.0421 20.2091 29.1172 20.2842C29.1922 20.3593 29.2939 20.4014 29.4 20.4014C29.5061 20.4014 29.6078 20.3593 29.6828 20.2842C29.7579 20.2091 29.8 20.1073 29.8 20.0012C29.8 19.895 29.7579 19.7932 29.6828 19.7182C29.6078 19.6431 29.5061 19.601 29.4 19.601ZM31 19.601C30.8939 19.601 30.7922 19.6431 30.7172 19.7182C30.6421 19.7932 30.6 19.895 30.6 20.0012C30.6 20.1073 30.6421 20.2091 30.7172 20.2842C30.7922 20.3593 30.8939 20.4014 31 20.4014C31.1061 20.4014 31.2078 20.3593 31.2828 20.2842C31.3579 20.2091 31.4 20.1073 31.4 20.0012C31.4 19.895 31.3579 19.7932 31.2828 19.7182C31.2078 19.6431 31.1061 19.601 31 19.601ZM32.6 19.601C32.4939 19.601 32.3922 19.6431 32.3172 19.7182C32.2421 19.7932 32.2 19.895 32.2 20.0012C32.2 20.1073 32.2421 20.2091 32.3172 20.2842C32.3922 20.3593 32.4939 20.4014 32.6 20.4014C32.7061 20.4014 32.8078 20.3593 32.8828 20.2842C32.9579 20.2091 33 20.1073 33 20.0012C33 19.895 32.9579 19.7932 32.8828 19.7182C32.8078 19.6431 32.7061 19.601 32.6 19.601ZM34.2 19.601C34.0939 19.601 33.9922 19.6431 33.9172 19.7182C33.8421 19.7932 33.8 19.895 33.8 20.0012C33.8 20.1073 33.8421 20.2091 33.9172 20.2842C33.9922 20.3593 34.0939 20.4014 34.2 20.4014C34.3061 20.4014 34.4078 20.3593 34.4828 20.2842C34.5579 20.2091 34.6 20.1073 34.6 20.0012C34.6 19.895 34.5579 19.7932 34.4828 19.7182C34.4078 19.6431 34.3061 19.601 34.2 19.601ZM35.8 19.601C35.6939 19.601 35.5922 19.6431 35.5172 19.7182C35.4421 19.7932 35.4 19.895 35.4 20.0012C35.4 20.1073 35.4421 20.2091 35.5172 20.2842C35.5922 20.3593 35.6939 20.4014 35.8 20.4014C35.9061 20.4014 36.0078 20.3593 36.0828 20.2842C36.1579 20.2091 36.2 20.1073 36.2 20.0012C36.2 19.895 36.1579 19.7932 36.0828 19.7182C36.0078 19.6431 35.9061 19.601 35.8 19.601ZM36.2281 21.2011C36.122 21.2011 36.0203 21.2433 35.9453 21.3183C35.8703 21.3934 35.8281 21.4952 35.8281 21.6014C35.8281 21.7075 35.8703 21.8093 35.9453 21.8844C36.0203 21.9594 36.122 22.0016 36.2281 22.0016C36.3342 22.0016 36.436 21.9594 36.511 21.8844C36.586 21.8093 36.6281 21.7075 36.6281 21.6014C36.6281 21.4952 36.586 21.3934 36.511 21.3183C36.436 21.2433 36.3342 21.2011 36.2281 21.2011ZM17.7711 21.2027C17.665 21.2027 17.5633 21.2449 17.4883 21.3199C17.4132 21.395 17.3711 21.4968 17.3711 21.6029C17.3711 21.7091 17.4132 21.8109 17.4883 21.8859C17.5633 21.961 17.665 22.0032 17.7711 22.0032C17.8772 22.0032 17.9789 21.961 18.0539 21.8859C18.129 21.8109 18.1711 21.7091 18.1711 21.6029C18.1711 21.4968 18.129 21.395 18.0539 21.3199C17.9789 21.2449 17.8772 21.2027 17.7711 21.2027ZM27 22.0024C24.5747 22.0024 22.6 23.9782 22.6 26.405C22.6 28.8317 24.5747 30.8076 27 30.8076C29.4253 30.8076 31.4 28.8317 31.4 26.405C31.4 23.9782 29.4253 22.0024 27 22.0024ZM16.5992 22.3737C16.4931 22.3737 16.3914 22.4159 16.3164 22.4909C16.2414 22.566 16.1992 22.6678 16.1992 22.7739C16.1992 22.8801 16.2414 22.9819 16.3164 23.0569C16.3914 23.132 16.4931 23.1742 16.5992 23.1742C16.7053 23.1742 16.807 23.132 16.8821 23.0569C16.9571 22.9819 16.9992 22.8801 16.9992 22.7739C16.9992 22.6678 16.9571 22.566 16.8821 22.4909C16.807 22.4159 16.7053 22.3737 16.5992 22.3737ZM37.3992 22.3745C37.2931 22.3745 37.1914 22.4166 37.1164 22.4917C37.0414 22.5668 36.9992 22.6686 36.9992 22.7747C36.9992 22.8809 37.0414 22.9827 37.1164 23.0577C37.1914 23.1328 37.2931 23.1749 37.3992 23.1749C37.5053 23.1749 37.607 23.1328 37.6821 23.0577C37.7571 22.9827 37.7992 22.8809 37.7992 22.7747C37.7992 22.6686 37.7571 22.5668 37.6821 22.4917C37.607 22.4166 37.5053 22.3745 37.3992 22.3745ZM15 22.8029C14.8939 22.8029 14.7922 22.845 14.7172 22.9201C14.6421 22.9951 14.6 23.0969 14.6 23.2031C14.6 23.3092 14.6421 23.411 14.7172 23.4861C14.7922 23.5612 14.8939 23.6033 15 23.6033C15.1061 23.6033 15.2078 23.5612 15.2828 23.4861C15.3579 23.411 15.4 23.3092 15.4 23.2031C15.4 23.0969 15.3579 22.9951 15.2828 22.9201C15.2078 22.845 15.1061 22.8029 15 22.8029ZM27 22.8029C28.993 22.8029 30.6 24.4108 30.6 26.405C30.6 28.3991 28.993 30.0071 27 30.0071C25.007 30.0071 23.4 28.3991 23.4 26.405C23.4 24.4108 25.007 22.8029 27 22.8029ZM39 22.8029C38.8939 22.8029 38.7922 22.845 38.7172 22.9201C38.6421 22.9951 38.6 23.0969 38.6 23.2031C38.6 23.3092 38.6421 23.411 38.7172 23.4861C38.7922 23.5612 38.8939 23.6033 39 23.6033C39.1061 23.6033 39.2078 23.5612 39.2828 23.4861C39.3579 23.411 39.4 23.3092 39.4 23.2031C39.4 23.0969 39.3579 22.9951 39.2828 22.9201C39.2078 22.845 39.1061 22.8029 39 22.8029ZM15 24.4038C14.8939 24.4038 14.7922 24.446 14.7172 24.521C14.6421 24.5961 14.6 24.6979 14.6 24.804C14.6 24.9102 14.6421 25.012 14.7172 25.0871C14.7922 25.1621 14.8939 25.2043 15 25.2043C15.1061 25.2043 15.2078 25.1621 15.2828 25.0871C15.3579 25.012 15.4 24.9102 15.4 24.804C15.4 24.6979 15.3579 24.5961 15.2828 24.521C15.2078 24.446 15.1061 24.4038 15 24.4038ZM39 24.4038C38.8939 24.4038 38.7922 24.446 38.7172 24.521C38.6421 24.5961 38.6 24.6979 38.6 24.804C38.6 24.9102 38.6421 25.012 38.7172 25.0871C38.7922 25.1621 38.8939 25.2043 39 25.2043C39.1061 25.2043 39.2078 25.1621 39.2828 25.0871C39.3579 25.012 39.4 24.9102 39.4 24.804C39.4 24.6979 39.3579 24.5961 39.2828 24.521C39.2078 24.446 39.1061 24.4038 39 24.4038ZM18.6 24.804C17.7211 24.804 17 25.5256 17 26.405C17 27.2844 17.7211 28.0059 18.6 28.0059C19.4789 28.0059 20.2 27.2844 20.2 26.405C20.2 25.5256 19.4789 24.804 18.6 24.804ZM35 24.804C34.1211 24.804 33.4 25.5256 33.4 26.405C33.4 27.2844 34.1211 28.0059 35 28.0059C35.8789 28.0059 36.6 27.2844 36.6 26.405C36.6 25.5256 35.8789 24.804 35 24.804ZM18.6 25.6045C19.0466 25.6045 19.4 25.9582 19.4 26.405C19.4 26.8518 19.0466 27.2055 18.6 27.2055C18.1534 27.2055 17.8 26.8518 17.8 26.405C17.8 25.9582 18.1534 25.6045 18.6 25.6045ZM35 25.6045C35.4466 25.6045 35.8 25.9582 35.8 26.405C35.8 26.8518 35.4466 27.2055 35 27.2055C34.5534 27.2055 34.2 26.8518 34.2 26.405C34.2 25.9582 34.5534 25.6045 35 25.6045ZM15 26.0048C14.8939 26.0048 14.7922 26.0469 14.7172 26.122C14.6421 26.197 14.6 26.2988 14.6 26.405C14.6 26.5111 14.6421 26.6129 14.7172 26.688C14.7922 26.7631 14.8939 26.8052 15 26.8052C15.1061 26.8052 15.2078 26.7631 15.2828 26.688C15.3579 26.6129 15.4 26.5111 15.4 26.405C15.4 26.2988 15.3579 26.197 15.2828 26.122C15.2078 26.0469 15.1061 26.0048 15 26.0048ZM39 26.0048C38.8939 26.0048 38.7922 26.0469 38.7172 26.122C38.6421 26.197 38.6 26.2988 38.6 26.405C38.6 26.5111 38.6421 26.6129 38.7172 26.688C38.7922 26.7631 38.8939 26.8052 39 26.8052C39.1061 26.8052 39.2078 26.7631 39.2828 26.688C39.3579 26.6129 39.4 26.5111 39.4 26.405C39.4 26.2988 39.3579 26.197 39.2828 26.122C39.2078 26.0469 39.1061 26.0048 39 26.0048ZM15 27.6057C14.8939 27.6057 14.7922 27.6479 14.7172 27.7229C14.6421 27.798 14.6 27.8998 14.6 28.0059C14.6 28.1121 14.6421 28.2139 14.7172 28.289C14.7922 28.364 14.8939 28.4062 15 28.4062C15.1061 28.4062 15.2078 28.364 15.2828 28.289C15.3579 28.2139 15.4 28.1121 15.4 28.0059C15.4 27.8998 15.3579 27.798 15.2828 27.7229C15.2078 27.6479 15.1061 27.6057 15 27.6057ZM39 27.6057C38.8939 27.6057 38.7922 27.6479 38.7172 27.7229C38.6421 27.798 38.6 27.8998 38.6 28.0059C38.6 28.1121 38.6421 28.2139 38.7172 28.289C38.7922 28.364 38.8939 28.4062 39 28.4062C39.1061 28.4062 39.2078 28.364 39.2828 28.289C39.3579 28.2139 39.4 28.1121 39.4 28.0059C39.4 27.8998 39.3579 27.798 39.2828 27.7229C39.2078 27.6479 39.1061 27.6057 39 27.6057ZM15 29.2067C14.8939 29.2067 14.7922 29.2488 14.7172 29.3239C14.6421 29.3989 14.6 29.5007 14.6 29.6069C14.6 29.713 14.6421 29.8148 14.7172 29.8899C14.7922 29.965 14.8939 30.0071 15 30.0071C15.1061 30.0071 15.2078 29.965 15.2828 29.8899C15.3579 29.8148 15.4 29.713 15.4 29.6069C15.4 29.5007 15.3579 29.3989 15.2828 29.3239C15.2078 29.2488 15.1061 29.2067 15 29.2067ZM39 29.2067C38.8939 29.2067 38.7922 29.2488 38.7172 29.3239C38.6421 29.3989 38.6 29.5007 38.6 29.6069C38.6 29.713 38.6421 29.8148 38.7172 29.8899C38.7922 29.965 38.8939 30.0071 39 30.0071C39.1061 30.0071 39.2078 29.965 39.2828 29.8899C39.3579 29.8148 39.4 29.713 39.4 29.6069C39.4 29.5007 39.3579 29.3989 39.2828 29.3239C39.2078 29.2488 39.1061 29.2067 39 29.2067ZM37.3992 29.635C37.2931 29.635 37.1914 29.6772 37.1164 29.7523C37.0414 29.8273 36.9992 29.9291 36.9992 30.0353C36.9992 30.1414 37.0414 30.2432 37.1164 30.3183C37.1914 30.3933 37.2931 30.4355 37.3992 30.4355C37.5053 30.4355 37.607 30.3933 37.6821 30.3183C37.7571 30.2432 37.7992 30.1414 37.7992 30.0353C37.7992 29.9291 37.7571 29.8273 37.6821 29.7523C37.607 29.6772 37.5053 29.635 37.3992 29.635ZM16.5992 29.6358C16.4931 29.6358 16.3914 29.678 16.3164 29.753C16.2414 29.8281 16.1992 29.9299 16.1992 30.0361C16.1992 30.1422 16.2414 30.244 16.3164 30.3191C16.3914 30.3941 16.4931 30.4363 16.5992 30.4363C16.7053 30.4363 16.807 30.3941 16.8821 30.3191C16.9571 30.244 16.9992 30.1422 16.9992 30.0361C16.9992 29.9299 16.9571 29.8281 16.8821 29.753C16.807 29.678 16.7053 29.6358 16.5992 29.6358ZM17.7703 30.8068C17.6642 30.8068 17.5625 30.849 17.4875 30.924C17.4125 30.9991 17.3703 31.1009 17.3703 31.2071C17.3703 31.3132 17.4125 31.415 17.4875 31.4901C17.5625 31.5651 17.6642 31.6073 17.7703 31.6073C17.8764 31.6073 17.9781 31.5651 18.0532 31.4901C18.1282 31.415 18.1703 31.3132 18.1703 31.2071C18.1703 31.1009 18.1282 30.9991 18.0532 30.924C17.9781 30.849 17.8764 30.8068 17.7703 30.8068ZM36.2281 30.8084C36.122 30.8084 36.0203 30.8506 35.9453 30.9256C35.8703 31.0007 35.8281 31.1025 35.8281 31.2086C35.8281 31.3148 35.8703 31.4166 35.9453 31.4916C36.0203 31.5667 36.122 31.6089 36.2281 31.6089C36.3342 31.6089 36.436 31.5667 36.511 31.4916C36.586 31.4166 36.6281 31.3148 36.6281 31.2086C36.6281 31.1025 36.586 31.0007 36.511 30.9256C36.436 30.8506 36.3342 30.8084 36.2281 30.8084ZM18.2 32.4086C18.0939 32.4086 17.9922 32.4507 17.9172 32.5258C17.8421 32.6008 17.8 32.7026 17.8 32.8088C17.8 32.9149 17.8421 33.0167 17.9172 33.0918C17.9922 33.1669 18.0939 33.209 18.2 33.209C18.3061 33.209 18.4078 33.1669 18.4828 33.0918C18.5579 33.0167 18.6 32.9149 18.6 32.8088C18.6 32.7026 18.5579 32.6008 18.4828 32.5258C18.4078 32.4507 18.3061 32.4086 18.2 32.4086ZM19.8 32.4086C19.6939 32.4086 19.5922 32.4507 19.5172 32.5258C19.4421 32.6008 19.4 32.7026 19.4 32.8088C19.4 32.9149 19.4421 33.0167 19.5172 33.0918C19.5922 33.1669 19.6939 33.209 19.8 33.209C19.9061 33.209 20.0078 33.1669 20.0828 33.0918C20.1579 33.0167 20.2 32.9149 20.2 32.8088C20.2 32.7026 20.1579 32.6008 20.0828 32.5258C20.0078 32.4507 19.9061 32.4086 19.8 32.4086ZM21.4 32.4086C21.2939 32.4086 21.1922 32.4507 21.1172 32.5258C21.0421 32.6008 21 32.7026 21 32.8088C21 32.9149 21.0421 33.0167 21.1172 33.0918C21.1922 33.1669 21.2939 33.209 21.4 33.209C21.5061 33.209 21.6078 33.1669 21.6828 33.0918C21.7579 33.0167 21.8 32.9149 21.8 32.8088C21.8 32.7026 21.7579 32.6008 21.6828 32.5258C21.6078 32.4507 21.5061 32.4086 21.4 32.4086ZM23 32.4086C22.8939 32.4086 22.7922 32.4507 22.7172 32.5258C22.6421 32.6008 22.6 32.7026 22.6 32.8088C22.6 32.9149 22.6421 33.0167 22.7172 33.0918C22.7922 33.1669 22.8939 33.209 23 33.209C23.1061 33.209 23.2078 33.1669 23.2828 33.0918C23.3579 33.0167 23.4 32.9149 23.4 32.8088C23.4 32.7026 23.3579 32.6008 23.2828 32.5258C23.2078 32.4507 23.1061 32.4086 23 32.4086ZM24.6 32.4086C24.4939 32.4086 24.3922 32.4507 24.3172 32.5258C24.2421 32.6008 24.2 32.7026 24.2 32.8088C24.2 32.9149 24.2421 33.0167 24.3172 33.0918C24.3922 33.1669 24.4939 33.209 24.6 33.209C24.7061 33.209 24.8078 33.1669 24.8828 33.0918C24.9579 33.0167 25 32.9149 25 32.8088C25 32.7026 24.9579 32.6008 24.8828 32.5258C24.8078 32.4507 24.7061 32.4086 24.6 32.4086ZM26.2 32.4086C26.0939 32.4086 25.9922 32.4507 25.9172 32.5258C25.8421 32.6008 25.8 32.7026 25.8 32.8088C25.8 32.9149 25.8421 33.0167 25.9172 33.0918C25.9922 33.1669 26.0939 33.209 26.2 33.209C26.3061 33.209 26.4078 33.1669 26.4828 33.0918C26.5579 33.0167 26.6 32.9149 26.6 32.8088C26.6 32.7026 26.5579 32.6008 26.4828 32.5258C26.4078 32.4507 26.3061 32.4086 26.2 32.4086ZM27.8 32.4086C27.6939 32.4086 27.5922 32.4507 27.5172 32.5258C27.4421 32.6008 27.4 32.7026 27.4 32.8088C27.4 32.9149 27.4421 33.0167 27.5172 33.0918C27.5922 33.1669 27.6939 33.209 27.8 33.209C27.9061 33.209 28.0078 33.1669 28.0828 33.0918C28.1579 33.0167 28.2 32.9149 28.2 32.8088C28.2 32.7026 28.1579 32.6008 28.0828 32.5258C28.0078 32.4507 27.9061 32.4086 27.8 32.4086ZM29.4 32.4086C29.2939 32.4086 29.1922 32.4507 29.1172 32.5258C29.0421 32.6008 29 32.7026 29 32.8088C29 32.9149 29.0421 33.0167 29.1172 33.0918C29.1922 33.1669 29.2939 33.209 29.4 33.209C29.5061 33.209 29.6078 33.1669 29.6828 33.0918C29.7579 33.0167 29.8 32.9149 29.8 32.8088C29.8 32.7026 29.7579 32.6008 29.6828 32.5258C29.6078 32.4507 29.5061 32.4086 29.4 32.4086ZM31 32.4086C30.8939 32.4086 30.7922 32.4507 30.7172 32.5258C30.6421 32.6008 30.6 32.7026 30.6 32.8088C30.6 32.9149 30.6421 33.0167 30.7172 33.0918C30.7922 33.1669 30.8939 33.209 31 33.209C31.1061 33.209 31.2078 33.1669 31.2828 33.0918C31.3579 33.0167 31.4 32.9149 31.4 32.8088C31.4 32.7026 31.3579 32.6008 31.2828 32.5258C31.2078 32.4507 31.1061 32.4086 31 32.4086ZM32.6 32.4086C32.4939 32.4086 32.3922 32.4507 32.3172 32.5258C32.2421 32.6008 32.2 32.7026 32.2 32.8088C32.2 32.9149 32.2421 33.0167 32.3172 33.0918C32.3922 33.1669 32.4939 33.209 32.6 33.209C32.7061 33.209 32.8078 33.1669 32.8828 33.0918C32.9579 33.0167 33 32.9149 33 32.8088C33 32.7026 32.9579 32.6008 32.8828 32.5258C32.8078 32.4507 32.7061 32.4086 32.6 32.4086ZM34.2 32.4086C34.0939 32.4086 33.9922 32.4507 33.9172 32.5258C33.8421 32.6008 33.8 32.7026 33.8 32.8088C33.8 32.9149 33.8421 33.0167 33.9172 33.0918C33.9922 33.1669 34.0939 33.209 34.2 33.209C34.3061 33.209 34.4078 33.1669 34.4828 33.0918C34.5579 33.0167 34.6 32.9149 34.6 32.8088C34.6 32.7026 34.5579 32.6008 34.4828 32.5258C34.4078 32.4507 34.3061 32.4086 34.2 32.4086ZM35.8 32.4086C35.6939 32.4086 35.5922 32.4507 35.5172 32.5258C35.4421 32.6008 35.4 32.7026 35.4 32.8088C35.4 32.9149 35.4421 33.0167 35.5172 33.0918C35.5922 33.1669 35.6939 33.209 35.8 33.209C35.9061 33.209 36.0078 33.1669 36.0828 33.0918C36.1579 33.0167 36.2 32.9149 36.2 32.8088C36.2 32.7026 36.1579 32.6008 36.0828 32.5258C36.0078 32.4507 35.9061 32.4086 35.8 32.4086ZM13.8 34.81H36.6H39V38.6959C37.694 38.3283 27.7983 35.6743 13.8 35.6206V34.81ZM36.6 34.81C36.4939 34.81 36.3922 34.8521 36.3172 34.9272C36.2421 35.0023 36.2 35.1041 36.2 35.2102C36.2 35.3164 36.2421 35.4182 36.3172 35.4932C36.3922 35.5683 36.4939 35.6105 36.6 35.6105C36.7061 35.6105 36.8078 35.5683 36.8828 35.4932C36.9579 35.4182 37 35.3164 37 35.2102C37 35.1041 36.9579 35.0023 36.8828 34.9272C36.8078 34.8521 36.7061 34.81 36.6 34.81ZM35.8 36.0107C35.6939 36.0107 35.5922 36.0529 35.5172 36.1279C35.4421 36.203 35.4 36.3048 35.4 36.4109C35.4 36.5171 35.4421 36.6189 35.5172 36.6939C35.5922 36.769 35.6939 36.8112 35.8 36.8112C35.9061 36.8112 36.0078 36.769 36.0828 36.6939C36.1579 36.6189 36.2 36.5171 36.2 36.4109C36.2 36.3048 36.1579 36.203 36.0828 36.1279C36.0078 36.0529 35.9061 36.0107 35.8 36.0107ZM13.8 36.4164C22.484 36.4492 29.6889 37.521 34.2 38.4137C34.2004 38.5196 34.2427 38.621 34.3177 38.6957C34.3927 38.7704 34.4942 38.8124 34.6 38.8124C34.6788 38.8123 34.7558 38.789 34.8214 38.7454C34.887 38.7017 34.9383 38.6396 34.9688 38.5669C35.7654 38.7316 36.4126 38.8793 37 39.0172V41.847C35.5773 41.3089 24.6987 37.33 13.8 37.2302V36.4164ZM33.8 39.2126C33.6939 39.2126 33.5922 39.2548 33.5172 39.3298C33.4421 39.4049 33.4 39.5067 33.4 39.6128C33.4 39.719 33.4421 39.8208 33.5172 39.8958C33.5922 39.9709 33.6939 40.0131 33.8 40.0131C33.9061 40.0131 34.0078 39.9709 34.0828 39.8958C34.1579 39.8208 34.2 39.719 34.2 39.6128C34.2 39.5067 34.1579 39.4049 34.0828 39.3298C34.0078 39.2548 33.9061 39.2126 33.8 39.2126Z" fill="white"/>
</svg>
