<svg width="55" height="55" viewBox="0 0 55 55" fill="none" xmlns="http://www.w3.org/2000/svg">
<circle cx="27.5" cy="27.5" r="27.5" fill="#2D5EBB"/>
<path d="M26.434 14C24.283 14 22.349 15.1961 20.9462 16.3586C20.8021 16.4786 20.6667 16.5968 20.5347 16.7167C20.4583 16.7132 20.3837 16.7097 20.3056 16.7097C18.4844 16.7097 16.8628 17.7188 15.6875 18.6925C14.5104 19.6681 13.7604 20.6472 13.7604 20.6472L13.349 21.1835L13.9948 21.3599C13.9948 21.3599 14.2188 21.4181 14.474 21.6615C14.7309 21.905 15 22.3019 15 23.0887V26.1935H15.0052C15.0174 26.4229 15.0799 26.6116 15.1337 26.7969C15.1632 26.8992 15.1927 26.9945 15.2101 27.0668C15.2292 27.1373 15.2309 27.2079 15.2309 27.1338C15.2309 27.5696 15.5417 27.8659 15.9201 28.0141C15.9722 29.4713 16.6389 30.7644 17.6667 31.6358V33.0983C17.0747 33.28 15.8611 33.6804 14.6181 34.2644C13.7569 34.6701 12.8872 35.1588 12.2083 35.7409C11.5278 36.3248 11 37.034 11 37.8826V40.1935H15.4444V42H38.5556V40.1935H43V37.8826C43 37.034 42.4722 36.3248 41.7917 35.7409C41.1128 35.1588 40.2431 34.6701 39.3819 34.2644C38.1389 33.6804 36.9253 33.28 36.3333 33.0983V31.6341C37.3611 30.7644 38.0278 29.4695 38.0799 28.0123C38.4583 27.8659 38.7691 27.5678 38.7691 27.1338C38.7691 27.2061 38.7708 27.1373 38.7899 27.0668C38.8073 26.9945 38.8368 26.8992 38.8663 26.7969C38.9201 26.6116 38.9826 26.4229 38.9948 26.1935H39V22.0532C39 19.4776 37.4688 18.2268 36.0955 18.1104C36.0052 17.9834 35.8854 17.7681 35.4444 17.4647C34.8837 17.0801 34.0017 16.7097 32.75 16.7097C32.6944 16.7097 32.6389 16.7132 32.5833 16.715C31.8872 16.1452 31.0903 15.907 30.3802 15.8558C30.2587 15.66 30.0434 15.3531 29.5972 14.9985C28.9566 14.4922 27.9288 14 26.434 14ZM26.434 14.9032C27.7396 14.9032 28.5503 15.3143 29.0486 15.7112C29.5486 16.1081 29.7135 16.4574 29.7135 16.4574L29.8351 16.7097H30.1111C30.7031 16.7097 31.5 16.939 32.1198 17.4947C32.7413 18.0504 33.2222 18.9183 33.2222 20.3226C33.2222 21.5822 32.9271 23.4204 32.8403 23.9355C32.8403 23.9355 32.8368 23.9355 32.8333 23.9355C32.7951 23.9355 32.8021 23.9443 32.7778 23.9478V22.5806C32.7778 21.0353 32.1562 19.9962 31.5312 19.3805C30.9062 18.7649 30.2517 18.5391 30.2517 18.5391L29.9983 18.4526L29.8038 18.6414C29.8038 18.6414 29.5243 18.9201 28.849 19.2341C28.1736 19.5481 27.1285 19.871 25.6667 19.871C24.8663 19.871 23.8125 20.1585 22.8976 20.8077C21.9861 21.4551 21.2274 22.5136 21.224 23.9496C21.1997 23.9461 21.2049 23.9355 21.1667 23.9355C21.1563 23.9355 21.1458 23.939 21.1354 23.939C21.0451 23.5033 20.8993 22.653 20.8993 21.5645C20.8993 20.3826 20.4826 19.5975 20.0469 19.1424C19.8611 18.9483 19.8194 18.9819 19.658 18.8848C19.9653 18.5179 20.5365 17.8669 21.5087 17.0607C22.8299 15.9652 24.6146 14.9032 26.434 14.9032ZM33.4045 17.6552C34.1198 17.7487 34.6146 17.9851 34.9462 18.2127C35.3715 18.5055 35.5087 18.749 35.5087 18.749L35.6389 18.9677H35.8889C36.8021 18.9677 38.1111 19.7122 38.1111 22.0532V23.9355C38.1111 21.3299 36.1181 20.0862 36.1181 20.0862L35.783 19.8816L35.5417 20.192C35.5417 20.192 35.0729 20.7954 34.0747 21.2152C34.0955 20.9065 34.1111 20.6013 34.1111 20.3226C34.1111 19.2235 33.8333 18.3397 33.4045 17.6552ZM19.5278 17.6976C18.9861 18.2674 18.6493 18.6908 18.6493 18.6908L18.2483 19.213L18.875 19.3999C18.875 19.3999 19.1181 19.4688 19.4097 19.7722C19.6997 20.0738 20.0104 20.589 20.0104 21.5645C20.0104 21.5751 20.0104 21.5822 20.0122 21.591C19.8993 21.598 19.7847 21.6016 19.6667 21.6016C18.9809 21.6016 18.0938 21.845 17.3177 22.3972C16.5399 22.9476 15.8889 23.8579 15.8889 25.0857V23.0887C15.8889 22.0761 15.4913 21.3916 15.0816 21.0018C14.9531 20.8818 14.9358 20.9171 14.816 20.843C15.0278 20.5837 15.3715 20.1197 16.2483 19.3929C17.151 18.6449 18.3125 17.9287 19.5278 17.6976ZM30.1111 19.4899C30.2188 19.5323 30.5 19.6222 30.9132 20.028C31.3993 20.5078 31.8889 21.2734 31.8889 22.5806V25.4279L32.5573 25.0292C32.6719 24.9622 32.7778 24.9022 32.8524 24.8634C32.8611 24.8581 32.8646 24.8581 32.8733 24.8528C33.0764 24.874 33.2222 25.0186 33.2222 25.1986V25.2004C33.2222 25.2339 33.1684 25.4985 33.1007 25.7349C33.066 25.8513 33.0312 25.9695 33.0017 26.0771C32.974 26.1847 32.9444 26.2606 32.9444 26.4194C32.9444 26.5393 32.8472 26.6452 32.6944 26.6452H31.8889V27.2626C31.8889 29.7112 30.151 31.7346 27.8628 32.1492L27.7361 32.1704L27.6406 32.2603C27.467 32.4209 27.2483 32.5161 27 32.5161C26.7517 32.5161 26.533 32.4209 26.3594 32.2603L26.2639 32.1704L26.1372 32.1492C23.849 31.7346 22.1111 29.7112 22.1111 27.2626V26.6452H21.3056C21.1528 26.6452 21.0556 26.5393 21.0556 26.4194C21.0556 26.2606 21.026 26.1847 20.9965 26.0771C20.967 25.9695 20.9323 25.8513 20.8976 25.7349C20.8299 25.4985 20.7778 25.2339 20.7778 25.2004C20.7778 25.0186 20.9236 24.874 21.1267 24.8528C21.1354 24.8581 21.1389 24.8581 21.1476 24.8634C21.2222 24.9022 21.3281 24.9622 21.4427 25.0292L22.1111 25.4279V23.9584C22.1111 22.8329 22.6632 22.0761 23.4062 21.5486C24.1493 21.0212 25.0938 20.7742 25.6667 20.7742C27.2587 20.7742 28.4358 20.4196 29.2188 20.0562C29.8003 19.7863 29.9531 19.6205 30.1111 19.4899ZM35.8941 21.0776C36.2309 21.3193 37.2222 22.1079 37.2222 23.9355V26.2729L37.875 25.9254C37.8802 25.9219 37.8837 25.9201 37.8889 25.9183C38.0139 25.9378 38.1111 26.0118 38.1111 26.1177C38.1111 26.1247 38.0694 26.347 38.0139 26.5411C37.9844 26.6399 37.9566 26.7369 37.9306 26.8286C37.9062 26.9221 37.8802 26.9821 37.8802 27.1338C37.8802 27.1903 37.8351 27.2467 37.7448 27.2467H37.2222V27.8377C37.2222 29.8417 35.8003 31.4947 33.9288 31.8334L33.8021 31.8581L33.7083 31.9446C33.5764 32.068 33.4097 32.1404 33.2222 32.1404C33.0347 32.1404 32.8681 32.068 32.7361 31.9446L32.6424 31.8581L32.5156 31.8334C32.0191 31.7434 31.5538 31.5582 31.1389 31.3007C32.066 30.311 32.6615 28.9967 32.7292 27.5343C33.3264 27.5131 33.8333 27.0333 33.8333 26.4194C33.8333 26.4846 33.8385 26.3999 33.8611 26.3135C33.8837 26.2271 33.9184 26.1124 33.9531 25.9889C34.0243 25.7437 34.1111 25.4932 34.1111 25.2004C34.1111 24.8299 33.9462 24.5035 33.6927 24.2724C33.7396 23.9902 33.875 23.1434 33.9792 22.2119C35.0208 21.875 35.5816 21.3899 35.8941 21.0776ZM20.0434 22.4924C20.1024 23.318 20.2257 23.9637 20.2969 24.283C20.0486 24.5123 19.8889 24.8369 19.8889 25.2004C19.8889 25.4932 19.9757 25.7437 20.0469 25.9889C20.0816 26.1124 20.1163 26.2271 20.1389 26.3135C20.1615 26.3999 20.1667 26.4846 20.1667 26.4194C20.1667 27.0333 20.6736 27.5131 21.2708 27.5343C21.3385 28.9967 21.934 30.3092 22.8611 31.2971C22.4444 31.5565 21.9809 31.7452 21.4844 31.8352L21.3576 31.8581L21.2639 31.9446C21.1319 32.068 20.9653 32.1404 20.7778 32.1404C20.5903 32.1404 20.4236 32.068 20.2917 31.9446L20.1979 31.8581L20.0712 31.8352C18.1997 31.4965 16.7778 29.8417 16.7778 27.8377V27.2467H16.2552C16.1649 27.2467 16.1198 27.192 16.1198 27.1338C16.1198 26.9821 16.0938 26.9221 16.0694 26.8286C16.0434 26.7369 16.0156 26.6399 15.9861 26.5428C15.9306 26.3488 15.8889 26.1247 15.8889 26.1177C15.8889 26.0118 15.9878 25.9378 16.1111 25.9183C16.1181 25.9219 16.1198 25.9219 16.125 25.9254L16.7778 26.2765V25.0857C16.7778 24.1719 17.2205 23.5668 17.8264 23.1381C18.4306 22.7077 19.2083 22.5048 19.6667 22.5048C19.7951 22.5048 19.9219 22.4995 20.0434 22.4924ZM24.5556 24.8387C24.1875 24.8387 23.8889 25.1421 23.8889 25.5161C23.8889 25.8901 24.1875 26.1935 24.5556 26.1935C24.9236 26.1935 25.2222 25.8901 25.2222 25.5161C25.2222 25.1421 24.9236 24.8387 24.5556 24.8387ZM29.4444 24.8387C29.0764 24.8387 28.7778 25.1421 28.7778 25.5161C28.7778 25.8901 29.0764 26.1935 29.4444 26.1935C29.8125 26.1935 30.1111 25.8901 30.1111 25.5161C30.1111 25.1421 29.8125 24.8387 29.4444 24.8387ZM18.7778 25.7419C18.4097 25.7419 18.1111 26.0454 18.1111 26.4194C18.1111 26.7933 18.4097 27.0968 18.7778 27.0968C19.1458 27.0968 19.4444 26.7933 19.4444 26.4194C19.4444 26.0454 19.1458 25.7419 18.7778 25.7419ZM35.2222 25.7419C34.8542 25.7419 34.5556 26.0454 34.5556 26.4194C34.5556 26.7933 34.8542 27.0968 35.2222 27.0968C35.5903 27.0968 35.8889 26.7933 35.8889 26.4194C35.8889 26.0454 35.5903 25.7419 35.2222 25.7419ZM23.4444 31.9869V33.5323C22.8038 33.7298 21.2656 34.2344 19.6997 34.9859C19.5521 35.0564 19.408 35.1323 19.2622 35.2064C18.8056 34.8871 18.6024 34.5325 18.5556 34.4478V32.2321C18.9444 32.435 19.3611 32.5902 19.8021 32.682C20.0729 32.8954 20.4045 33.0436 20.7778 33.0436C21.1406 33.0436 21.4635 32.9007 21.7292 32.6978C22.3524 32.5708 22.9306 32.3274 23.4444 31.9869ZM30.5556 31.9887C31.0677 32.3256 31.6458 32.5673 32.2656 32.6925C32.533 32.8989 32.8576 33.0436 33.2222 33.0436C33.5955 33.0436 33.9306 32.8954 34.2014 32.6802C34.6406 32.5885 35.0573 32.435 35.4444 32.2321V34.4478C35.3976 34.536 35.184 34.8818 34.7292 35.2029C34.5851 35.1305 34.4444 35.0547 34.3003 34.9859C32.7344 34.2344 31.1962 33.7298 30.5556 33.5323V31.9887ZM24.3333 32.4367C24.8073 32.689 25.3194 32.8831 25.8628 32.9942C26.1771 33.2482 26.566 33.4194 27 33.4194C27.4323 33.4194 27.8194 33.2482 28.1319 32.996C28.6771 32.8866 29.191 32.6925 29.6667 32.4385V35.0847C29.6128 35.1941 28.9097 36.5806 27 36.5806C25.0903 36.5806 24.3872 35.1941 24.3333 35.0847V32.4367ZM17.6667 34.0456V34.6878L17.7135 34.7812C17.7135 34.7812 17.934 35.2258 18.4167 35.6704C17.849 36.002 17.309 36.3654 16.849 36.7676C16.0486 37.468 15.4444 38.3059 15.4444 39.2903H11.8889V37.8826C11.8889 37.4292 12.2014 36.9282 12.7813 36.4325C13.3611 35.935 14.1719 35.4693 14.9913 35.0847C16.0382 34.5925 17.0434 34.245 17.6667 34.0456ZM36.3333 34.0456C36.9566 34.245 37.9618 34.5925 39.0087 35.0847C39.8281 35.4693 40.6389 35.935 41.2188 36.4325C41.7986 36.9282 42.1111 37.4292 42.1111 37.8826V39.2903H38.5556C38.5556 38.3059 37.9514 37.468 37.151 36.7676C36.691 36.3654 36.1528 36.0038 35.5851 35.6704C36.0677 35.2276 36.2865 34.7812 36.2865 34.7812L36.3333 34.6878V34.0456ZM23.4444 34.4831V35.3317L23.4913 35.4287C23.4913 35.4287 24.5399 37.4839 27 37.4839C29.4601 37.4839 30.5087 35.4287 30.5087 35.4287L30.5556 35.3317V34.4831C31.2691 34.7107 32.5764 35.1588 33.9219 35.8044C34.8993 36.2737 35.8715 36.84 36.5712 37.4521C37.2708 38.0643 37.6667 38.6941 37.6667 39.2903V41.0968H16.3333V39.2903C16.3333 38.6941 16.7292 38.0643 17.4288 37.4521C18.1285 36.84 19.1007 36.2737 20.0781 35.8044C21.4236 35.1588 22.7309 34.7107 23.4444 34.4831ZM12.7778 37.4839C12.533 37.4839 12.3333 37.6867 12.3333 37.9355C12.3333 38.1842 12.533 38.3871 12.7778 38.3871C13.0226 38.3871 13.2222 38.1842 13.2222 37.9355C13.2222 37.6867 13.0226 37.4839 12.7778 37.4839ZM14.5556 37.4839C14.3108 37.4839 14.1111 37.6867 14.1111 37.9355C14.1111 38.1842 14.3108 38.3871 14.5556 38.3871C14.8003 38.3871 15 38.1842 15 37.9355C15 37.6867 14.8003 37.4839 14.5556 37.4839ZM39 37.4839C38.7552 37.4839 38.5556 37.6867 38.5556 37.9355C38.5556 38.1842 38.7552 38.3871 39 38.3871C39.2448 38.3871 39.4444 38.1842 39.4444 37.9355C39.4444 37.6867 39.2448 37.4839 39 37.4839ZM40.7778 37.4839C40.533 37.4839 40.3333 37.6867 40.3333 37.9355C40.3333 38.1842 40.533 38.3871 40.7778 38.3871C41.0226 38.3871 41.2222 38.1842 41.2222 37.9355C41.2222 37.6867 41.0226 37.4839 40.7778 37.4839ZM18.1111 39.2903C17.8663 39.2903 17.6667 39.4932 17.6667 39.7419C17.6667 39.9907 17.8663 40.1935 18.1111 40.1935C18.3559 40.1935 18.5556 39.9907 18.5556 39.7419C18.5556 39.4932 18.3559 39.2903 18.1111 39.2903ZM19.8889 39.2903C19.6441 39.2903 19.4444 39.4932 19.4444 39.7419C19.4444 39.9907 19.6441 40.1935 19.8889 40.1935C20.1337 40.1935 20.3333 39.9907 20.3333 39.7419C20.3333 39.4932 20.1337 39.2903 19.8889 39.2903ZM21.6667 39.2903C21.4219 39.2903 21.2222 39.4932 21.2222 39.7419C21.2222 39.9907 21.4219 40.1935 21.6667 40.1935C21.9115 40.1935 22.1111 39.9907 22.1111 39.7419C22.1111 39.4932 21.9115 39.2903 21.6667 39.2903ZM23.4444 39.2903C23.1997 39.2903 23 39.4932 23 39.7419C23 39.9907 23.1997 40.1935 23.4444 40.1935C23.6892 40.1935 23.8889 39.9907 23.8889 39.7419C23.8889 39.4932 23.6892 39.2903 23.4444 39.2903ZM25.2222 39.2903C24.9774 39.2903 24.7778 39.4932 24.7778 39.7419C24.7778 39.9907 24.9774 40.1935 25.2222 40.1935C25.467 40.1935 25.6667 39.9907 25.6667 39.7419C25.6667 39.4932 25.467 39.2903 25.2222 39.2903ZM27 39.2903C26.7552 39.2903 26.5556 39.4932 26.5556 39.7419C26.5556 39.9907 26.7552 40.1935 27 40.1935C27.2448 40.1935 27.4444 39.9907 27.4444 39.7419C27.4444 39.4932 27.2448 39.2903 27 39.2903ZM28.7778 39.2903C28.533 39.2903 28.3333 39.4932 28.3333 39.7419C28.3333 39.9907 28.533 40.1935 28.7778 40.1935C29.0226 40.1935 29.2222 39.9907 29.2222 39.7419C29.2222 39.4932 29.0226 39.2903 28.7778 39.2903ZM30.5556 39.2903C30.3108 39.2903 30.1111 39.4932 30.1111 39.7419C30.1111 39.9907 30.3108 40.1935 30.5556 40.1935C30.8003 40.1935 31 39.9907 31 39.7419C31 39.4932 30.8003 39.2903 30.5556 39.2903ZM32.3333 39.2903C32.0885 39.2903 31.8889 39.4932 31.8889 39.7419C31.8889 39.9907 32.0885 40.1935 32.3333 40.1935C32.5781 40.1935 32.7778 39.9907 32.7778 39.7419C32.7778 39.4932 32.5781 39.2903 32.3333 39.2903ZM34.1111 39.2903C33.8663 39.2903 33.6667 39.4932 33.6667 39.7419C33.6667 39.9907 33.8663 40.1935 34.1111 40.1935C34.3559 40.1935 34.5556 39.9907 34.5556 39.7419C34.5556 39.4932 34.3559 39.2903 34.1111 39.2903ZM35.8889 39.2903C35.6441 39.2903 35.4444 39.4932 35.4444 39.7419C35.4444 39.9907 35.6441 40.1935 35.8889 40.1935C36.1337 40.1935 36.3333 39.9907 36.3333 39.7419C36.3333 39.4932 36.1337 39.2903 35.8889 39.2903Z" fill="white"/>
</svg>
