<svg width="55" height="55" viewBox="0 0 55 55" fill="none" xmlns="http://www.w3.org/2000/svg">
<circle cx="27.5" cy="27.5" r="27.5" fill="#2D5EBB"/>
<path d="M13 14C11.9013 14 11 14.9097 11 16.0185V28.1294C11 29.2382 11.9013 30.1478 13 30.1478H14V34.3937L18.207 30.1478H33C34.0987 30.1478 35 29.2382 35 28.1294V16.0185C35 14.9097 34.0987 14 33 14H13ZM13 15.0092H33C33.5583 15.0092 34 15.455 34 16.0185V28.1294C34 28.6929 33.5583 29.1386 33 29.1386H17.793L15 31.9574V29.1386H13C12.4417 29.1386 12 28.6929 12 28.1294V16.0185C12 15.455 12.4417 15.0092 13 15.0092ZM14 16.5231C13.8674 16.5231 13.7402 16.5763 13.6464 16.6709C13.5527 16.7655 13.5 16.8939 13.5 17.0277C13.5 17.1616 13.5527 17.2899 13.6464 17.3845C13.7402 17.4792 13.8674 17.5323 14 17.5323C14.1326 17.5323 14.2598 17.4792 14.3536 17.3845C14.4473 17.2899 14.5 17.1616 14.5 17.0277C14.5 16.8939 14.4473 16.7655 14.3536 16.6709C14.2598 16.5763 14.1326 16.5231 14 16.5231ZM16 16.5231C15.8674 16.5231 15.7402 16.5763 15.6464 16.6709C15.5527 16.7655 15.5 16.8939 15.5 17.0277C15.5 17.1616 15.5527 17.2899 15.6464 17.3845C15.7402 17.4792 15.8674 17.5323 16 17.5323C16.1326 17.5323 16.2598 17.4792 16.3536 17.3845C16.4473 17.2899 16.5 17.1616 16.5 17.0277C16.5 16.8939 16.4473 16.7655 16.3536 16.6709C16.2598 16.5763 16.1326 16.5231 16 16.5231ZM18 16.5231C17.8674 16.5231 17.7402 16.5763 17.6464 16.6709C17.5527 16.7655 17.5 16.8939 17.5 17.0277C17.5 17.1616 17.5527 17.2899 17.6464 17.3845C17.7402 17.4792 17.8674 17.5323 18 17.5323C18.1326 17.5323 18.2598 17.4792 18.3536 17.3845C18.4473 17.2899 18.5 17.1616 18.5 17.0277C18.5 16.8939 18.4473 16.7655 18.3536 16.6709C18.2598 16.5763 18.1326 16.5231 18 16.5231ZM20 16.5231C19.8674 16.5231 19.7402 16.5763 19.6464 16.6709C19.5527 16.7655 19.5 16.8939 19.5 17.0277C19.5 17.1616 19.5527 17.2899 19.6464 17.3845C19.7402 17.4792 19.8674 17.5323 20 17.5323C20.1326 17.5323 20.2598 17.4792 20.3536 17.3845C20.4473 17.2899 20.5 17.1616 20.5 17.0277C20.5 16.8939 20.4473 16.7655 20.3536 16.6709C20.2598 16.5763 20.1326 16.5231 20 16.5231ZM22 16.5231C21.8674 16.5231 21.7402 16.5763 21.6464 16.6709C21.5527 16.7655 21.5 16.8939 21.5 17.0277C21.5 17.1616 21.5527 17.2899 21.6464 17.3845C21.7402 17.4792 21.8674 17.5323 22 17.5323C22.1326 17.5323 22.2598 17.4792 22.3536 17.3845C22.4473 17.2899 22.5 17.1616 22.5 17.0277C22.5 16.8939 22.4473 16.7655 22.3536 16.6709C22.2598 16.5763 22.1326 16.5231 22 16.5231ZM24 16.5231C23.8674 16.5231 23.7402 16.5763 23.6464 16.6709C23.5527 16.7655 23.5 16.8939 23.5 17.0277C23.5 17.1616 23.5527 17.2899 23.6464 17.3845C23.7402 17.4792 23.8674 17.5323 24 17.5323C24.1326 17.5323 24.2598 17.4792 24.3536 17.3845C24.4473 17.2899 24.5 17.1616 24.5 17.0277C24.5 16.8939 24.4473 16.7655 24.3536 16.6709C24.2598 16.5763 24.1326 16.5231 24 16.5231ZM26 16.5231C25.8674 16.5231 25.7402 16.5763 25.6464 16.6709C25.5527 16.7655 25.5 16.8939 25.5 17.0277C25.5 17.1616 25.5527 17.2899 25.6464 17.3845C25.7402 17.4792 25.8674 17.5323 26 17.5323C26.1326 17.5323 26.2598 17.4792 26.3536 17.3845C26.4473 17.2899 26.5 17.1616 26.5 17.0277C26.5 16.8939 26.4473 16.7655 26.3536 16.6709C26.2598 16.5763 26.1326 16.5231 26 16.5231ZM28 16.5231C27.8674 16.5231 27.7402 16.5763 27.6464 16.6709C27.5527 16.7655 27.5 16.8939 27.5 17.0277C27.5 17.1616 27.5527 17.2899 27.6464 17.3845C27.7402 17.4792 27.8674 17.5323 28 17.5323C28.1326 17.5323 28.2598 17.4792 28.3536 17.3845C28.4473 17.2899 28.5 17.1616 28.5 17.0277C28.5 16.8939 28.4473 16.7655 28.3536 16.6709C28.2598 16.5763 28.1326 16.5231 28 16.5231ZM30 16.5231C29.8674 16.5231 29.7402 16.5763 29.6464 16.6709C29.5527 16.7655 29.5 16.8939 29.5 17.0277C29.5 17.1616 29.5527 17.2899 29.6464 17.3845C29.7402 17.4792 29.8674 17.5323 30 17.5323C30.1326 17.5323 30.2598 17.4792 30.3536 17.3845C30.4473 17.2899 30.5 17.1616 30.5 17.0277C30.5 16.8939 30.4473 16.7655 30.3536 16.6709C30.2598 16.5763 30.1326 16.5231 30 16.5231ZM32 16.5231C31.8674 16.5231 31.7402 16.5763 31.6464 16.6709C31.5527 16.7655 31.5 16.8939 31.5 17.0277C31.5 17.1616 31.5527 17.2899 31.6464 17.3845C31.7402 17.4792 31.8674 17.5323 32 17.5323C32.1326 17.5323 32.2598 17.4792 32.3536 17.3845C32.4473 17.2899 32.5 17.1616 32.5 17.0277C32.5 16.8939 32.4473 16.7655 32.3536 16.6709C32.2598 16.5763 32.1326 16.5231 32 16.5231ZM14 18.5416C13.8674 18.5416 13.7402 18.5947 13.6464 18.6894C13.5527 18.784 13.5 18.9124 13.5 19.0462C13.5 19.18 13.5527 19.3084 13.6464 19.403C13.7402 19.4977 13.8674 19.5508 14 19.5508C14.1326 19.5508 14.2598 19.4977 14.3536 19.403C14.4473 19.3084 14.5 19.18 14.5 19.0462C14.5 18.9124 14.4473 18.784 14.3536 18.6894C14.2598 18.5947 14.1326 18.5416 14 18.5416ZM18 20.0554C17.9337 20.0545 17.868 20.0668 17.8065 20.0918C17.745 20.1167 17.689 20.1537 17.6418 20.2007C17.5947 20.2476 17.5572 20.3036 17.5316 20.3653C17.506 20.427 17.4929 20.4932 17.4929 20.5601C17.4929 20.6269 17.506 20.6931 17.5316 20.7548C17.5572 20.8165 17.5947 20.8725 17.6418 20.9194C17.689 20.9664 17.745 21.0034 17.8065 21.0283C17.868 21.0533 17.9337 21.0656 18 21.0647H30C30.0663 21.0656 30.132 21.0533 30.1935 21.0283C30.255 21.0034 30.311 20.9664 30.3582 20.9194C30.4053 20.8725 30.4428 20.8165 30.4684 20.7548C30.494 20.6931 30.5071 20.6269 30.5071 20.5601C30.5071 20.4932 30.494 20.427 30.4684 20.3653C30.4428 20.3036 30.4053 20.2476 30.3582 20.2007C30.311 20.1537 30.255 20.1167 30.1935 20.0918C30.132 20.0668 30.0663 20.0545 30 20.0554H18ZM14 20.5601C13.8674 20.5601 13.7402 20.6132 13.6464 20.7079C13.5527 20.8025 13.5 20.9308 13.5 21.0647C13.5 21.1985 13.5527 21.3269 13.6464 21.4215C13.7402 21.5161 13.8674 21.5693 14 21.5693C14.1326 21.5693 14.2598 21.5161 14.3536 21.4215C14.4473 21.3269 14.5 21.1985 14.5 21.0647C14.5 20.9308 14.4473 20.8025 14.3536 20.7079C14.2598 20.6132 14.1326 20.5601 14 20.5601ZM14 22.5785C13.8674 22.5785 13.7402 22.6317 13.6464 22.7263C13.5527 22.821 13.5 22.9493 13.5 23.0832C13.5 23.217 13.5527 23.3453 13.6464 23.44C13.7402 23.5346 13.8674 23.5878 14 23.5878C14.1326 23.5878 14.2598 23.5346 14.3536 23.44C14.4473 23.3453 14.5 23.217 14.5 23.0832C14.5 22.9493 14.4473 22.821 14.3536 22.7263C14.2598 22.6317 14.1326 22.5785 14 22.5785ZM18 22.5785C17.9337 22.5776 17.868 22.5899 17.8065 22.6149C17.745 22.6398 17.689 22.6768 17.6418 22.7238C17.5947 22.7707 17.5572 22.8267 17.5316 22.8884C17.506 22.9501 17.4929 23.0163 17.4929 23.0832C17.4929 23.15 17.506 23.2162 17.5316 23.2779C17.5572 23.3396 17.5947 23.3956 17.6418 23.4425C17.689 23.4895 17.745 23.5265 17.8065 23.5514C17.868 23.5764 17.9337 23.5887 18 23.5878H30C30.0663 23.5887 30.132 23.5764 30.1935 23.5514C30.255 23.5265 30.311 23.4895 30.3582 23.4425C30.4053 23.3956 30.4428 23.3396 30.4684 23.2779C30.494 23.2162 30.5071 23.15 30.5071 23.0832C30.5071 23.0163 30.494 22.9501 30.4684 22.8884C30.4428 22.8267 30.4053 22.7707 30.3582 22.7238C30.311 22.6768 30.255 22.6398 30.1935 22.6149C30.132 22.5899 30.0663 22.5776 30 22.5785H18ZM14 24.597C13.8674 24.597 13.7402 24.6502 13.6464 24.7448C13.5527 24.8395 13.5 24.9678 13.5 25.1016C13.5 25.2355 13.5527 25.3638 13.6464 25.4585C13.7402 25.5531 13.8674 25.6063 14 25.6063C14.1326 25.6063 14.2598 25.5531 14.3536 25.4585C14.4473 25.3638 14.5 25.2355 14.5 25.1016C14.5 24.9678 14.4473 24.8395 14.3536 24.7448C14.2598 24.6502 14.1326 24.597 14 24.597ZM18 25.1016C17.9337 25.1007 17.868 25.113 17.8065 25.138C17.745 25.1629 17.689 25.1999 17.6418 25.2469C17.5947 25.2938 17.5572 25.3498 17.5316 25.4115C17.506 25.4732 17.4929 25.5394 17.4929 25.6063C17.4929 25.6731 17.506 25.7393 17.5316 25.801C17.5572 25.8627 17.5947 25.9187 17.6418 25.9656C17.689 26.0126 17.745 26.0496 17.8065 26.0745C17.868 26.0995 17.9337 26.1118 18 26.1109H24.5C24.5663 26.1118 24.632 26.0995 24.6935 26.0745C24.755 26.0496 24.811 26.0126 24.8582 25.9656C24.9053 25.9187 24.9428 25.8627 24.9684 25.801C24.994 25.7393 25.0071 25.6731 25.0071 25.6063C25.0071 25.5394 24.994 25.4732 24.9684 25.4115C24.9428 25.3498 24.9053 25.2938 24.8582 25.2469C24.811 25.1999 24.755 25.1629 24.6935 25.138C24.632 25.113 24.5663 25.1007 24.5 25.1016H18ZM36 25.6063V26.6155H41C41.5583 26.6155 42 27.0612 42 27.6247V39.7356C42 40.2991 41.5583 40.7449 41 40.7449H39V43.5636L36.207 40.7449H21C20.4417 40.7449 20 40.2991 20 39.7356V31.1571H19V39.7356C19 40.8444 19.9013 41.7541 21 41.7541H35.793L40 46V41.7541H41C42.0987 41.7541 43 40.8444 43 39.7356V27.6247C43 26.5159 42.0987 25.6063 41 25.6063H36ZM14 26.6155C13.8674 26.6155 13.7402 26.6687 13.6464 26.7633C13.5527 26.8579 13.5 26.9863 13.5 27.1201C13.5 27.254 13.5527 27.3823 13.6464 27.4769C13.7402 27.5716 13.8674 27.6247 14 27.6247C14.1326 27.6247 14.2598 27.5716 14.3536 27.4769C14.4473 27.3823 14.5 27.254 14.5 27.1201C14.5 26.9863 14.4473 26.8579 14.3536 26.7633C14.2598 26.6687 14.1326 26.6155 14 26.6155ZM38 28.1294C37.8674 28.1294 37.7402 28.1825 37.6464 28.2772C37.5527 28.3718 37.5 28.5001 37.5 28.634C37.5 28.7678 37.5527 28.8962 37.6464 28.9908C37.7402 29.0854 37.8674 29.1386 38 29.1386C38.1326 29.1386 38.2598 29.0854 38.3536 28.9908C38.4473 28.8962 38.5 28.7678 38.5 28.634C38.5 28.5001 38.4473 28.3718 38.3536 28.2772C38.2598 28.1825 38.1326 28.1294 38 28.1294ZM40 28.1294C39.8674 28.1294 39.7402 28.1825 39.6464 28.2772C39.5527 28.3718 39.5 28.5001 39.5 28.634C39.5 28.7678 39.5527 28.8962 39.6464 28.9908C39.7402 29.0854 39.8674 29.1386 40 29.1386C40.1326 29.1386 40.2598 29.0854 40.3536 28.9908C40.4473 28.8962 40.5 28.7678 40.5 28.634C40.5 28.5001 40.4473 28.3718 40.3536 28.2772C40.2598 28.1825 40.1326 28.1294 40 28.1294ZM22 32.1663C21.8674 32.1663 21.7402 32.2195 21.6464 32.3141C21.5527 32.4088 21.5 32.5371 21.5 32.6709C21.5 32.8048 21.5527 32.9331 21.6464 33.0278C21.7402 33.1224 21.8674 33.1756 22 33.1756C22.1326 33.1756 22.2598 33.1224 22.3536 33.0278C22.4473 32.9331 22.5 32.8048 22.5 32.6709C22.5 32.5371 22.4473 32.4088 22.3536 32.3141C22.2598 32.2195 22.1326 32.1663 22 32.1663ZM26 32.1663C25.9337 32.1654 25.868 32.1777 25.8065 32.2027C25.745 32.2276 25.689 32.2646 25.6418 32.3116C25.5947 32.3585 25.5572 32.4145 25.5316 32.4762C25.506 32.5379 25.4929 32.6041 25.4929 32.6709C25.4929 32.7378 25.506 32.804 25.5316 32.8657C25.5572 32.9274 25.5947 32.9834 25.6418 33.0303C25.689 33.0773 25.745 33.1143 25.8065 33.1392C25.868 33.1642 25.9337 33.1765 26 33.1756H38C38.0663 33.1765 38.132 33.1642 38.1935 33.1392C38.255 33.1143 38.311 33.0773 38.3582 33.0303C38.4053 32.9834 38.4428 32.9274 38.4684 32.8657C38.494 32.804 38.5071 32.7378 38.5071 32.6709C38.5071 32.6041 38.494 32.5379 38.4684 32.4762C38.4428 32.4145 38.4053 32.3585 38.3582 32.3116C38.311 32.2646 38.255 32.2276 38.1935 32.2027C38.132 32.1777 38.0663 32.1654 38 32.1663H26ZM22 34.1848C21.8674 34.1848 21.7402 34.238 21.6464 34.3326C21.5527 34.4272 21.5 34.5556 21.5 34.6894C21.5 34.8233 21.5527 34.9516 21.6464 35.0462C21.7402 35.1409 21.8674 35.194 22 35.194C22.1326 35.194 22.2598 35.1409 22.3536 35.0462C22.4473 34.9516 22.5 34.8233 22.5 34.6894C22.5 34.5556 22.4473 34.4272 22.3536 34.3326C22.2598 34.238 22.1326 34.1848 22 34.1848ZM26 34.6894C25.9337 34.6885 25.868 34.7008 25.8065 34.7258C25.745 34.7507 25.689 34.7877 25.6418 34.8347C25.5947 34.8816 25.5572 34.9376 25.5316 34.9993C25.506 35.061 25.4929 35.1272 25.4929 35.194C25.4929 35.2609 25.506 35.3271 25.5316 35.3888C25.5572 35.4505 25.5947 35.5065 25.6418 35.5534C25.689 35.6004 25.745 35.6374 25.8065 35.6623C25.868 35.6873 25.9337 35.6996 26 35.6987H38C38.0663 35.6996 38.132 35.6873 38.1935 35.6623C38.255 35.6374 38.311 35.6004 38.3582 35.5534C38.4053 35.5065 38.4428 35.4505 38.4684 35.3888C38.494 35.3271 38.5071 35.2609 38.5071 35.194C38.5071 35.1272 38.494 35.061 38.4684 34.9993C38.4428 34.9376 38.4053 34.8816 38.3582 34.8347C38.311 34.7877 38.255 34.7507 38.1935 34.7258C38.132 34.7008 38.0663 34.6885 38 34.6894H26ZM22 36.2033C21.8674 36.2033 21.7402 36.2564 21.6464 36.3511C21.5527 36.4457 21.5 36.5741 21.5 36.7079C21.5 36.8417 21.5527 36.9701 21.6464 37.0647C21.7402 37.1594 21.8674 37.2125 22 37.2125C22.1326 37.2125 22.2598 37.1594 22.3536 37.0647C22.4473 36.9701 22.5 36.8417 22.5 36.7079C22.5 36.5741 22.4473 36.4457 22.3536 36.3511C22.2598 36.2564 22.1326 36.2033 22 36.2033ZM26 37.2125C25.9337 37.2116 25.868 37.2239 25.8065 37.2489C25.745 37.2738 25.689 37.3108 25.6418 37.3578C25.5947 37.4047 25.5572 37.4607 25.5316 37.5224C25.506 37.5841 25.4929 37.6503 25.4929 37.7171C25.4929 37.784 25.506 37.8502 25.5316 37.9119C25.5572 37.9736 25.5947 38.0296 25.6418 38.0765C25.689 38.1235 25.745 38.1605 25.8065 38.1854C25.868 38.2104 25.9337 38.2227 26 38.2218H32.5C32.5663 38.2227 32.632 38.2104 32.6935 38.1854C32.755 38.1605 32.811 38.1235 32.8582 38.0765C32.9053 38.0296 32.9428 37.9736 32.9684 37.9119C32.994 37.8502 33.0071 37.784 33.0071 37.7171C33.0071 37.6503 32.994 37.5841 32.9684 37.5224C32.9428 37.4607 32.9053 37.4047 32.8582 37.3578C32.811 37.3108 32.755 37.2738 32.6935 37.2489C32.632 37.2239 32.5663 37.2116 32.5 37.2125H26ZM22 38.2218C21.8674 38.2218 21.7402 38.2749 21.6464 38.3696C21.5527 38.4642 21.5 38.5925 21.5 38.7264C21.5 38.8602 21.5527 38.9886 21.6464 39.0832C21.7402 39.1778 21.8674 39.231 22 39.231C22.1326 39.231 22.2598 39.1778 22.3536 39.0832C22.4473 38.9886 22.5 38.8602 22.5 38.7264C22.5 38.5925 22.4473 38.4642 22.3536 38.3696C22.2598 38.2749 22.1326 38.2218 22 38.2218Z" fill="white"/>
</svg>
