<svg width="55" height="55" viewBox="0 0 55 55" fill="none" xmlns="http://www.w3.org/2000/svg">
<circle cx="27.5" cy="27.5" r="27.5" fill="#2D5EBB"/>
<path d="M25.3384 13C24.5036 13.0098 23.6846 13.0825 22.885 13.2131C22.8272 13.221 22.7717 13.2398 22.7217 13.2684C22.6717 13.297 22.6283 13.3348 22.594 13.3796C22.5596 13.4244 22.5351 13.4753 22.5218 13.5293C22.5085 13.5833 22.5068 13.6393 22.5166 13.6939C22.5265 13.7485 22.5478 13.8007 22.5792 13.8474C22.6107 13.8941 22.6517 13.9344 22.6997 13.9657C22.7478 13.9971 22.802 14.0191 22.8592 14.0302C22.9164 14.0414 22.9753 14.0415 23.0325 14.0307C23.7872 13.9074 24.5609 13.839 25.3495 13.8297H25.4663C29.5658 13.8297 33.3621 15.3799 36.179 18.2019C36.2185 18.2414 36.2657 18.2732 36.3181 18.2953C36.3705 18.3175 36.427 18.3297 36.4843 18.3311C36.5417 18.3325 36.5987 18.3232 36.6523 18.3037C36.7058 18.2841 36.7548 18.2548 36.7964 18.2173C36.838 18.1798 36.8714 18.1349 36.8948 18.0851C36.9181 18.0353 36.9309 17.9816 36.9324 17.9272C36.9339 17.8727 36.9241 17.8185 36.9035 17.7676C36.883 17.7167 36.8521 17.6702 36.8126 17.6307C33.8355 14.648 29.7981 13 25.4663 13H25.3418H25.3384ZM19.5045 14.1862C19.4467 14.1854 19.3892 14.1956 19.3355 14.2161C19.2818 14.2366 19.233 14.267 19.1918 14.3056C19.1506 14.3442 19.1178 14.3902 19.0955 14.441C19.0732 14.4917 19.0617 14.5461 19.0617 14.6011C19.0617 14.6561 19.0732 14.7105 19.0955 14.7612C19.1178 14.8119 19.1506 14.8579 19.1918 14.8965C19.233 14.9351 19.2818 14.9656 19.3355 14.9861C19.3892 15.0066 19.4467 15.0167 19.5045 15.0159C19.5624 15.0167 19.6198 15.0066 19.6735 14.9861C19.7272 14.9656 19.7761 14.9351 19.8173 14.8965C19.8585 14.8579 19.8912 14.8119 19.9135 14.7612C19.9359 14.7105 19.9474 14.6561 19.9474 14.6011C19.9474 14.5461 19.9359 14.4917 19.9135 14.441C19.8912 14.3902 19.8585 14.3442 19.8173 14.3056C19.7761 14.267 19.7272 14.2366 19.6735 14.2161C19.6198 14.1956 19.5624 14.1854 19.5045 14.1862ZM18.1853 14.8134L17.8356 14.9795L17.7666 15.3457L18.0335 15.6172L18.1853 15.6431L18.5349 15.4762L18.604 15.1107L18.3362 14.8393L18.1853 14.8134ZM25.3657 15.0743C22.8196 15.1043 20.4351 15.8134 18.4079 17.0165C18.3579 17.0447 18.3143 17.0822 18.2798 17.1267C18.2453 17.1711 18.2205 17.2217 18.2068 17.2754C18.1931 17.3291 18.1908 17.3849 18.2002 17.4394C18.2095 17.494 18.2302 17.5462 18.261 17.593C18.2918 17.6399 18.3322 17.6804 18.3798 17.7122C18.4273 17.744 18.4811 17.7665 18.5379 17.7783C18.5947 17.7901 18.6534 17.791 18.7106 17.781C18.7678 17.7709 18.8223 17.7501 18.8709 17.7198C20.7681 16.5939 22.9943 15.9321 25.3768 15.904H25.4663C26.5893 15.904 27.683 16.0405 28.7308 16.3043C28.8427 16.3325 28.9619 16.3174 29.0621 16.2621C29.1623 16.2069 29.2353 16.1161 29.265 16.0097C29.2948 15.9034 29.2788 15.7901 29.2207 15.6949C29.1626 15.5997 29.067 15.5304 28.9551 15.5021C27.8337 15.2199 26.6636 15.0743 25.4663 15.0743H25.3683H25.3657ZM16.9257 15.5434L16.5761 15.7103L16.507 16.0758L16.7739 16.3472L16.9257 16.3731L17.2754 16.207L17.3444 15.8408L17.0775 15.5693L16.9257 15.5434ZM31.0009 16.2338L30.6512 16.4007L30.5822 16.7661L30.8499 17.0375L31.0009 17.0635L31.3505 16.8974L31.4196 16.5311L31.1527 16.2597L31.0009 16.2338ZM15.7506 16.3926C15.6927 16.3918 15.6353 16.402 15.5816 16.4225C15.5279 16.443 15.479 16.4734 15.4378 16.512C15.3966 16.5506 15.3639 16.5966 15.3416 16.6473C15.3192 16.698 15.3077 16.7524 15.3077 16.8074C15.3077 16.8624 15.3192 16.9168 15.3416 16.9676C15.3639 17.0183 15.3966 17.0643 15.4378 17.1029C15.479 17.1415 15.5279 17.1719 15.5816 17.1924C15.6353 17.2129 15.6927 17.2231 15.7506 17.2223C15.8084 17.2231 15.8659 17.2129 15.9196 17.1924C15.9733 17.1719 16.0221 17.1415 16.0633 17.1029C16.1045 17.0643 16.1373 17.0183 16.1596 16.9676C16.1819 16.9168 16.1934 16.8624 16.1934 16.8074C16.1934 16.7524 16.1819 16.698 16.1596 16.6473C16.1373 16.5966 16.1045 16.5506 16.0633 16.512C16.0221 16.4734 15.9733 16.443 15.9196 16.4225C15.8659 16.402 15.8084 16.3918 15.7506 16.3926ZM32.5257 17.0408L32.176 17.2069L32.1069 17.5731L32.3747 17.8446L32.5257 17.8705L32.8753 17.7036L32.9444 17.3382L32.6775 17.0667L32.5257 17.0408ZM25.393 17.1485C20.3071 17.2085 16.0016 20.4923 14.6351 24.9295C14.619 24.9818 14.6139 25.0366 14.62 25.0908C14.6262 25.145 14.6435 25.1975 14.671 25.2453C14.6986 25.2931 14.7357 25.3353 14.7804 25.3695C14.8251 25.4037 14.8764 25.4292 14.9315 25.4445C14.9865 25.4598 15.0442 25.4647 15.1012 25.4588C15.1583 25.453 15.2135 25.4365 15.2638 25.4103C15.3142 25.3842 15.3586 25.3489 15.3945 25.3064C15.4305 25.2639 15.4573 25.2152 15.4734 25.1629C16.7334 21.0714 20.7064 18.0347 25.4015 17.9783C27.0977 17.9671 28.7212 18.3309 30.1805 19.0373C30.2318 19.0638 30.2881 19.0804 30.3462 19.0859C30.4042 19.0914 30.4629 19.0858 30.5187 19.0694C30.5744 19.053 30.6262 19.0262 30.6708 18.9905C30.7155 18.9548 30.7521 18.9109 30.7787 18.8615C30.8052 18.8121 30.821 18.7581 30.8252 18.7028C30.8294 18.6475 30.8218 18.592 30.8031 18.5395C30.7843 18.4869 30.7546 18.4386 30.7158 18.3971C30.6769 18.3557 30.6298 18.3221 30.5771 18.2983C28.9922 17.5312 27.2273 17.1365 25.3955 17.1485H25.3947H25.393ZM33.9217 18.0358L33.572 18.2019L33.503 18.5681L33.7707 18.8396L33.9217 18.8655L34.2713 18.6986L34.3404 18.3332L34.0735 18.0617L33.9217 18.0358ZM35.1659 19.1985L34.8162 19.3646L34.7472 19.7309L35.0141 20.0023L35.1659 20.0282L35.5155 19.8613L35.5846 19.4959L35.3177 19.2236L35.1659 19.1985ZM25.4203 19.2228C23.147 19.2498 21.0665 20.068 19.4772 21.4C19.4326 21.4356 19.3959 21.4793 19.3693 21.5285C19.3428 21.5777 19.3268 21.6315 19.3224 21.6867C19.3181 21.7419 19.3253 21.7974 19.3439 21.8498C19.3624 21.9023 19.3918 21.9507 19.4303 21.9922C19.4688 22.0338 19.5157 22.0675 19.5681 22.0916C19.6206 22.1156 19.6776 22.1294 19.7358 22.1322C19.7939 22.135 19.8521 22.1268 19.9069 22.1079C19.9616 22.089 20.0118 22.0599 20.0546 22.0223C21.4937 20.8162 23.3707 20.077 25.4305 20.0525C30.3447 19.9946 34.1245 24.0962 33.8023 28.7734C33.7947 28.8832 33.8333 28.9914 33.9097 29.0741C33.9861 29.1569 34.0939 29.2074 34.2095 29.2146C34.3251 29.2218 34.4389 29.1851 34.526 29.1125C34.6131 29.0399 34.6662 28.9375 34.6738 28.8277C35.0275 23.6953 30.8515 19.1588 25.4203 19.2228ZM15.0718 20.076C15.0008 20.074 14.9304 20.0884 14.8667 20.1181C14.8029 20.1477 14.7478 20.1917 14.7059 20.2462C13.0088 22.3956 12 25.0622 12 27.934V29.1785C11.9992 29.2335 12.0099 29.2881 12.0315 29.3391C12.0531 29.3901 12.0851 29.4365 12.1257 29.4757C12.1663 29.5148 12.2148 29.5459 12.2681 29.5671C12.3215 29.5884 12.3788 29.5993 12.4367 29.5993C12.4945 29.5993 12.5518 29.5884 12.6052 29.5671C12.6586 29.5459 12.707 29.5148 12.7476 29.4757C12.7882 29.4365 12.8203 29.3901 12.8418 29.3391C12.8634 29.2881 12.8741 29.2335 12.8733 29.1785V27.934C12.8733 25.2467 13.8163 22.7569 15.4052 20.7445C15.4545 20.6839 15.4852 20.6115 15.4938 20.5354C15.5025 20.4592 15.4888 20.3823 15.4543 20.3131C15.4198 20.2439 15.3658 20.1851 15.2983 20.1432C15.2307 20.1014 15.1523 20.0781 15.0718 20.076ZM33.335 20.3515C33.2482 20.3494 33.1627 20.3719 33.0895 20.4162C33.0162 20.4605 32.9585 20.5245 32.9237 20.6001C32.889 20.6756 32.8787 20.7593 32.8942 20.8405C32.9097 20.9216 32.9504 20.9965 33.0109 21.0556C35.0963 23.1447 36.1802 26.0092 35.9803 28.9087V28.9095C35.9629 29.1648 35.9385 29.4206 35.9078 29.6777C35.8993 29.7327 35.9026 29.7887 35.9174 29.8425C35.9322 29.8963 35.9582 29.9467 35.9939 29.9907C36.0296 30.0348 36.0742 30.0715 36.1251 30.0989C36.1761 30.1262 36.2323 30.1435 36.2904 30.1498C36.3485 30.1561 36.4074 30.1513 36.4635 30.1356C36.5196 30.1198 36.5718 30.0935 36.617 30.0583C36.6622 30.023 36.6995 29.9794 36.7267 29.9302C36.7538 29.881 36.7703 29.827 36.7751 29.7716C36.8072 29.5026 36.8334 29.233 36.8518 28.963C37.0676 25.833 35.9 22.7447 33.6445 20.4852C33.6049 20.4444 33.5572 20.4115 33.504 20.3886C33.4508 20.3656 33.3933 20.353 33.335 20.3515ZM36.2438 20.5022L35.8933 20.6683L35.8251 21.0346L36.092 21.306L36.2438 21.3319L36.5934 21.165L36.6625 20.7996L36.3947 20.5282L36.2438 20.5022ZM25.5354 21.2963C21.6824 21.2963 18.5494 24.2731 18.5494 27.934C18.5486 27.9889 18.5593 28.0435 18.5809 28.0945C18.6024 28.1455 18.6345 28.192 18.6751 28.2311C18.7157 28.2703 18.7641 28.3014 18.8175 28.3226C18.8709 28.3438 18.9282 28.3547 18.986 28.3547C19.0439 28.3547 19.1012 28.3438 19.1546 28.3226C19.2079 28.3014 19.2564 28.2703 19.297 28.2311C19.3376 28.192 19.3696 28.1455 19.3912 28.0945C19.4128 28.0435 19.4235 27.9889 19.4227 27.934C19.4227 24.7215 22.1544 22.126 25.5354 22.126C28.1018 22.126 30.293 23.6251 31.2013 25.7487C31.2216 25.8008 31.2528 25.8486 31.2929 25.8891C31.333 25.9295 31.3813 25.962 31.4348 25.9844C31.4884 26.0068 31.5461 26.0187 31.6047 26.0195C31.6632 26.0203 31.7213 26.0099 31.7755 25.9889C31.8297 25.968 31.8789 25.9368 31.9202 25.8974C31.9615 25.858 31.994 25.8112 32.0159 25.7596C32.0378 25.708 32.0485 25.6528 32.0474 25.5972C32.0463 25.5416 32.0335 25.4867 32.0097 25.4359C30.9707 23.0069 28.46 21.2963 25.5354 21.2963ZM37.4496 22.5781C37.3776 22.5802 37.3073 22.5992 37.2448 22.6334C37.1824 22.6675 37.1299 22.7159 37.0919 22.774C37.0539 22.8322 37.0316 22.8984 37.0271 22.9667C37.0226 23.035 37.0359 23.1033 37.0659 23.1656C37.9124 24.9931 38.2994 27.0116 38.1591 29.044C38.1033 29.8538 37.988 30.6674 37.8138 31.4772C37.8006 31.5312 37.7989 31.5872 37.8088 31.6418C37.8187 31.6964 37.8401 31.7486 37.8716 31.7952C37.9031 31.8419 37.9441 31.882 37.9922 31.9134C38.0403 31.9447 38.0945 31.9666 38.1517 31.9777C38.2088 31.9888 38.2677 31.9889 38.3249 31.978C38.3821 31.9671 38.4364 31.9454 38.4846 31.9143C38.5329 31.8831 38.574 31.8431 38.6057 31.7965C38.6374 31.75 38.659 31.6979 38.6691 31.6434C38.8512 30.7971 38.9713 29.9462 39.0298 29.0983C39.1795 26.9307 38.7675 24.7794 37.8649 22.8309C37.8306 22.7539 37.7726 22.6886 37.6984 22.6435C37.6243 22.5984 37.5376 22.5756 37.4496 22.5781ZM17.9823 23.3649C17.9039 23.3641 17.8268 23.3835 17.7589 23.4208C17.6911 23.4582 17.6351 23.5122 17.5969 23.5772C16.8148 24.8595 16.3663 26.3492 16.3663 27.934V29.1785C16.3655 29.2335 16.3762 29.2881 16.3977 29.3391C16.4193 29.3901 16.4513 29.4365 16.492 29.4757C16.5326 29.5148 16.581 29.5459 16.6344 29.5671C16.6878 29.5884 16.7451 29.5993 16.8029 29.5993C16.8608 29.5993 16.9181 29.5884 16.9714 29.5671C17.0248 29.5459 17.0732 29.5148 17.1139 29.4757C17.1545 29.4365 17.1865 29.3901 17.2081 29.3391C17.2297 29.2881 17.2404 29.2335 17.2395 29.1785V27.934C17.2395 26.4978 17.6447 25.1532 18.3524 23.9928C18.3919 23.9302 18.4133 23.8588 18.4144 23.7857C18.4155 23.7127 18.3963 23.6407 18.3587 23.577C18.3212 23.5133 18.2666 23.4602 18.2005 23.4229C18.1344 23.3857 18.0592 23.3657 17.9823 23.3649ZM25.5354 23.3706C25.4775 23.3698 25.4201 23.3799 25.3664 23.4004C25.3127 23.4209 25.2639 23.4514 25.2227 23.49C25.1814 23.5286 25.1487 23.5746 25.1264 23.6253C25.1041 23.676 25.0926 23.7304 25.0926 23.7854C25.0926 23.8404 25.1041 23.8948 25.1264 23.9455C25.1487 23.9963 25.1814 24.0423 25.2227 24.0809C25.2639 24.1195 25.3127 24.1499 25.3664 24.1704C25.4201 24.1909 25.4775 24.201 25.5354 24.2003C27.7104 24.2003 29.465 25.8674 29.465 27.934C29.465 28.9131 29.2192 30.3774 28.5312 31.9213C28.5077 31.9716 28.4949 32.0259 28.4937 32.081C28.4925 32.1361 28.5028 32.1909 28.5241 32.2422C28.5454 32.2934 28.5773 32.3401 28.6178 32.3796C28.6583 32.419 28.7067 32.4504 28.7601 32.4719C28.8135 32.4933 28.8709 32.5045 28.9289 32.5046C28.9869 32.5048 29.0444 32.494 29.0979 32.4728C29.1515 32.4517 29.2001 32.4206 29.2408 32.3814C29.2816 32.3422 29.3138 32.2957 29.3354 32.2446C30.0709 30.5941 30.3383 29.0424 30.3383 27.934C30.3383 25.4189 28.1825 23.3706 25.5354 23.3706ZM23.3523 23.9256C23.2944 23.9248 23.237 23.935 23.1833 23.9555C23.1296 23.976 23.0807 24.0064 23.0395 24.045C22.9983 24.0836 22.9656 24.1296 22.9433 24.1803C22.9209 24.231 22.9094 24.2855 22.9094 24.3404C22.9094 24.3954 22.9209 24.4499 22.9433 24.5006C22.9656 24.5513 22.9983 24.5973 23.0395 24.6359C23.0807 24.6745 23.1296 24.7049 23.1833 24.7254C23.237 24.7459 23.2944 24.7561 23.3523 24.7553C23.4101 24.7561 23.4676 24.7459 23.5213 24.7254C23.575 24.7049 23.6238 24.6745 23.665 24.6359C23.7062 24.5973 23.739 24.5513 23.7613 24.5006C23.7836 24.4499 23.7951 24.3954 23.7951 24.3404C23.7951 24.2855 23.7836 24.231 23.7613 24.1803C23.739 24.1296 23.7062 24.0836 23.665 24.045C23.6238 24.0064 23.575 23.976 23.5213 23.9555C23.4676 23.935 23.4101 23.9248 23.3523 23.9256ZM22.0961 24.9676L21.7465 25.1345L21.6774 25.5007L21.9452 25.7722L22.0961 25.7973L22.4466 25.6312L22.5149 25.265L22.2479 24.9935L22.0961 24.9676ZM25.5354 25.4327C24.0968 25.4327 22.9157 26.5412 22.9157 27.9113C22.9148 27.9662 22.9255 28.0208 22.9471 28.0718C22.9687 28.1229 23.0007 28.1693 23.0413 28.2084C23.082 28.2476 23.1304 28.2787 23.1838 28.2999C23.2371 28.3211 23.2944 28.332 23.3523 28.332C23.4101 28.332 23.4674 28.3211 23.5208 28.2999C23.5742 28.2787 23.6226 28.2476 23.6632 28.2084C23.7039 28.1693 23.7359 28.1229 23.7575 28.0718C23.779 28.0208 23.7897 27.9662 23.7889 27.9113C23.7889 26.9896 24.563 26.2624 25.5354 26.2624C26.5024 26.2624 27.2819 27.0127 27.2819 27.934C27.2819 27.883 27.2791 28.1946 27.2154 28.6316C27.1517 29.0686 27.0274 29.6787 26.7873 30.3745C26.307 31.766 25.3677 33.4933 23.5169 34.8957C23.4694 34.9288 23.4295 34.9706 23.3994 35.0187C23.3694 35.0668 23.3499 35.1201 23.3422 35.1756C23.3344 35.231 23.3385 35.2873 23.3542 35.3412C23.3699 35.3951 23.3969 35.4454 23.4336 35.4891C23.4703 35.5328 23.5159 35.569 23.5677 35.5955C23.6195 35.6221 23.6764 35.6384 23.735 35.6435C23.7936 35.6487 23.8526 35.6425 23.9087 35.6254C23.9647 35.6083 24.0165 35.5806 24.0609 35.544C26.0725 34.0196 27.0981 32.1364 27.617 30.633C27.8765 29.8812 28.0105 29.223 28.0801 28.745C28.1497 28.2671 28.1552 28.0177 28.1552 27.934C28.1552 26.5644 26.9803 25.4327 25.5354 25.4327ZM21.3431 26.3791L20.9926 26.546L20.9244 26.9114L21.1913 27.1828L21.3431 27.2088L21.6928 27.0419L21.7618 26.6764L21.4941 26.405L21.3431 26.3791ZM14.613 27.5134C14.4973 27.5152 14.3871 27.5604 14.3065 27.6392C14.2259 27.7181 14.1816 27.8241 14.1832 27.934V29.1785C14.1823 29.2335 14.193 29.2881 14.2146 29.3391C14.2362 29.3901 14.2682 29.4365 14.3088 29.4757C14.3495 29.5148 14.3979 29.5459 14.4513 29.5671C14.5046 29.5884 14.5619 29.5993 14.6198 29.5993C14.6777 29.5993 14.7349 29.5884 14.7883 29.5671C14.8417 29.5459 14.8901 29.5148 14.9307 29.4757C14.9714 29.4365 15.0034 29.3901 15.025 29.3391C15.0465 29.2881 15.0572 29.2335 15.0564 29.1785V27.934C15.0572 27.8785 15.0463 27.8234 15.0243 27.772C15.0023 27.7205 14.9696 27.6738 14.9283 27.6346C14.8869 27.5954 14.8377 27.5645 14.7835 27.5437C14.7294 27.5228 14.6714 27.5126 14.613 27.5134ZM25.5286 27.5134C25.4129 27.5152 25.3027 27.5604 25.2221 27.6392C25.1416 27.7181 25.0972 27.8241 25.0988 27.934C25.0988 27.934 25.0989 29.6423 23.8989 31.4359C22.6989 33.2296 20.3288 35.1084 15.366 35.3714C15.3075 35.3727 15.2499 35.3852 15.1966 35.4081C15.1432 35.431 15.0953 35.4639 15.0556 35.5047C15.0159 35.5455 14.9853 35.5935 14.9655 35.6459C14.9457 35.6982 14.9372 35.7537 14.9405 35.8093C14.9437 35.8648 14.9587 35.9191 14.9845 35.969C15.0103 36.0189 15.0463 36.0633 15.0906 36.0997C15.1348 36.1361 15.1863 36.1637 15.2419 36.1809C15.2976 36.198 15.3563 36.2043 15.4146 36.1995C20.5972 35.9248 23.2994 33.8783 24.6357 31.8808C25.9721 29.8833 25.972 27.934 25.972 27.934C25.9728 27.8785 25.9619 27.8234 25.9399 27.772C25.9179 27.7205 25.8852 27.6738 25.8439 27.6346C25.8025 27.5954 25.7533 27.5645 25.6992 27.5437C25.645 27.5228 25.587 27.5126 25.5286 27.5134ZM32.078 27.5134C31.9623 27.5152 31.8521 27.5604 31.7715 27.6392C31.6909 27.7181 31.6466 27.8241 31.6481 27.934C31.6481 29.6651 31.1807 31.6859 30.1336 33.6277C29.737 34.3632 29.9693 35.2873 30.7118 35.7409C30.802 35.796 30.8919 35.8495 30.9804 35.9021C31.029 35.9335 31.0838 35.9553 31.1415 35.9661C31.1991 35.9769 31.2585 35.9765 31.316 35.965C31.3735 35.9535 31.428 35.931 31.4762 35.899C31.5244 35.867 31.5652 35.8261 31.5964 35.7788C31.6275 35.7314 31.6482 35.6785 31.6574 35.6234C31.6665 35.5682 31.6638 35.5118 31.6494 35.4577C31.6351 35.4035 31.6094 35.3527 31.5738 35.3082C31.5383 35.2637 31.4937 35.2265 31.4426 35.1988C31.3565 35.1477 31.2704 35.0959 31.1842 35.0432C30.8234 34.823 30.709 34.3797 30.9105 34.0061C32.0212 31.9462 32.5214 29.8062 32.5214 27.934C32.5222 27.8785 32.5113 27.8234 32.4893 27.772C32.4672 27.7205 32.4346 27.6738 32.3932 27.6346C32.3519 27.5954 32.3027 27.5645 32.2485 27.5437C32.1944 27.5228 32.1364 27.5126 32.078 27.5134ZM21.1129 27.9526L20.7632 28.1187L20.6942 28.4849L20.9611 28.7564L21.1129 28.7823L21.4625 28.6154L21.5316 28.2492L21.2638 27.9777L21.1129 27.9526ZM22.9464 29.1737C22.8606 29.1764 22.7776 29.203 22.7077 29.2503C22.6377 29.2975 22.584 29.3633 22.5532 29.4394C21.9105 30.9644 20.2008 33.0906 15.0368 33.3092C14.9791 33.3111 14.9223 33.3238 14.8697 33.3466C14.8172 33.3694 14.77 33.4019 14.7307 33.4422C14.6915 33.4825 14.6611 33.5298 14.6413 33.5814C14.6214 33.6329 14.6125 33.6877 14.6151 33.7426C14.6177 33.7974 14.6318 33.8512 14.6564 33.9008C14.681 33.9505 14.7158 33.995 14.7586 34.0318C14.8015 34.0686 14.8516 34.0969 14.9061 34.1152C14.9606 34.1334 15.0184 34.1413 15.076 34.1382C20.4914 33.9088 22.6176 31.5196 23.3642 29.7481C23.3924 29.684 23.4032 29.6141 23.3955 29.545C23.3879 29.4758 23.3621 29.4096 23.3205 29.3524C23.2789 29.2952 23.2228 29.2489 23.1574 29.2177C23.0921 29.1864 23.0195 29.1713 22.9464 29.1737ZM20.3872 29.3673L20.0375 29.5334L19.9684 29.8997L20.2354 30.1711L20.3872 30.197L20.7368 30.0301L20.8059 29.6647L20.539 29.3932L20.3872 29.3673ZM19.0739 30.3404L18.7242 30.5074L18.6552 30.8728L18.9221 31.1442L19.0739 31.1702L19.4235 31.0041L19.4926 30.6378L19.2257 30.3664L19.0739 30.3404ZM17.5107 30.9044L17.1602 31.0713L17.092 31.4375L17.3589 31.709L17.5107 31.7341L17.8604 31.568L17.9294 31.2018L17.6617 30.9303L17.5107 30.9044ZM33.7349 31.1394C33.6417 31.1444 33.5526 31.1778 33.4807 31.2345C33.4089 31.2912 33.3581 31.3684 33.3358 31.4546C33.2335 31.8242 33.1154 32.1921 32.9819 32.5581C32.9631 32.6096 32.9551 32.6642 32.9585 32.7186C32.9618 32.773 32.9764 32.8263 33.0015 32.8753C33.0265 32.9244 33.0614 32.9683 33.1043 33.0045C33.1472 33.0408 33.1972 33.0686 33.2514 33.0865C33.3056 33.1044 33.363 33.1119 33.4202 33.1087C33.4775 33.1055 33.5336 33.0916 33.5852 33.0679C33.6368 33.0441 33.683 33.0109 33.7212 32.9701C33.7593 32.9294 33.7886 32.8819 33.8074 32.8304C33.9481 32.4447 34.0728 32.0556 34.1809 31.6652C34.1986 31.605 34.2017 31.5417 34.19 31.4802C34.1783 31.4187 34.1521 31.3604 34.1134 31.3099C34.0747 31.2593 34.0245 31.2177 33.9664 31.1882C33.9084 31.1586 33.8442 31.142 33.7784 31.1394C33.7639 31.1387 33.7494 31.1387 33.7349 31.1394ZM15.8597 31.1774L15.5092 31.3436L15.441 31.7098L15.7079 31.9812L15.8597 32.0072L16.2094 31.8402L16.2785 31.474L16.0107 31.2026L15.8597 31.1774ZM14.1832 31.2528C14.1253 31.252 14.0679 31.2622 14.0142 31.2827C13.9605 31.3032 13.9116 31.3336 13.8704 31.3722C13.8292 31.4108 13.7965 31.4568 13.7742 31.5075C13.7518 31.5582 13.7403 31.6127 13.7403 31.6677C13.7403 31.7226 13.7518 31.7771 13.7742 31.8278C13.7965 31.8785 13.8292 31.9245 13.8704 31.9631C13.9116 32.0017 13.9605 32.0321 14.0142 32.0526C14.0679 32.0731 14.1253 32.0833 14.1832 32.0825C14.241 32.0833 14.2985 32.0731 14.3522 32.0526C14.4059 32.0321 14.4547 32.0017 14.4959 31.9631C14.5371 31.9245 14.5698 31.8785 14.5922 31.8278C14.6145 31.7771 14.626 31.7226 14.626 31.6677C14.626 31.6127 14.6145 31.5582 14.5922 31.5075C14.5698 31.4568 14.5371 31.4108 14.4959 31.3722C14.4547 31.3336 14.4059 31.3032 14.3522 31.2827C14.2985 31.2622 14.241 31.252 14.1832 31.2528ZM36.0144 31.3986C35.8643 31.3986 35.7146 31.4631 35.6366 31.5915L29.0872 42.3777C29.0091 42.5059 29.0095 42.664 29.0872 42.7926C29.165 42.9212 29.3092 43 29.465 43H42.5638C42.7196 43 42.8638 42.9212 42.9415 42.7926C43.0193 42.6644 43.0197 42.5063 42.9415 42.3777L36.3922 31.5915C36.3142 31.4631 36.1645 31.3986 36.0144 31.3986ZM36.0144 32.6294L41.8082 42.1703H30.2206L36.0144 32.6294ZM28.1552 32.9122C28.0394 32.9122 27.9283 32.9559 27.8464 33.0337C27.7645 33.1115 27.7185 33.2171 27.7185 33.3271C27.7185 33.4371 27.7645 33.5426 27.8464 33.6204C27.9283 33.6982 28.0394 33.7419 28.1552 33.7419C28.271 33.7419 28.382 33.6982 28.4639 33.6204C28.5458 33.5426 28.5918 33.4371 28.5918 33.3271C28.5918 33.2171 28.5458 33.1115 28.4639 33.0337C28.382 32.9559 28.271 32.9122 28.1552 32.9122ZM27.2819 34.1568C27.1661 34.1568 27.055 34.2005 26.9732 34.2783C26.8913 34.3561 26.8453 34.4616 26.8453 34.5716C26.8453 34.6817 26.8913 34.7872 26.9732 34.865C27.055 34.9428 27.1661 34.9865 27.2819 34.9865C27.3977 34.9865 27.5088 34.9428 27.5906 34.865C27.6725 34.7872 27.7185 34.6817 27.7185 34.5716C27.7185 34.4616 27.6725 34.3561 27.5906 34.2783C27.5088 34.2005 27.3977 34.1568 27.2819 34.1568ZM35.3654 35.5326L35.4703 39.2663H36.5542L36.6642 35.5326H35.3654ZM27.2853 35.6614C26.5602 35.6578 25.8341 35.886 25.2395 36.3469C23.6818 37.5546 21.6025 38.5604 18.8948 39.1075C18.837 39.1171 18.7818 39.1377 18.7325 39.168C18.6833 39.1983 18.6409 39.2377 18.6081 39.284C18.5752 39.3302 18.5525 39.3822 18.5413 39.4369C18.5301 39.4917 18.5306 39.548 18.5428 39.6026C18.555 39.6571 18.5787 39.7087 18.6124 39.7544C18.6461 39.8001 18.6891 39.8388 18.7389 39.8683C18.7888 39.8978 18.8443 39.9175 18.9023 39.9261C18.9603 39.9347 19.0195 39.9322 19.0764 39.9186C21.9086 39.3464 24.1231 38.2834 25.7921 36.9895C26.6612 36.3158 27.9038 36.3236 28.7683 37.0041C29.0477 37.2236 29.3419 37.4364 29.6518 37.6417C29.6988 37.6729 29.7519 37.695 29.8079 37.7067C29.8639 37.7184 29.9218 37.7195 29.9783 37.71C30.0347 37.7004 30.0887 37.6804 30.137 37.6511C30.1853 37.6217 30.2271 37.5836 30.2599 37.5389C30.2927 37.4942 30.316 37.4438 30.3283 37.3906C30.3406 37.3373 30.3417 37.2823 30.3317 37.2287C30.3216 37.175 30.3005 37.1238 30.2696 37.0779C30.2387 37.0319 30.1986 36.9923 30.1515 36.9611C29.8615 36.769 29.5863 36.57 29.3252 36.3648C28.7349 35.9001 28.0105 35.6651 27.2853 35.6614ZM21.1692 36.2797C21.1113 36.2789 21.0539 36.2891 21.0002 36.3096C20.9465 36.3301 20.8976 36.3605 20.8564 36.3991C20.8152 36.4377 20.7825 36.4837 20.7601 36.5344C20.7378 36.5851 20.7263 36.6396 20.7263 36.6945C20.7263 36.7495 20.7378 36.8039 20.7601 36.8547C20.7825 36.9054 20.8152 36.9514 20.8564 36.99C20.8976 37.0286 20.9465 37.059 21.0002 37.0795C21.0539 37.1 21.1113 37.1102 21.1692 37.1094C21.227 37.1102 21.2845 37.1 21.3382 37.0795C21.3918 37.059 21.4407 37.0286 21.4819 36.99C21.5231 36.9514 21.5558 36.9054 21.5782 36.8547C21.6005 36.8039 21.612 36.7495 21.612 36.6945C21.612 36.6396 21.6005 36.5851 21.5782 36.5344C21.5558 36.4837 21.5231 36.4377 21.4819 36.3991C21.4407 36.3605 21.3918 36.3301 21.3382 36.3096C21.2845 36.2891 21.227 36.2789 21.1692 36.2797ZM19.7535 36.7683L19.4039 36.9344L19.3348 37.3006L19.6017 37.572L19.7535 37.598L20.1032 37.4311L20.1723 37.0656L19.9053 36.7942L19.7535 36.7683ZM18.2902 37.107L17.9405 37.2731L17.8715 37.6393L18.1384 37.9107L18.2902 37.9367L18.6398 37.7698L18.7089 37.4043L18.442 37.1329L18.2902 37.107ZM16.8029 37.3379C16.7451 37.3371 16.6876 37.3473 16.6339 37.3678C16.5802 37.3883 16.5314 37.4187 16.4902 37.4573C16.449 37.4959 16.4162 37.5419 16.3939 37.5926C16.3716 37.6433 16.3601 37.6978 16.3601 37.7527C16.3601 37.8077 16.3716 37.8621 16.3939 37.9129C16.4162 37.9636 16.449 38.0096 16.4902 38.0482C16.5314 38.0868 16.5802 38.1172 16.6339 38.1377C16.6876 38.1582 16.7451 38.1684 16.8029 38.1676C16.8608 38.1684 16.9182 38.1582 16.9719 38.1377C17.0256 38.1172 17.0745 38.0868 17.1157 38.0482C17.1569 38.0096 17.1896 37.9636 17.2119 37.9129C17.2343 37.8621 17.2458 37.8077 17.2458 37.7527C17.2458 37.6978 17.2343 37.6433 17.2119 37.5926C17.1896 37.5419 17.1569 37.4959 17.1157 37.4573C17.0745 37.4187 17.0256 37.3883 16.9719 37.3678C16.9182 37.3473 16.8608 37.3371 16.8029 37.3379ZM27.2776 37.7365C27.0445 37.7347 26.8107 37.8062 26.6201 37.9537C26.6201 37.9539 26.6201 37.9542 26.6201 37.9545C25.8134 38.58 24.9294 39.1279 23.9723 39.5977C23.9213 39.6227 23.876 39.657 23.839 39.6986C23.802 39.7403 23.774 39.7884 23.7566 39.8403C23.7392 39.8922 23.7327 39.9469 23.7375 40.0012C23.7423 40.0555 23.7583 40.1084 23.7846 40.1568C23.811 40.2052 23.8471 40.2482 23.8909 40.2834C23.9347 40.3185 23.9854 40.3451 24.04 40.3617C24.0946 40.3783 24.1522 40.3844 24.2093 40.3798C24.2665 40.3753 24.3221 40.36 24.3731 40.335C25.3816 39.8399 26.3168 39.26 27.1719 38.597C27.2292 38.5527 27.3117 38.5517 27.3757 38.6019V38.6011C27.837 38.9643 28.32 39.3025 28.8246 39.6147C28.8727 39.6444 28.9265 39.6648 28.9829 39.6748C29.0393 39.6847 29.0972 39.684 29.1533 39.6727C29.2094 39.6614 29.2626 39.6397 29.3099 39.6088C29.3572 39.5779 29.3976 39.5385 29.4289 39.4928C29.4601 39.4471 29.4816 39.396 29.492 39.3424C29.5025 39.2888 29.5017 39.2338 29.4898 39.1805C29.4779 39.1272 29.455 39.0766 29.4225 39.0317C29.39 38.9868 29.3486 38.9484 29.3004 38.9187C28.8235 38.6236 28.3681 38.3055 27.9326 37.9626C27.9323 37.9623 27.932 37.9621 27.9317 37.9618C27.7428 37.8135 27.5107 37.7383 27.2776 37.7365ZM36.0144 40.0352C35.542 40.0352 35.2469 40.2959 35.2469 40.7207C35.2469 41.1418 35.542 41.4014 36.0144 41.4014C36.4912 41.4014 36.7819 41.1414 36.7819 40.7207C36.7819 40.2959 36.4912 40.0352 36.0144 40.0352Z" fill="white"/>
</svg>
