<svg width="55" height="55" viewBox="0 0 55 55" fill="none" xmlns="http://www.w3.org/2000/svg">
<circle cx="27.5" cy="27.5" r="27.5" fill="#2D5EBB"/>
<path d="M27 10L26.568 10.9607L21.7698 21.6462L9 22.9865L18.5372 31.525L15.8751 44L27 37.6323L38.1249 44L35.4628 31.525L45 22.9865L32.2302 21.6462L27 10ZM27 12.3047L31.5877 22.5226L42.792 23.6997L34.4234 31.1895L36.7606 42.1372L27 36.5487L17.2394 42.1372L19.5766 31.1895L11.208 23.6997L22.4123 22.5226L27 12.3047ZM27 14.437C26.7397 14.437 26.5274 14.6479 26.5274 14.9064C26.5274 15.1649 26.7397 15.3758 27 15.3758C27.2603 15.3758 27.4726 15.1649 27.4726 14.9064C27.4726 14.6479 27.2603 14.437 27 14.437ZM27 16.3145C26.7397 16.3145 26.5274 16.5253 26.5274 16.7839C26.5274 17.0424 26.7397 17.2532 27 17.2532C27.2603 17.2532 27.4726 17.0424 27.4726 16.7839C27.4726 16.5253 27.2603 16.3145 27 16.3145ZM27 18.192C26.7397 18.192 26.5274 18.4028 26.5274 18.6613C26.5274 18.9199 26.7397 19.1307 27 19.1307C27.2603 19.1307 27.4726 18.9199 27.4726 18.6613C27.4726 18.4028 27.2603 18.192 27 18.192ZM27 20.0695C26.7397 20.0695 26.5274 20.2803 26.5274 20.5388C26.5274 20.7973 26.7397 21.0082 27 21.0082C27.2603 21.0082 27.4726 20.7973 27.4726 20.5388C27.4726 20.2803 27.2603 20.0695 27 20.0695ZM27 21.9469C26.7397 21.9469 26.5274 22.1578 26.5274 22.4163C26.5274 22.6748 26.7397 22.8857 27 22.8857C27.2603 22.8857 27.4726 22.6748 27.4726 22.4163C27.4726 22.1578 27.2603 21.9469 27 21.9469ZM27 23.8244C26.7397 23.8244 26.5274 24.0353 26.5274 24.2938C26.5274 24.5523 26.7397 24.7632 27 24.7632C27.2603 24.7632 27.4726 24.5523 27.4726 24.2938C27.4726 24.0353 27.2603 23.8244 27 23.8244ZM14.2117 24.1819C14.0012 24.1819 13.8148 24.325 13.7594 24.5285C13.6929 24.7797 13.8425 25.0363 14.0935 25.1024C14.3465 25.1702 14.6049 25.0217 14.6732 24.7705C14.7415 24.5211 14.592 24.2645 14.3391 24.1966C14.2985 24.1856 14.256 24.1801 14.2117 24.1819ZM39.8031 24.1819C39.7551 24.1801 39.7071 24.1838 39.6628 24.1966C39.5409 24.2278 39.4375 24.3066 39.3748 24.4148C39.312 24.523 39.2935 24.6513 39.3268 24.7705C39.3582 24.8915 39.4375 24.9942 39.5465 25.0565C39.6554 25.1189 39.7846 25.1372 39.9065 25.1042C40.0265 25.073 40.1298 24.9942 40.1926 24.886C40.2554 24.7778 40.2738 24.6495 40.2406 24.5285C40.1871 24.3305 40.0098 24.1893 39.8031 24.1819ZM16.0394 24.666C15.8252 24.6678 15.6406 24.8108 15.5852 25.0143C15.5188 25.2655 15.6683 25.5222 15.9212 25.5901C16.0412 25.6212 16.1705 25.6047 16.2794 25.5424C16.3883 25.48 16.4677 25.3774 16.4991 25.2564C16.5674 25.0052 16.4178 24.7485 16.1649 24.6825C16.1243 24.6715 16.0818 24.666 16.0394 24.666ZM37.9606 24.666C37.9495 24.666 37.9385 24.666 37.9292 24.6678C37.896 24.6697 37.8665 24.6733 37.8351 24.6825C37.5822 24.7503 37.4326 25.007 37.5009 25.2564C37.5692 25.5076 37.8277 25.6561 38.0788 25.5901C38.3317 25.5222 38.4812 25.2655 38.4148 25.0143C38.3594 24.8108 38.1748 24.6678 37.9606 24.666ZM17.8652 25.1519C17.6529 25.1537 17.4683 25.2949 17.4129 25.4984C17.3446 25.7496 17.4942 26.0063 17.7471 26.0741C18 26.1419 18.2585 25.9934 18.3249 25.7422C18.3932 25.491 18.2437 25.2344 17.9908 25.1665C17.9502 25.1574 17.9077 25.1519 17.8652 25.1519ZM36.1348 25.1519C36.1237 25.1519 36.1126 25.1519 36.1034 25.1519C36.0702 25.1555 36.0406 25.1592 36.0092 25.1684C35.7563 25.2362 35.6068 25.4929 35.6751 25.7441C35.7434 25.9934 36.0018 26.1419 36.2529 26.0759C36.5058 26.0081 36.6554 25.7514 36.5871 25.5002C36.5335 25.2967 36.3489 25.1537 36.1348 25.1519ZM19.6911 25.6359C19.4788 25.6396 19.2942 25.7807 19.2388 25.9861C19.1705 26.2354 19.32 26.4921 19.5729 26.56C19.8258 26.6278 20.0843 26.4793 20.1526 26.2281C20.2191 25.9769 20.0695 25.7202 19.8166 25.6524C19.776 25.6414 19.7335 25.6359 19.6911 25.6359ZM34.2757 25.6377C34.2443 25.6396 34.2129 25.6451 34.1834 25.6524C33.9305 25.7202 33.7809 25.9769 33.8474 26.2281C33.9157 26.4793 34.1742 26.6278 34.4271 26.56C34.68 26.4921 34.8295 26.2354 34.7612 25.9861C34.7077 25.7862 34.5305 25.6451 34.3237 25.6377C34.3089 25.6377 34.2923 25.6377 34.2757 25.6377ZM27 25.7019C26.7397 25.7019 26.5274 25.9127 26.5274 26.1713C26.5274 26.4298 26.7397 26.6406 27 26.6406C27.2603 26.6406 27.4726 26.4298 27.4726 26.1713C27.4726 25.9127 27.2603 25.7019 27 25.7019ZM21.5188 26.1218C21.3065 26.1236 21.12 26.2666 21.0646 26.4701C20.9982 26.7213 21.1477 26.978 21.4006 27.044C21.6517 27.1118 21.9102 26.9633 21.9785 26.714C22.0468 26.4628 21.8972 26.2061 21.6443 26.1383C21.6037 26.1273 21.5612 26.1218 21.5188 26.1218ZM32.496 26.1236C32.4498 26.1218 32.4018 26.1273 32.3557 26.1401C32.1046 26.2061 31.9551 26.4628 32.0215 26.714C32.0898 26.9652 32.3483 27.1137 32.6012 27.0458C32.8542 26.978 33.0037 26.7213 32.9354 26.472C32.8818 26.2721 32.7046 26.1309 32.496 26.1236ZM23.3446 26.6076C23.1305 26.6095 22.9458 26.7525 22.8923 26.956C22.824 27.2072 22.9735 27.4639 23.2265 27.5299C23.4775 27.5977 23.736 27.4492 23.8043 27.198C23.8726 26.9487 23.7231 26.692 23.4702 26.6241C23.4295 26.6131 23.3871 26.6076 23.3446 26.6076ZM30.6572 26.6095C30.6462 26.6076 30.6351 26.6095 30.624 26.6095C30.5926 26.6113 30.5612 26.6168 30.5298 26.626C30.4098 26.6571 30.3065 26.736 30.2437 26.8442C30.1809 26.9505 30.1625 27.0788 30.1957 27.1999C30.264 27.451 30.5225 27.5995 30.7735 27.5317C30.8954 27.5005 30.9988 27.4217 31.0615 27.3135C31.1243 27.2053 31.1428 27.077 31.1095 26.956C31.0542 26.7525 30.8695 26.6113 30.6572 26.6095ZM25.1686 27.0935C24.9582 27.0953 24.7735 27.2384 24.7182 27.4419C24.6498 27.6931 24.7994 27.9497 25.0523 28.0176C25.3052 28.0836 25.5637 27.9351 25.632 27.6839C25.6985 27.4345 25.5489 27.1778 25.296 27.11C25.2554 27.099 25.2129 27.0935 25.1686 27.0935ZM28.8443 27.0953C28.7963 27.0935 28.7502 27.0972 28.704 27.11C28.4511 27.1778 28.3015 27.4345 28.3698 27.6839C28.4012 27.8049 28.4806 27.9076 28.5895 27.9699C28.6985 28.0322 28.8277 28.0506 28.9495 28.0176C29.2006 27.9497 29.3502 27.6931 29.2818 27.4419C29.2302 27.2439 29.0511 27.1027 28.8443 27.0953ZM27 27.5794C26.7397 27.5794 26.5274 27.7902 26.5274 28.0487C26.5274 28.3073 26.7397 28.5181 27 28.5181C27.2603 28.5181 27.4726 28.3073 27.4726 28.0487C27.4726 27.7902 27.2603 27.5794 27 27.5794ZM25.9588 29.1415C25.7963 29.1378 25.6449 29.2167 25.5563 29.3487C25.4105 29.565 25.4695 29.8566 25.6855 29.9996C25.7908 30.0692 25.9182 30.0949 26.0418 30.0711C26.1655 30.0472 26.2726 29.9757 26.3428 29.8712C26.4129 29.7667 26.4388 29.6402 26.4129 29.5192C26.3889 29.3964 26.3169 29.2882 26.2117 29.2203C26.136 29.169 26.0492 29.1415 25.9588 29.1415ZM28.056 29.1415C27.96 29.1397 27.8658 29.1672 27.7883 29.2203C27.5705 29.3634 27.5114 29.6549 27.6572 29.8694C27.8031 30.0857 28.0948 30.1444 28.3126 29.9996C28.5286 29.8547 28.5877 29.565 28.4418 29.3487C28.3569 29.2203 28.2111 29.1415 28.056 29.1415ZM24.9083 30.7018C24.7477 30.6981 24.5963 30.777 24.5058 30.9108C24.3618 31.1272 24.4209 31.4168 24.6369 31.5617C24.8548 31.7047 25.1483 31.6479 25.2923 31.4315C25.4382 31.2152 25.3791 30.9255 25.1612 30.7806C25.0874 30.7311 24.9988 30.7036 24.9083 30.7018ZM29.1046 30.7018C29.0105 30.7 28.9163 30.7275 28.8388 30.7806C28.6209 30.9236 28.5618 31.2152 28.7058 31.4315C28.8517 31.646 29.1452 31.7047 29.3631 31.5617C29.5791 31.4168 29.6382 31.1253 29.4942 30.909C29.4074 30.7806 29.2615 30.7036 29.1046 30.7018ZM23.8578 32.2639C23.6972 32.2602 23.5458 32.3391 23.4554 32.4711C23.3114 32.6874 23.3705 32.979 23.5865 33.1238C23.8043 33.2668 24.0978 33.2082 24.2418 32.9918C24.3877 32.7773 24.3286 32.4858 24.1126 32.3409C24.0369 32.2914 23.9483 32.2639 23.8578 32.2639ZM30.1551 32.2639C30.0591 32.2621 29.9668 32.2896 29.8874 32.3409C29.6714 32.4858 29.6123 32.7773 29.7563 32.9918C29.9022 33.2082 30.1957 33.2668 30.4117 33.122C30.6295 32.9771 30.6886 32.6874 30.5428 32.4711C30.456 32.3428 30.3102 32.2639 30.1551 32.2639ZM22.8074 33.8242C22.6468 33.8205 22.4954 33.8994 22.4068 34.0332C22.3366 34.1359 22.3108 34.2624 22.3348 34.3852C22.3606 34.5081 22.4326 34.6144 22.5378 34.6841C22.7538 34.8271 23.0474 34.7703 23.1914 34.5539C23.3372 34.3376 23.2782 34.0461 23.0622 33.903C22.9865 33.8535 22.8978 33.826 22.8074 33.8242ZM31.2055 33.8242C31.1095 33.8224 31.0172 33.8499 30.9378 33.903C30.72 34.0461 30.6628 34.3376 30.8068 34.5539C30.9526 34.7684 31.2443 34.8271 31.4622 34.6841C31.68 34.5393 31.7372 34.2477 31.5932 34.0332C31.5065 33.903 31.3606 33.826 31.2055 33.8242ZM32.256 35.3845C32.16 35.3845 32.0658 35.412 31.9865 35.4633C31.7705 35.6082 31.7114 35.8997 31.8572 36.116C32.0031 36.3306 32.2948 36.3892 32.5126 36.2444C32.7286 36.0995 32.7877 35.8099 32.6418 35.5935C32.5569 35.4652 32.4111 35.3863 32.256 35.3845ZM21.7569 35.3845C21.5963 35.3827 21.4449 35.4615 21.3563 35.5935C21.2862 35.6962 21.2603 35.8245 21.2862 35.9455C21.3102 36.0684 21.3822 36.1766 21.4855 36.2462C21.7034 36.3892 21.9969 36.3306 22.1409 36.116C22.2868 35.8997 22.2277 35.6082 22.0117 35.4633C21.936 35.4138 21.8492 35.3863 21.7569 35.3845ZM20.7083 36.9448C20.5458 36.9429 20.3945 37.0218 20.3058 37.1556C20.16 37.3701 20.2191 37.6617 20.4351 37.8047C20.6529 37.9495 20.9465 37.8909 21.0923 37.6763C21.2363 37.46 21.1772 37.1703 20.9612 37.0255C20.8855 36.976 20.7988 36.9484 20.7083 36.9448ZM33.3065 36.9448C33.2105 36.9448 33.1163 36.9723 33.0388 37.0255C32.9335 37.0933 32.8615 37.2015 32.8375 37.3243C32.8117 37.4453 32.8375 37.5737 32.9077 37.6763C33.0535 37.8909 33.3452 37.9495 33.5631 37.8047C33.7791 37.6617 33.8382 37.3701 33.6923 37.1556C33.6074 37.0255 33.4615 36.9466 33.3065 36.9448ZM19.6578 38.5069C19.4954 38.5032 19.344 38.5821 19.2554 38.7159C19.1095 38.9323 19.1686 39.222 19.3865 39.3668C19.6025 39.5116 19.896 39.453 20.0418 39.2385C20.1102 39.134 20.136 39.0074 20.112 38.8846C20.088 38.7618 20.016 38.6554 19.9108 38.5857C19.8351 38.5362 19.7483 38.5087 19.6578 38.5069ZM34.3551 38.5069C34.2609 38.5069 34.1668 38.5344 34.0892 38.5876C33.8714 38.7306 33.8123 39.0221 33.9563 39.2385C34.1022 39.453 34.3957 39.5116 34.6135 39.3668C34.8295 39.2238 34.8886 38.9323 34.7446 38.7159C34.6578 38.5876 34.512 38.5087 34.3551 38.5069Z" fill="white"/>
</svg>
