<svg width="55" height="55" viewBox="0 0 55 55" fill="none" xmlns="http://www.w3.org/2000/svg">
<circle cx="27.5" cy="27.5" r="27.5" fill="#2D5EBB"/>
<path d="M18.5161 13C17.7734 13 17.1613 13.598 17.1613 14.3235V19.6176H16.2581C15.5154 19.6176 14.9032 20.2156 14.9032 20.9412V23.5882C14.9032 24.3138 15.5154 24.9118 16.2581 24.9118H17.1613V25.4426C15.8929 25.6614 14.9032 26.6989 14.9032 28V36.5668C14.404 36.7615 14 37.151 14 37.7059V39.4706C14 40.1961 14.6121 40.7941 15.3548 40.7941V42.1176C15.3548 42.6002 15.7641 43 16.2581 43H19.871C20.3649 43 20.7742 42.6002 20.7742 42.1176V40.7941H35.2258V42.1176C35.2258 42.6002 35.6351 43 36.129 43H39.7419C40.2359 43 40.6452 42.6002 40.6452 42.1176V40.7941C41.3879 40.7941 42 40.1961 42 39.4706V37.7059C42 37.151 41.596 36.7615 41.0968 36.5668V28C41.0968 26.6989 40.1071 25.6614 38.8387 25.4426V24.9118H39.7419C40.4846 24.9118 41.0968 24.3138 41.0968 23.5882V20.9412C41.0968 20.2156 40.4846 19.6176 39.7419 19.6176H38.8387V14.3235C38.8387 13.598 38.2266 13 37.4839 13H36.129V16.5294H35.5504L34.9577 14.7871C34.7724 14.2494 34.2538 13.8824 33.6716 13.8824H22.3284C21.7462 13.8824 21.2276 14.2494 21.0423 14.7871L20.4496 16.5294H19.871V13H18.5161ZM18.5161 13.8824H18.9677V16.6845C18.6308 16.8017 18.3256 16.9827 18.0645 17.2119V14.3235C18.0645 14.0736 18.2603 13.8824 18.5161 13.8824ZM37.0323 13.8824H37.4839C37.7397 13.8824 37.9355 14.0736 37.9355 14.3235V17.2119C37.6744 16.9827 37.3692 16.8017 37.0323 16.6845V13.8824ZM22.3284 14.7647H33.6716C33.8674 14.7647 34.0386 14.8836 34.1003 15.0663L34.5995 16.5294H21.4005L21.8997 15.0663C21.9614 14.8853 22.1326 14.7647 22.3284 14.7647ZM24.3871 15.2059C24.1384 15.2059 23.9355 15.4041 23.9355 15.6471C23.9355 15.8901 24.1384 16.0882 24.3871 16.0882C24.6358 16.0882 24.8387 15.8901 24.8387 15.6471C24.8387 15.4041 24.6358 15.2059 24.3871 15.2059ZM26.1935 15.2059C25.9448 15.2059 25.7419 15.4041 25.7419 15.6471C25.7419 15.8901 25.9448 16.0882 26.1935 16.0882C26.4423 16.0882 26.6452 15.8901 26.6452 15.6471C26.6452 15.4041 26.4423 15.2059 26.1935 15.2059ZM28 15.2059C27.7513 15.2059 27.5484 15.4041 27.5484 15.6471C27.5484 15.8901 27.7513 16.0882 28 16.0882C28.2487 16.0882 28.4516 15.8901 28.4516 15.6471C28.4516 15.4041 28.2487 15.2059 28 15.2059ZM29.8065 15.2059C29.5577 15.2059 29.3548 15.4041 29.3548 15.6471C29.3548 15.8901 29.5577 16.0882 29.8065 16.0882C30.0552 16.0882 30.2581 15.8901 30.2581 15.6471C30.2581 15.4041 30.0552 15.2059 29.8065 15.2059ZM31.6129 15.2059C31.3642 15.2059 31.1613 15.4041 31.1613 15.6471C31.1613 15.8901 31.3642 16.0882 31.6129 16.0882C31.8616 16.0882 32.0645 15.8901 32.0645 15.6471C32.0645 15.4041 31.8616 15.2059 31.6129 15.2059ZM19.871 17.4118H27.5484C27.5484 17.6548 27.7513 17.8529 28 17.8529C28.2487 17.8529 28.4516 17.6548 28.4516 17.4118H36.129C37.131 17.4118 37.9355 18.1976 37.9355 19.1765V20.5H39.7419C39.9977 20.5 40.1935 20.6913 40.1935 20.9412V23.5882C40.1935 23.8381 39.9977 24.0294 39.7419 24.0294H37.9355V25.5218L36.4748 26.2353H28.4516C28.4516 25.9923 28.2487 25.7941 28 25.7941C27.7513 25.7941 27.5484 25.9923 27.5484 26.2353H19.5252L18.0645 25.5218V24.0294H16.2581C16.0023 24.0294 15.8065 23.8381 15.8065 23.5882V20.9412C15.8065 20.6913 16.0023 20.5 16.2581 20.5H18.0645V19.1765C18.0645 18.1976 18.869 17.4118 19.871 17.4118ZM28 18.7353C27.7513 18.7353 27.5484 18.9335 27.5484 19.1765C27.5484 19.4195 27.7513 19.6176 28 19.6176C28.2487 19.6176 28.4516 19.4195 28.4516 19.1765C28.4516 18.9335 28.2487 18.7353 28 18.7353ZM28 20.5C27.7513 20.5 27.5484 20.6982 27.5484 20.9412C27.5484 21.1842 27.7513 21.3824 28 21.3824C28.2487 21.3824 28.4516 21.1842 28.4516 20.9412C28.4516 20.6982 28.2487 20.5 28 20.5ZM17.6129 20.9412C17.3642 20.9412 17.1613 21.1394 17.1613 21.3824C17.1613 21.6253 17.3642 21.8235 17.6129 21.8235C17.8616 21.8235 18.0645 21.6253 18.0645 21.3824C18.0645 21.1394 17.8616 20.9412 17.6129 20.9412ZM38.3871 20.9412C38.1384 20.9412 37.9355 21.1394 37.9355 21.3824C37.9355 21.6253 38.1384 21.8235 38.3871 21.8235C38.6358 21.8235 38.8387 21.6253 38.8387 21.3824C38.8387 21.1394 38.6358 20.9412 38.3871 20.9412ZM28 22.2647C27.7513 22.2647 27.5484 22.4629 27.5484 22.7059C27.5484 22.9489 27.7513 23.1471 28 23.1471C28.2487 23.1471 28.4516 22.9489 28.4516 22.7059C28.4516 22.4629 28.2487 22.2647 28 22.2647ZM17.6129 22.7059C17.3642 22.7059 17.1613 22.9041 17.1613 23.1471C17.1613 23.3901 17.3642 23.5882 17.6129 23.5882C17.8616 23.5882 18.0645 23.3901 18.0645 23.1471C18.0645 22.9041 17.8616 22.7059 17.6129 22.7059ZM38.3871 22.7059C38.1384 22.7059 37.9355 22.9041 37.9355 23.1471C37.9355 23.3901 38.1384 23.5882 38.3871 23.5882C38.6358 23.5882 38.8387 23.3901 38.8387 23.1471C38.8387 22.9041 38.6358 22.7059 38.3871 22.7059ZM28 24.0294C27.7513 24.0294 27.5484 24.2276 27.5484 24.4706C27.5484 24.7136 27.7513 24.9118 28 24.9118C28.2487 24.9118 28.4516 24.7136 28.4516 24.4706C28.4516 24.2276 28.2487 24.0294 28 24.0294ZM17.5229 26.2439L19.3135 27.1176H36.6865L38.4771 26.2439C39.4367 26.2904 40.1935 27.0504 40.1935 28V37.2647H40.6452C40.901 37.2647 41.0968 37.456 41.0968 37.7059V39.4706C41.0968 39.7205 40.901 39.9118 40.6452 39.9118H39.7419V42.1176H36.129V39.9118H19.871V42.1176H16.2581V39.9118H15.3548C15.099 39.9118 14.9032 39.7205 14.9032 39.4706V37.7059C14.9032 37.456 15.099 37.2647 15.3548 37.2647H15.8065V28C15.8065 27.0504 16.5633 26.2904 17.5229 26.2439ZM15.8065 36.8235C15.8065 37.0665 16.0093 37.2647 16.2581 37.2647C16.5068 37.2647 16.7097 37.0665 16.7097 36.8235C16.7097 36.5805 16.5068 36.3824 16.2581 36.3824C16.0093 36.3824 15.8065 36.5805 15.8065 36.8235ZM40.1935 36.8235C40.1935 36.5805 39.9907 36.3824 39.7419 36.3824C39.4932 36.3824 39.2903 36.5805 39.2903 36.8235C39.2903 37.0665 39.4932 37.2647 39.7419 37.2647C39.9907 37.2647 40.1935 37.0665 40.1935 36.8235ZM24.3871 31.0882C23.6444 31.0882 23.0323 31.6862 23.0323 32.4118V36.8235C23.0323 37.0665 23.2351 37.2647 23.4839 37.2647C23.7326 37.2647 23.9355 37.0665 23.9355 36.8235V32.4118C23.9355 32.1619 24.1313 31.9706 24.3871 31.9706H31.6129C31.8687 31.9706 32.0645 32.1619 32.0645 32.4118V36.8235C32.0645 37.0665 32.2674 37.2647 32.5161 37.2647C32.7649 37.2647 32.9677 37.0665 32.9677 36.8235V32.4118C32.9677 31.6862 32.3556 31.0882 31.6129 31.0882H24.3871ZM18.0645 31.5294C17.3218 31.5294 16.7097 32.1274 16.7097 32.8529V33.2941C16.7097 34.0196 17.3218 34.6176 18.0645 34.6176H19.871C20.6137 34.6176 21.2258 34.0196 21.2258 33.2941V32.8529C21.2258 32.1274 20.6137 31.5294 19.871 31.5294H18.0645ZM36.129 31.5294C35.3863 31.5294 34.7742 32.1274 34.7742 32.8529V33.2941C34.7742 34.0196 35.3863 34.6176 36.129 34.6176H37.9355C38.6782 34.6176 39.2903 34.0196 39.2903 33.2941V32.8529C39.2903 32.1274 38.6782 31.5294 37.9355 31.5294H36.129ZM18.0645 32.4118H19.871C20.1268 32.4118 20.3226 32.6031 20.3226 32.8529V33.2941C20.3226 33.544 20.1268 33.7353 19.871 33.7353H18.0645C17.8087 33.7353 17.6129 33.544 17.6129 33.2941V32.8529C17.6129 32.6031 17.8087 32.4118 18.0645 32.4118ZM36.129 32.4118H37.9355C38.1913 32.4118 38.3871 32.6031 38.3871 32.8529V33.2941C38.3871 33.544 38.1913 33.7353 37.9355 33.7353H36.129C35.8732 33.7353 35.6774 33.544 35.6774 33.2941V32.8529C35.6774 32.6031 35.8732 32.4118 36.129 32.4118ZM24.8387 32.8529V33.7353H31.1613V32.8529H24.8387ZM24.8387 34.6176V35.5H31.1613V34.6176H24.8387ZM18.0645 36.3824C17.8158 36.3824 17.6129 36.5805 17.6129 36.8235C17.6129 37.0665 17.8158 37.2647 18.0645 37.2647C18.3133 37.2647 18.5161 37.0665 18.5161 36.8235C18.5161 36.5805 18.3133 36.3824 18.0645 36.3824ZM19.871 36.3824C19.6222 36.3824 19.4194 36.5805 19.4194 36.8235C19.4194 37.0665 19.6222 37.2647 19.871 37.2647C20.1197 37.2647 20.3226 37.0665 20.3226 36.8235C20.3226 36.5805 20.1197 36.3824 19.871 36.3824ZM21.6774 36.3824C21.4287 36.3824 21.2258 36.5805 21.2258 36.8235C21.2258 37.0665 21.4287 37.2647 21.6774 37.2647C21.9262 37.2647 22.129 37.0665 22.129 36.8235C22.129 36.5805 21.9262 36.3824 21.6774 36.3824ZM25.2903 36.3824C25.0416 36.3824 24.8387 36.5805 24.8387 36.8235C24.8387 37.0665 25.0416 37.2647 25.2903 37.2647C25.5391 37.2647 25.7419 37.0665 25.7419 36.8235C25.7419 36.5805 25.5391 36.3824 25.2903 36.3824ZM27.0968 36.3824C26.848 36.3824 26.6452 36.5805 26.6452 36.8235C26.6452 37.0665 26.848 37.2647 27.0968 37.2647C27.3455 37.2647 27.5484 37.0665 27.5484 36.8235C27.5484 36.5805 27.3455 36.3824 27.0968 36.3824ZM28.9032 36.3824C28.6545 36.3824 28.4516 36.5805 28.4516 36.8235C28.4516 37.0665 28.6545 37.2647 28.9032 37.2647C29.152 37.2647 29.3548 37.0665 29.3548 36.8235C29.3548 36.5805 29.152 36.3824 28.9032 36.3824ZM30.7097 36.3824C30.4609 36.3824 30.2581 36.5805 30.2581 36.8235C30.2581 37.0665 30.4609 37.2647 30.7097 37.2647C30.9584 37.2647 31.1613 37.0665 31.1613 36.8235C31.1613 36.5805 30.9584 36.3824 30.7097 36.3824ZM34.3226 36.3824C34.0738 36.3824 33.871 36.5805 33.871 36.8235C33.871 37.0665 34.0738 37.2647 34.3226 37.2647C34.5713 37.2647 34.7742 37.0665 34.7742 36.8235C34.7742 36.5805 34.5713 36.3824 34.3226 36.3824ZM36.129 36.3824C35.8803 36.3824 35.6774 36.5805 35.6774 36.8235C35.6774 37.0665 35.8803 37.2647 36.129 37.2647C36.3778 37.2647 36.5806 37.0665 36.5806 36.8235C36.5806 36.5805 36.3778 36.3824 36.129 36.3824ZM37.9355 36.3824C37.6867 36.3824 37.4839 36.5805 37.4839 36.8235C37.4839 37.0665 37.6867 37.2647 37.9355 37.2647C38.1842 37.2647 38.3871 37.0665 38.3871 36.8235C38.3871 36.5805 38.1842 36.3824 37.9355 36.3824ZM17.1613 39.9118C16.9126 39.9118 16.7097 40.1099 16.7097 40.3529C16.7097 40.5959 16.9126 40.7941 17.1613 40.7941C17.41 40.7941 17.6129 40.5959 17.6129 40.3529C17.6129 40.1099 17.41 39.9118 17.1613 39.9118ZM18.9677 39.9118C18.719 39.9118 18.5161 40.1099 18.5161 40.3529C18.5161 40.5959 18.719 40.7941 18.9677 40.7941C19.2165 40.7941 19.4194 40.5959 19.4194 40.3529C19.4194 40.1099 19.2165 39.9118 18.9677 39.9118ZM37.0323 39.9118C36.7835 39.9118 36.5806 40.1099 36.5806 40.3529C36.5806 40.5959 36.7835 40.7941 37.0323 40.7941C37.281 40.7941 37.4839 40.5959 37.4839 40.3529C37.4839 40.1099 37.281 39.9118 37.0323 39.9118ZM38.8387 39.9118C38.59 39.9118 38.3871 40.1099 38.3871 40.3529C38.3871 40.5959 38.59 40.7941 38.8387 40.7941C39.0874 40.7941 39.2903 40.5959 39.2903 40.3529C39.2903 40.1099 39.0874 39.9118 38.8387 39.9118Z" fill="white"/>
</svg>
