<svg width="55" height="55" viewBox="0 0 55 55" fill="none" xmlns="http://www.w3.org/2000/svg">
<circle cx="27.5" cy="27.5" r="27.5" fill="#2D5EBB"/>
<path d="M16.3333 14C15.05 14 14 15.05 14 16.3333V39.6667C14 40.95 15.05 42 16.3333 42H39.6667C40.95 42 42 40.95 42 39.6667V18.9401L37.0599 14H16.3333ZM16.3333 14.9333H19.6V21.9333C19.6 22.7008 20.2326 23.3333 21 23.3333H34.0667C34.8341 23.3333 35.4667 22.7008 35.4667 21.9333V14.9333H36.6734L41.0667 19.3266V39.6667C41.0667 40.4451 40.4451 41.0667 39.6667 41.0667H37.3333V30.3333C37.3333 29.05 36.2833 28 35 28H21C19.7167 28 18.6667 29.05 18.6667 30.3333V41.0667H16.3333C15.5549 41.0667 14.9333 40.4451 14.9333 39.6667V16.3333C14.9333 15.5549 15.5549 14.9333 16.3333 14.9333ZM20.5333 14.9333H22.0208C21.968 15.081 21.9333 15.2359 21.9333 15.4V21.9333C21.9333 22.0974 21.968 22.2523 22.0208 22.4H21C20.7357 22.4 20.5333 22.1977 20.5333 21.9333V14.9333ZM23.3333 14.9333H34.0667C34.331 14.9333 34.5333 15.1357 34.5333 15.4V21.9333C34.5333 22.1977 34.331 22.4 34.0667 22.4H23.3333C23.069 22.4 22.8667 22.1977 22.8667 21.9333V15.4C22.8667 15.1357 23.069 14.9333 23.3333 14.9333ZM29.8667 16.3333V21H32.6667V16.3333H29.8667ZM30.8 17.2667H31.7333V20.0667H30.8V17.2667ZM21 28.9333H35C35.7784 28.9333 36.4 29.5549 36.4 30.3333V31.2667C36.143 31.2667 35.9333 31.4763 35.9333 31.7333C35.9333 31.9904 36.143 32.2 36.4 32.2V34.5333C36.143 34.5333 35.9333 34.743 35.9333 35C35.9333 35.257 36.143 35.4667 36.4 35.4667V37.8C36.143 37.8 35.9333 38.0096 35.9333 38.2667C35.9333 38.5237 36.143 38.7333 36.4 38.7333V41.0667H19.6V38.7333C19.857 38.7333 20.0667 38.5237 20.0667 38.2667C20.0667 38.0096 19.857 37.8 19.6 37.8V35.4667C19.857 35.4667 20.0667 35.257 20.0667 35C20.0667 34.743 19.857 34.5333 19.6 34.5333V32.2C19.857 32.2 20.0667 31.9904 20.0667 31.7333C20.0667 31.4763 19.857 31.2667 19.6 31.2667V30.3333C19.6 29.5549 20.2216 28.9333 21 28.9333ZM21.4667 31.2667C21.2096 31.2667 21 31.4763 21 31.7333C21 31.9904 21.2096 32.2 21.4667 32.2C21.7237 32.2 21.9333 31.9904 21.9333 31.7333C21.9333 31.4763 21.7237 31.2667 21.4667 31.2667ZM23.3333 31.2667C23.0763 31.2667 22.8667 31.4763 22.8667 31.7333C22.8667 31.9904 23.0763 32.2 23.3333 32.2C23.5904 32.2 23.8 31.9904 23.8 31.7333C23.8 31.4763 23.5904 31.2667 23.3333 31.2667ZM25.2 31.2667C24.943 31.2667 24.7333 31.4763 24.7333 31.7333C24.7333 31.9904 24.943 32.2 25.2 32.2C25.457 32.2 25.6667 31.9904 25.6667 31.7333C25.6667 31.4763 25.457 31.2667 25.2 31.2667ZM27.0667 31.2667C26.8096 31.2667 26.6 31.4763 26.6 31.7333C26.6 31.9904 26.8096 32.2 27.0667 32.2C27.3237 32.2 27.5333 31.9904 27.5333 31.7333C27.5333 31.4763 27.3237 31.2667 27.0667 31.2667ZM28.9333 31.2667C28.6763 31.2667 28.4667 31.4763 28.4667 31.7333C28.4667 31.9904 28.6763 32.2 28.9333 32.2C29.1904 32.2 29.4 31.9904 29.4 31.7333C29.4 31.4763 29.1904 31.2667 28.9333 31.2667ZM30.8 31.2667C30.543 31.2667 30.3333 31.4763 30.3333 31.7333C30.3333 31.9904 30.543 32.2 30.8 32.2C31.057 32.2 31.2667 31.9904 31.2667 31.7333C31.2667 31.4763 31.057 31.2667 30.8 31.2667ZM32.6667 31.2667C32.4096 31.2667 32.2 31.4763 32.2 31.7333C32.2 31.9904 32.4096 32.2 32.6667 32.2C32.9237 32.2 33.1333 31.9904 33.1333 31.7333C33.1333 31.4763 32.9237 31.2667 32.6667 31.2667ZM34.5333 31.2667C34.2763 31.2667 34.0667 31.4763 34.0667 31.7333C34.0667 31.9904 34.2763 32.2 34.5333 32.2C34.7904 32.2 35 31.9904 35 31.7333C35 31.4763 34.7904 31.2667 34.5333 31.2667ZM21.4667 34.5333C21.2096 34.5333 21 34.743 21 35C21 35.257 21.2096 35.4667 21.4667 35.4667C21.7237 35.4667 21.9333 35.257 21.9333 35C21.9333 34.743 21.7237 34.5333 21.4667 34.5333ZM23.3333 34.5333C23.0763 34.5333 22.8667 34.743 22.8667 35C22.8667 35.257 23.0763 35.4667 23.3333 35.4667C23.5904 35.4667 23.8 35.257 23.8 35C23.8 34.743 23.5904 34.5333 23.3333 34.5333ZM25.2 34.5333C24.943 34.5333 24.7333 34.743 24.7333 35C24.7333 35.257 24.943 35.4667 25.2 35.4667C25.457 35.4667 25.6667 35.257 25.6667 35C25.6667 34.743 25.457 34.5333 25.2 34.5333ZM27.0667 34.5333C26.8096 34.5333 26.6 34.743 26.6 35C26.6 35.257 26.8096 35.4667 27.0667 35.4667C27.3237 35.4667 27.5333 35.257 27.5333 35C27.5333 34.743 27.3237 34.5333 27.0667 34.5333ZM28.9333 34.5333C28.6763 34.5333 28.4667 34.743 28.4667 35C28.4667 35.257 28.6763 35.4667 28.9333 35.4667C29.1904 35.4667 29.4 35.257 29.4 35C29.4 34.743 29.1904 34.5333 28.9333 34.5333ZM30.8 34.5333C30.543 34.5333 30.3333 34.743 30.3333 35C30.3333 35.257 30.543 35.4667 30.8 35.4667C31.057 35.4667 31.2667 35.257 31.2667 35C31.2667 34.743 31.057 34.5333 30.8 34.5333ZM32.6667 34.5333C32.4096 34.5333 32.2 34.743 32.2 35C32.2 35.257 32.4096 35.4667 32.6667 35.4667C32.9237 35.4667 33.1333 35.257 33.1333 35C33.1333 34.743 32.9237 34.5333 32.6667 34.5333ZM34.5333 34.5333C34.2763 34.5333 34.0667 34.743 34.0667 35C34.0667 35.257 34.2763 35.4667 34.5333 35.4667C34.7904 35.4667 35 35.257 35 35C35 34.743 34.7904 34.5333 34.5333 34.5333ZM21.4667 37.8C21.2096 37.8 21 38.0096 21 38.2667C21 38.5237 21.2096 38.7333 21.4667 38.7333C21.7237 38.7333 21.9333 38.5237 21.9333 38.2667C21.9333 38.0096 21.7237 37.8 21.4667 37.8ZM23.3333 37.8C23.0763 37.8 22.8667 38.0096 22.8667 38.2667C22.8667 38.5237 23.0763 38.7333 23.3333 38.7333C23.5904 38.7333 23.8 38.5237 23.8 38.2667C23.8 38.0096 23.5904 37.8 23.3333 37.8ZM25.2 37.8C24.943 37.8 24.7333 38.0096 24.7333 38.2667C24.7333 38.5237 24.943 38.7333 25.2 38.7333C25.457 38.7333 25.6667 38.5237 25.6667 38.2667C25.6667 38.0096 25.457 37.8 25.2 37.8ZM27.0667 37.8C26.8096 37.8 26.6 38.0096 26.6 38.2667C26.6 38.5237 26.8096 38.7333 27.0667 38.7333C27.3237 38.7333 27.5333 38.5237 27.5333 38.2667C27.5333 38.0096 27.3237 37.8 27.0667 37.8ZM28.9333 37.8C28.6763 37.8 28.4667 38.0096 28.4667 38.2667C28.4667 38.5237 28.6763 38.7333 28.9333 38.7333C29.1904 38.7333 29.4 38.5237 29.4 38.2667C29.4 38.0096 29.1904 37.8 28.9333 37.8ZM30.8 37.8C30.543 37.8 30.3333 38.0096 30.3333 38.2667C30.3333 38.5237 30.543 38.7333 30.8 38.7333C31.057 38.7333 31.2667 38.5237 31.2667 38.2667C31.2667 38.0096 31.057 37.8 30.8 37.8ZM32.6667 37.8C32.4096 37.8 32.2 38.0096 32.2 38.2667C32.2 38.5237 32.4096 38.7333 32.6667 38.7333C32.9237 38.7333 33.1333 38.5237 33.1333 38.2667C33.1333 38.0096 32.9237 37.8 32.6667 37.8ZM34.5333 37.8C34.2763 37.8 34.0667 38.0096 34.0667 38.2667C34.0667 38.5237 34.2763 38.7333 34.5333 38.7333C34.7904 38.7333 35 38.5237 35 38.2667C35 38.0096 34.7904 37.8 34.5333 37.8ZM15.8667 38.2667V39.2H16.8V38.2667H15.8667ZM39.2 38.2667V39.2H40.1333V38.2667H39.2Z" fill="white"/>
</svg>
