<svg width="55" height="55" viewBox="0 0 55 55" fill="none" xmlns="http://www.w3.org/2000/svg">
<circle cx="27.5" cy="27.5" r="27.5" fill="#2D5EBB"/>
<path d="M21.3637 12V17.9872L17.8909 25.7213H14V26.7377H18.518L22.3456 18.2095V13.0164H23.3274C24.152 13.0164 24.9401 13.6397 25.5442 14.676C26.1483 15.7122 26.5241 17.1197 26.526 18.4239C26.526 18.7912 26.411 19.7103 26.2384 20.7585C26.0658 21.8086 25.8414 23.0195 25.6343 24.0955L25.5154 24.7049H37.9475C39.0252 24.7049 39.9649 25.5486 40.0167 26.6365C40.0665 27.6926 39.3493 28.5601 38.3943 28.7328L37.2284 28.9452L38.1987 29.6499C38.705 30.0191 39.0367 30.6206 39.0367 31.3115C39.0367 32.3179 38.3349 33.1398 37.4125 33.3065L36.2466 33.519L37.2169 34.2237C37.7232 34.5929 38.0549 35.1944 38.0549 35.8852C38.0549 36.9771 37.2361 37.8486 36.1948 37.9041L34.8889 37.9756L35.9167 38.8133C36.3674 39.1786 36.6397 39.7444 36.5726 40.3975C36.4786 41.3047 35.6751 41.9836 34.7661 41.9836H21.312C20.1518 41.9836 19.0933 41.3067 18.5736 40.2307L18.1344 40.9672V39.9508H14V40.9672H17.8813C18.6119 42.2079 19.8929 43 21.312 43H34.7661C36.1488 43 37.3972 41.9598 37.5486 40.5067C37.6177 39.8238 37.3856 39.2302 37.0501 38.7121C38.1949 38.2952 39.0367 37.2093 39.0367 35.8852C39.0367 35.1627 38.7338 34.5512 38.3253 34.0291C39.3167 33.5388 40.0186 32.5204 40.0186 31.3115C40.0186 30.5869 39.7137 29.9755 39.3033 29.4514C40.3369 28.9412 41.056 27.8593 40.9966 26.5868C40.9179 24.9292 39.5219 23.6885 37.9475 23.6885H26.7063C26.8808 22.7694 27.063 21.8026 27.2068 20.9292C27.3813 19.8632 27.5079 18.9758 27.5079 18.4239C27.506 16.9232 27.0956 15.3708 26.3861 14.1519C25.6746 12.931 24.6161 12 23.3274 12H21.3637ZM14.4909 31.8197C14.2205 31.8197 14 32.048 14 32.3279C14 32.6078 14.2205 32.8361 14.4909 32.8361C14.7613 32.8361 14.9818 32.6078 14.9818 32.3279C14.9818 32.048 14.7613 31.8197 14.4909 31.8197ZM14.4909 33.8525C14.2205 33.8525 14 34.0807 14 34.3607C14 34.6406 14.2205 34.8689 14.4909 34.8689C14.7613 34.8689 14.9818 34.6406 14.9818 34.3607C14.9818 34.0807 14.7613 33.8525 14.4909 33.8525ZM14.4909 35.8852C14.2205 35.8852 14 36.1135 14 36.3934C14 36.6733 14.2205 36.9016 14.4909 36.9016C14.7613 36.9016 14.9818 36.6733 14.9818 36.3934C14.9818 36.1135 14.7613 35.8852 14.4909 35.8852ZM17.9273 35.8852C17.6569 35.8852 17.4364 36.1135 17.4364 36.3934C17.4364 36.6733 17.6569 36.9016 17.9273 36.9016C18.1977 36.9016 18.4182 36.6733 18.4182 36.3934C18.4182 36.1135 18.1977 35.8852 17.9273 35.8852ZM14.4909 37.918C14.2205 37.918 14 38.1463 14 38.4262C14 38.7061 14.2205 38.9344 14.4909 38.9344C14.7613 38.9344 14.9818 38.7061 14.9818 38.4262C14.9818 38.1463 14.7613 37.918 14.4909 37.918ZM17.9273 37.918C17.6569 37.918 17.4364 38.1463 17.4364 38.4262C17.4364 38.7061 17.6569 38.9344 17.9273 38.9344C18.1977 38.9344 18.4182 38.7061 18.4182 38.4262C18.4182 38.1463 18.1977 37.918 17.9273 37.918Z" fill="white"/>
</svg>
