<svg width="55" height="55" viewBox="0 0 55 55" fill="none" xmlns="http://www.w3.org/2000/svg">
<circle cx="27.5" cy="27.5" r="27.5" fill="#2D5EBB"/>
<path d="M17 12V13H14V13.5V42H17V43H42V19.293L34.707 12H34.5H17ZM18 13H34V20H41V42H18V13ZM35 13.707L40.293 19H35V13.707ZM15 14H17V41H15V14ZM20.5 14C20.3674 14 20.2402 14.0527 20.1464 14.1464C20.0527 14.2402 20 14.3674 20 14.5C20 14.6326 20.0527 14.7598 20.1464 14.8536C20.2402 14.9473 20.3674 15 20.5 15C20.6326 15 20.7598 14.9473 20.8536 14.8536C20.9473 14.7598 21 14.6326 21 14.5C21 14.3674 20.9473 14.2402 20.8536 14.1464C20.7598 14.0527 20.6326 14 20.5 14ZM20.5 16C20.3674 16 20.2402 16.0527 20.1464 16.1464C20.0527 16.2402 20 16.3674 20 16.5C20 16.6326 20.0527 16.7598 20.1464 16.8536C20.2402 16.9473 20.3674 17 20.5 17C20.6326 17 20.7598 16.9473 20.8536 16.8536C20.9473 16.7598 21 16.6326 21 16.5C21 16.3674 20.9473 16.2402 20.8536 16.1464C20.7598 16.0527 20.6326 16 20.5 16ZM20.5 18C20.3674 18 20.2402 18.0527 20.1464 18.1464C20.0527 18.2402 20 18.3674 20 18.5C20 18.6326 20.0527 18.7598 20.1464 18.8536C20.2402 18.9473 20.3674 19 20.5 19C20.6326 19 20.7598 18.9473 20.8536 18.8536C20.9473 18.7598 21 18.6326 21 18.5C21 18.3674 20.9473 18.2402 20.8536 18.1464C20.7598 18.0527 20.6326 18 20.5 18ZM20.5 20C20.3674 20 20.2402 20.0527 20.1464 20.1464C20.0527 20.2402 20 20.3674 20 20.5C20 20.6326 20.0527 20.7598 20.1464 20.8536C20.2402 20.9473 20.3674 21 20.5 21C20.6326 21 20.7598 20.9473 20.8536 20.8536C20.9473 20.7598 21 20.6326 21 20.5C21 20.3674 20.9473 20.2402 20.8536 20.1464C20.7598 20.0527 20.6326 20 20.5 20ZM20.5 22C20.3674 22 20.2402 22.0527 20.1464 22.1464C20.0527 22.2402 20 22.3674 20 22.5C20 22.6326 20.0527 22.7598 20.1464 22.8536C20.2402 22.9473 20.3674 23 20.5 23C20.6326 23 20.7598 22.9473 20.8536 22.8536C20.9473 22.7598 21 22.6326 21 22.5C21 22.3674 20.9473 22.2402 20.8536 22.1464C20.7598 22.0527 20.6326 22 20.5 22ZM20.5 24C20.3674 24 20.2402 24.0527 20.1464 24.1464C20.0527 24.2402 20 24.3674 20 24.5C20 24.6326 20.0527 24.7598 20.1464 24.8536C20.2402 24.9473 20.3674 25 20.5 25C20.6326 25 20.7598 24.9473 20.8536 24.8536C20.9473 24.7598 21 24.6326 21 24.5C21 24.3674 20.9473 24.2402 20.8536 24.1464C20.7598 24.0527 20.6326 24 20.5 24ZM37.9775 25.4951C37.9547 25.4952 37.9318 25.4968 37.9092 25.5H33C32.9337 25.4991 32.868 25.5113 32.8065 25.536C32.745 25.5607 32.689 25.5974 32.6418 25.6439C32.5947 25.6904 32.5572 25.7459 32.5316 25.807C32.506 25.8681 32.4929 25.9337 32.4929 26C32.4929 26.0663 32.506 26.1319 32.5316 26.193C32.5572 26.2541 32.5947 26.3096 32.6418 26.3561C32.689 26.4026 32.745 26.4393 32.8065 26.464C32.868 26.4887 32.9337 26.5009 33 26.5H36.7021L31.54 31.3203L27.999 27.8096L23.6475 32.1455C23.5994 32.1915 23.5609 32.2465 23.5344 32.3075C23.5078 32.3685 23.4937 32.4342 23.4928 32.5007C23.492 32.5672 23.5044 32.6332 23.5294 32.6949C23.5544 32.7565 23.5914 32.8126 23.6383 32.8597C23.6852 32.9069 23.741 32.9442 23.8025 32.9695C23.8641 32.9948 23.93 33.0076 23.9965 33.0071C24.063 33.0067 24.1288 32.9929 24.1899 32.9667C24.251 32.9405 24.3063 32.9023 24.3525 32.8545L28.001 29.2197L31.5195 32.708L37.5 27.123V31C37.4991 31.0663 37.5113 31.132 37.536 31.1935C37.5607 31.255 37.5974 31.311 37.6439 31.3582C37.6904 31.4053 37.7459 31.4428 37.807 31.4684C37.8681 31.494 37.9337 31.5071 38 31.5071C38.0663 31.5071 38.1319 31.494 38.193 31.4684C38.2541 31.4428 38.3096 31.4053 38.3561 31.3582C38.4026 31.311 38.4393 31.255 38.464 31.1935C38.4887 31.132 38.5009 31.0663 38.5 31V25.5H38.0391C38.0187 25.4971 37.9981 25.4955 37.9775 25.4951ZM20.5 26C20.3674 26 20.2402 26.0527 20.1464 26.1464C20.0527 26.2402 20 26.3674 20 26.5C20 26.6326 20.0527 26.7598 20.1464 26.8536C20.2402 26.9473 20.3674 27 20.5 27C20.6326 27 20.7598 26.9473 20.8536 26.8536C20.9473 26.7598 21 26.6326 21 26.5C21 26.3674 20.9473 26.2402 20.8536 26.1464C20.7598 26.0527 20.6326 26 20.5 26ZM20.5 28C20.3674 28 20.2402 28.0527 20.1464 28.1464C20.0527 28.2402 20 28.3674 20 28.5C20 28.6326 20.0527 28.7598 20.1464 28.8536C20.2402 28.9473 20.3674 29 20.5 29C20.6326 29 20.7598 28.9473 20.8536 28.8536C20.9473 28.7598 21 28.6326 21 28.5C21 28.3674 20.9473 28.2402 20.8536 28.1464C20.7598 28.0527 20.6326 28 20.5 28ZM20.5 30C20.3674 30 20.2402 30.0527 20.1464 30.1464C20.0527 30.2402 20 30.3674 20 30.5C20 30.6326 20.0527 30.7598 20.1464 30.8536C20.2402 30.9473 20.3674 31 20.5 31C20.6326 31 20.7598 30.9473 20.8536 30.8536C20.9473 30.7598 21 30.6326 21 30.5C21 30.3674 20.9473 30.2402 20.8536 30.1464C20.7598 30.0527 20.6326 30 20.5 30ZM20.5 32C20.3674 32 20.2402 32.0527 20.1464 32.1464C20.0527 32.2402 20 32.3674 20 32.5C20 32.6326 20.0527 32.7598 20.1464 32.8536C20.2402 32.9473 20.3674 33 20.5 33C20.6326 33 20.7598 32.9473 20.8536 32.8536C20.9473 32.7598 21 32.6326 21 32.5C21 32.3674 20.9473 32.2402 20.8536 32.1464C20.7598 32.0527 20.6326 32 20.5 32ZM20.5 34C20.3674 34 20.2402 34.0527 20.1464 34.1464C20.0527 34.2402 20 34.3674 20 34.5C20 34.6326 20.0527 34.7598 20.1464 34.8536C20.2402 34.9473 20.3674 35 20.5 35C20.6326 35 20.7598 34.9473 20.8536 34.8536C20.9473 34.7598 21 34.6326 21 34.5C21 34.3674 20.9473 34.2402 20.8536 34.1464C20.7598 34.0527 20.6326 34 20.5 34ZM20.5 36C20.3674 36 20.2402 36.0527 20.1464 36.1464C20.0527 36.2402 20 36.3674 20 36.5C20 36.6326 20.0527 36.7598 20.1464 36.8536C20.2402 36.9473 20.3674 37 20.5 37C20.6326 37 20.7598 36.9473 20.8536 36.8536C20.9473 36.7598 21 36.6326 21 36.5C21 36.3674 20.9473 36.2402 20.8536 36.1464C20.7598 36.0527 20.6326 36 20.5 36ZM20.5 38C20.3674 38 20.2402 38.0527 20.1464 38.1464C20.0527 38.2402 20 38.3674 20 38.5C20 38.6326 20.0527 38.7598 20.1464 38.8536C20.2402 38.9473 20.3674 39 20.5 39C20.6326 39 20.7598 38.9473 20.8536 38.8536C20.9473 38.7598 21 38.6326 21 38.5C21 38.3674 20.9473 38.2402 20.8536 38.1464C20.7598 38.0527 20.6326 38 20.5 38ZM20.5 40C20.3674 40 20.2402 40.0527 20.1464 40.1464C20.0527 40.2402 20 40.3674 20 40.5C20 40.6326 20.0527 40.7598 20.1464 40.8536C20.2402 40.9473 20.3674 41 20.5 41C20.6326 41 20.7598 40.9473 20.8536 40.8536C20.9473 40.7598 21 40.6326 21 40.5C21 40.3674 20.9473 40.2402 20.8536 40.1464C20.7598 40.0527 20.6326 40 20.5 40Z" fill="white"/>
</svg>
