<svg width="22" height="22" viewBox="0 0 22 22" fill="none" xmlns="http://www.w3.org/2000/svg">
<path d="M10.2977 0C4.6113 0 0 4.61157 0 10.2983C0 15.9851 4.6113 20.5966 10.2977 20.5966C11.7989 20.5966 13.2232 20.2711 14.5104 19.6933V20.2455C14.5104 20.4357 14.6238 20.6058 14.7993 20.6771C14.9748 20.7502 15.176 20.71 15.3094 20.5765L16.7192 19.1649L17.8948 21.7285C18.0027 21.9625 18.2806 22.0649 18.5165 21.9571L20.323 21.1306C20.557 21.0227 20.6594 20.7447 20.5516 20.5089L19.332 17.8465H21.5316C21.7236 17.8465 21.8973 17.7295 21.9668 17.5503C22.0381 17.3711 21.9924 17.1681 21.8516 17.0365L19.5276 14.8569C20.2078 13.4836 20.5954 11.9367 20.5954 10.2983C20.5954 4.61157 15.9841 0 10.2977 0ZM10.2977 0.93621C15.4594 0.93621 19.6593 5.13636 19.6593 10.2983C19.6593 11.6843 19.3503 12.9972 18.8072 14.1821L18.0722 13.4928C18.4233 12.6425 18.6463 11.7282 18.6994 10.7664H14.9657C14.962 10.7664 14.9602 10.7664 14.9566 10.7664C14.7079 10.7792 14.5104 10.984 14.5104 11.2345V15.7163C14.1173 16.7348 13.6181 17.6033 13.0331 18.2579C13.5523 18.0806 14.0442 17.8502 14.5104 17.5777V18.6456C13.2433 19.2892 11.8153 19.6604 10.2977 19.6604C5.13606 19.6604 0.936156 15.4603 0.936156 10.2983C0.936156 5.13636 5.13606 0.93621 10.2977 0.93621ZM9.82964 1.93093C8.69419 2.19607 7.68124 3.40839 6.99375 5.14916H9.82964V1.93093ZM10.7658 1.93093V5.14916H13.6017C12.9142 3.40839 11.9013 2.19607 10.7658 1.93093ZM7.56239 2.33687C5.99542 2.87811 4.63873 3.86552 3.64223 5.14916H5.97714C6.38305 4.00815 6.92427 3.05183 7.56239 2.33687ZM13.0331 2.33687C13.6712 3.05183 14.2124 4.00815 14.6183 5.14916H16.9532C15.9567 3.86552 14.6 2.87811 13.0331 2.33687ZM3.01325 6.08537C2.36599 7.19894 1.97105 8.4716 1.89608 9.83021H5.16166C5.1964 8.48075 5.38107 7.2154 5.68825 6.08537H3.01325ZM6.6756 6.08537C6.34282 7.20443 6.13621 8.47892 6.09782 9.83021H9.82964V6.08537H6.6756ZM10.7658 6.08537V9.83021H14.4976C14.4592 8.47892 14.2544 7.20443 13.9198 6.08537H10.7658ZM14.9072 6.08537C15.2144 7.2154 15.399 8.48075 15.4338 9.83021H18.6994C18.6244 8.4716 18.2295 7.19894 17.5822 6.08537H14.9072ZM1.89608 10.7664C1.97105 12.125 2.36599 13.3977 3.01325 14.5113H5.68825C5.38107 13.3812 5.1964 12.1159 5.16166 10.7664H1.89608ZM6.09782 10.7664C6.13621 12.1177 6.341 13.3922 6.6756 14.5113H9.82964V10.7664H6.09782ZM10.7658 10.7664V14.5113H13.9198C14.2526 13.3922 14.4592 12.1177 14.4976 10.7664H10.7658ZM15.4466 12.3152L20.3468 16.9103H18.6646C18.5915 16.9103 18.5202 16.9268 18.4543 16.9597L18.405 16.9853C18.1801 17.0986 18.0832 17.3693 18.1892 17.5978L19.5057 20.4723L18.5494 20.9111L17.2896 18.1628C17.2275 18.0239 17.0977 17.9251 16.9477 17.8977C16.796 17.8703 16.6424 17.9196 16.5345 18.0294L15.4466 19.1155V12.3152ZM3.64223 15.4475C4.63873 16.7311 5.99542 17.7185 7.56239 18.2579C6.92427 17.5448 6.38305 16.5885 5.97714 15.4475H3.64223ZM6.99375 15.4475C7.68124 17.1882 8.69419 18.4006 9.82964 18.6657V15.4475H6.99375ZM10.7658 15.4475V18.6657C11.9013 18.4006 12.9142 17.1882 13.6017 15.4475H10.7658Z" fill="white"/>
</svg>
