<svg width="19" height="20" viewBox="0 0 19 20" fill="none" xmlns="http://www.w3.org/2000/svg">
<path fill-rule="evenodd" clip-rule="evenodd" d="M19 10C19 15.5228 14.7467 20 9.5 20C4.25329 20 0 15.5228 0 10C0 4.47715 4.25329 0 9.5 0C14.7467 0 19 4.47715 19 10ZM6.36162 9.08373C5.40997 9.52111 4.43216 9.97051 3.53804 10.4889L3.53798 10.489C3.0711 10.8488 3.69168 11.1033 4.27382 11.342C4.36637 11.38 4.45794 11.4176 4.54403 11.4551C4.61566 11.4782 4.68851 11.5027 4.76232 11.5274C5.40978 11.7446 6.13173 11.9867 6.7603 11.6225C7.79286 10.9981 8.7673 10.2763 9.74099 9.55496C10.06 9.31864 10.3789 9.08239 10.6998 8.84964C10.7148 8.83951 10.7318 8.82793 10.7503 8.81528C11.0237 8.62877 11.6384 8.20932 11.411 8.78729C10.8733 9.40629 10.2974 9.95424 9.71826 10.5052C9.32799 10.8765 8.93629 11.2491 8.55391 11.6458C8.22087 11.9306 7.87506 12.5034 8.24797 12.9023C9.10689 13.5352 9.97923 14.1528 10.8511 14.7701C11.1348 14.9709 11.4184 15.1717 11.7015 15.373C12.1814 15.7763 12.9313 15.4501 13.0368 14.82C13.0837 14.5301 13.1308 14.2402 13.1779 13.9503C13.4382 12.3484 13.6986 10.7459 13.9286 9.13872C13.9598 8.88662 13.9953 8.63453 14.0307 8.38231C14.1167 7.77101 14.2027 7.15897 14.2296 6.54438C14.1603 5.93107 13.4539 6.06592 13.0607 6.20383C11.0399 7.01325 9.03925 7.88267 7.04655 8.76742C6.82081 8.87269 6.59198 8.97786 6.36162 9.08373Z" fill="white"/>
</svg>
