<svg width="20" height="20" viewBox="0 0 20 20" fill="none" xmlns="http://www.w3.org/2000/svg">
<path fill-rule="evenodd" clip-rule="evenodd" d="M10 0C15.5228 0 20 4.47715 20 10C20 15.5228 15.5228 20 10 20C4.47715 20 0 15.5228 0 10C0 4.47715 4.47715 0 10 0ZM12.6641 8.73238C12.6155 8.33725 12.494 8.02699 12.2784 7.75218C11.9983 7.39832 11.6404 7.18642 11.1106 7.06072C10.7652 6.97694 10.6257 6.98656 10.5008 7.10064C10.3845 7.20752 10.3618 7.42179 10.4507 7.56054C10.5132 7.66125 10.5853 7.69733 10.7859 7.7367C11.0531 7.78585 11.2377 7.84963 11.4056 7.94565C11.762 8.15145 11.928 8.47351 11.9458 8.99491C11.9541 9.23971 11.9752 9.31498 12.0607 9.40181C12.2192 9.56052 12.5013 9.52965 12.6209 9.33972C12.6648 9.26813 12.6715 9.23697 12.6761 9.07073C12.6792 8.96782 12.6748 8.81463 12.6641 8.73238ZM12.6689 6.30836C13.5163 6.99361 13.9898 7.96757 14.0602 9.17814C14.0898 9.65495 14.0505 9.81023 13.8823 9.8987C13.7305 9.98066 13.5585 9.95367 13.4405 9.83028C13.3623 9.75003 13.3323 9.64026 13.3335 9.4459C13.3369 8.90849 13.2131 8.30836 13.0118 7.89193C12.7788 7.40725 12.4187 6.9948 11.9656 6.69325C11.5688 6.4284 11.0436 6.2495 10.5344 6.20495C10.2041 6.17606 10.0861 6.12012 10.0227 5.96177C9.98343 5.86705 9.99381 5.7033 10.0399 5.62995C10.0834 5.56232 10.1811 5.48753 10.2502 5.46776C10.3234 5.44641 10.75 5.48373 10.9817 5.52979C11.6143 5.65855 12.1915 5.92331 12.6689 6.30836ZM15.6051 13.8404C15.5814 13.7712 15.5262 13.6645 15.4867 13.6032C15.238 13.2277 13.9019 12.182 13.2348 11.8401C12.8539 11.6444 12.5717 11.5792 12.3624 11.6404C12.1375 11.7037 12.019 11.8084 11.6421 12.2769C11.4901 12.4647 11.3342 12.6406 11.2927 12.6683C11.1901 12.7394 10.9888 12.7968 10.8467 12.7968C10.5171 12.7948 9.9191 12.5813 9.45924 12.3006C9.10202 12.0832 8.64417 11.6938 8.29284 11.3084C7.87836 10.8557 7.59617 10.4565 7.37313 10.0058C7.08499 9.42666 7.01197 9.07283 7.13234 8.81389C7.16195 8.74867 7.20143 8.67951 7.21917 8.65773C7.23695 8.638 7.42248 8.48578 7.62771 8.31974C8.03035 7.99954 8.09547 7.92641 8.17046 7.707C8.2652 7.42828 8.23956 7.14366 8.0935 6.85706C7.981 6.63963 7.68693 6.16524 7.47379 5.85888C7.19156 5.45566 6.48895 4.59386 6.3488 4.47721C6.09618 4.27166 5.77254 4.23606 5.41528 4.37445C5.03835 4.52072 4.33177 5.08998 4.0298 5.48728C3.75744 5.84702 3.65287 6.10199 3.63707 6.43802C3.62326 6.71473 3.64694 6.82938 3.79299 7.1832C4.93572 9.95835 6.6409 12.1741 8.98361 13.9333C10.2072 14.8524 11.4763 15.5522 12.7927 16.0305C13.5604 16.3092 13.894 16.323 14.2867 16.0938C14.4525 15.9949 14.863 15.5739 15.0919 15.2675C15.4709 14.7576 15.611 14.5224 15.6505 14.3346C15.6781 14.2061 15.6564 13.9828 15.6051 13.8404ZM15.1004 7.5838C15.3408 8.21002 15.4561 8.77169 15.4814 9.45646C15.4854 9.59174 15.4835 9.83958 15.4748 10.0075C15.4565 10.3293 15.439 10.3932 15.3464 10.4784C15.1975 10.6181 14.9072 10.5848 14.7971 10.4164C14.7396 10.3261 14.7315 10.2599 14.7426 9.88389C14.7746 8.77161 14.5496 7.90072 14.0077 7.02989C13.3602 5.98512 12.3915 5.28132 11.1319 4.937C10.8107 4.84937 10.54 4.79595 10.119 4.73927C9.84479 4.70338 9.78473 4.6882 9.71705 4.64655C9.51258 4.51559 9.50986 4.18398 9.71369 4.05102C9.81887 3.98084 9.89644 3.9777 10.2393 4.02161C11.2446 4.14723 12.1417 4.44596 12.8788 4.89737C13.4072 5.22135 13.7403 5.51241 14.1692 6.02217C14.6229 6.56584 14.8631 6.96781 15.1004 7.5838Z" fill="white"/>
</svg>
