<svg width="20" height="20" viewBox="0 0 20 20" fill="none" xmlns="http://www.w3.org/2000/svg">
<path fill-rule="evenodd" clip-rule="evenodd" d="M0 10C0 15.5228 4.47715 20 10 20C15.5228 20 20 15.5228 20 10C20 4.47715 15.5228 0 10 0C4.47715 0 0 4.47715 0 10ZM16.2759 9.61744C16.2746 12.8953 13.6081 15.5624 10.3296 15.5637H10.3271C9.33194 15.5633 8.35406 15.3137 7.48554 14.8399L4.33331 15.6668L5.1769 12.5855C4.65654 11.6837 4.38272 10.6608 4.38317 9.61275C4.38447 6.33418 7.05199 3.66681 10.3295 3.66681C11.9202 3.6675 13.4132 4.28675 14.5359 5.41073C15.6586 6.53465 16.2765 8.02861 16.2759 9.61744Z" fill="white"/>
<path fill-rule="evenodd" clip-rule="evenodd" d="M5.7606 14.2543L7.63117 13.7637L7.81165 13.8708C8.57047 14.3211 9.44031 14.5593 10.3272 14.5597H10.3292C13.0532 14.5597 15.2704 12.3425 15.2715 9.61732C15.272 8.29671 14.7584 7.05499 13.8253 6.12078C12.8921 5.18658 11.6512 4.67184 10.3311 4.67139C7.60495 4.67139 5.3878 6.88833 5.38672 9.61332C5.38634 10.5472 5.64763 11.4567 6.14237 12.2436L6.25988 12.4305L5.7606 14.2543ZM13.1214 10.8978C13.225 10.9479 13.295 10.9817 13.3249 11.0316C13.362 11.0935 13.362 11.391 13.2383 11.7381C13.1144 12.0852 12.5208 12.4019 12.2353 12.4446C11.9794 12.4828 11.6554 12.4988 11.2995 12.3857C11.0837 12.3172 10.807 12.2258 10.4525 12.0727C9.05962 11.4713 8.11831 10.1213 7.9404 9.8661C7.92794 9.84823 7.91922 9.83573 7.91436 9.82923L7.91316 9.82763C7.83453 9.72272 7.30768 9.01977 7.30768 8.29225C7.30768 7.60786 7.64386 7.24913 7.79861 7.08401C7.80921 7.0727 7.81896 7.0623 7.82769 7.05276C7.96388 6.90401 8.12485 6.86682 8.2239 6.86682C8.32294 6.86682 8.4221 6.86774 8.50866 6.87208C8.51934 6.87262 8.53045 6.87256 8.54194 6.87249C8.62852 6.87198 8.73647 6.87135 8.84296 7.12713C8.88392 7.22557 8.94386 7.37149 9.00708 7.5254C9.13493 7.83666 9.2762 8.18058 9.30105 8.23034C9.3382 8.30472 9.36296 8.39145 9.31343 8.49066C9.306 8.50553 9.29912 8.51957 9.29255 8.53298C9.25536 8.60892 9.228 8.66478 9.16486 8.7385C9.14004 8.76748 9.11438 8.79873 9.08872 8.82997C9.03761 8.89222 8.9865 8.95447 8.94199 8.99881C8.86761 9.0729 8.79018 9.15328 8.87685 9.30203C8.96352 9.45078 9.2617 9.93731 9.7034 10.3313C10.1782 10.7548 10.5909 10.9338 10.8 11.0245C10.8409 11.0422 10.874 11.0566 10.8982 11.0687C11.0468 11.1431 11.1334 11.1307 11.2201 11.0316C11.3068 10.9324 11.5915 10.5977 11.6906 10.449C11.7896 10.3003 11.8887 10.3251 12.0249 10.3746C12.1611 10.4242 12.8916 10.7836 13.0401 10.858C13.0691 10.8725 13.0962 10.8856 13.1214 10.8978Z" fill="white"/>
</svg>
