<svg width="70" height="71" viewBox="0 0 70 71" fill="none" xmlns="http://www.w3.org/2000/svg">
<g clip-path="url(#clip0)">
<path d="M70 35.6671C70 16.2148 54.3347 0.454102 35 0.454102C15.6653 0.454102 0 16.2148 0 35.6671C0 53.2423 12.799 67.8103 29.5312 70.4541V45.8462H20.6401V35.6671H29.5312V27.9089C29.5312 19.0843 34.753 14.2099 42.7508 14.2099C46.5811 14.2099 50.5863 14.8971 50.5863 14.8971V23.5584H46.1718C41.825 23.5584 40.4687 26.2732 40.4687 29.0575V35.6671H50.1756L48.6232 45.8462H40.4687V70.4541C57.201 67.8103 70 53.2423 70 35.6671Z" fill="#2D5EBB"/>
</g>
<defs>
<clipPath id="clip0">
<path d="M0 0.454102H70V70.4541H0V0.454102Z" fill="white"/>
</clipPath>
</defs>
</svg>
