<svg width="70" height="71" viewBox="0 0 70 71" fill="none" xmlns="http://www.w3.org/2000/svg">
<g clip-path="url(#clip0)">
<path d="M35 0.4541C54.33 0.4541 70 16.1241 70 35.4541C70 54.7841 54.33 70.4541 35 70.4541C15.67 70.4541 0 54.7841 0 35.4541C0 16.1241 15.67 0.4541 35 0.4541Z" fill="#2D5EBB"/>
<path d="M35.0092 24.9846C29.2142 24.9846 24.54 29.6588 24.54 35.4538C24.54 41.2487 29.2142 45.9229 35.0092 45.9229C40.8041 45.9229 45.4783 41.2487 45.4783 35.4538C45.4783 29.6588 40.8041 24.9846 35.0092 24.9846ZM35.0092 42.2601C31.2643 42.2601 28.2028 39.2077 28.2028 35.4538C28.2028 31.6998 31.2552 28.6475 35.0092 28.6475C38.7631 28.6475 41.8155 31.6998 41.8155 35.4538C41.8155 39.2077 38.754 42.2601 35.0092 42.2601V42.2601ZM48.3484 24.5564C48.3484 25.914 47.2551 26.9983 45.9065 26.9983C44.5489 26.9983 43.4647 25.9049 43.4647 24.5564C43.4647 23.2079 44.558 22.1145 45.9065 22.1145C47.2551 22.1145 48.3484 23.2079 48.3484 24.5564ZM55.2823 27.0347C55.1274 23.7637 54.3803 20.8662 51.9839 18.479C49.5967 16.0918 46.6993 15.3446 43.4282 15.1806C40.0569 14.9893 29.9523 14.9893 26.581 15.1806C23.3191 15.3355 20.4216 16.0827 18.0253 18.4699C15.6289 20.8571 14.8909 23.7546 14.7269 27.0256C14.5355 30.3969 14.5355 40.5016 14.7269 43.8728C14.8818 47.1439 15.6289 50.0413 18.0253 52.4286C20.4216 54.8158 23.3099 55.5629 26.581 55.7269C29.9523 55.9183 40.0569 55.9183 43.4282 55.7269C46.6993 55.572 49.5967 54.8249 51.9839 52.4286C54.3712 50.0413 55.1183 47.1439 55.2823 43.8728C55.4737 40.5016 55.4737 30.406 55.2823 27.0347V27.0347ZM50.927 47.4901C50.2163 49.276 48.8405 50.6518 47.0455 51.3716C44.3576 52.4377 37.9795 52.1917 35.0092 52.1917C32.0388 52.1917 25.6516 52.4286 22.9728 51.3716C21.187 50.6609 19.8111 49.2851 19.0913 47.4901C18.0253 44.8022 18.2713 38.4241 18.2713 35.4538C18.2713 32.4834 18.0344 26.0962 19.0913 23.4174C19.802 21.6316 21.1778 20.2557 22.9728 19.5359C25.6607 18.4699 32.0388 18.7159 35.0092 18.7159C37.9795 18.7159 44.3667 18.479 47.0455 19.5359C48.8314 20.2466 50.2072 21.6225 50.927 23.4174C51.9931 26.1053 51.747 32.4834 51.747 35.4538C51.747 38.4241 51.9931 44.8113 50.927 47.4901Z" fill="white"/>
</g>
<defs>
<clipPath id="clip0">
<path d="M0 0.454102H70V70.4541H0V0.454102Z" fill="white"/>
</clipPath>
</defs>
</svg>
