<svg width="70" height="71" viewBox="0 0 70 71" fill="none" xmlns="http://www.w3.org/2000/svg">
<g clip-path="url(#clip0)">
<path d="M35 0.454102C54.33 0.454102 70 16.1241 70 35.4541C70 54.7841 54.33 70.4541 35 70.4541C15.67 70.4541 0 54.7841 0 35.4541C0 16.1241 15.67 0.454102 35 0.454102Z" fill="#2D5EBB"/>
<path d="M45.2383 30.8204C45.0732 29.5045 44.661 28.4712 43.9288 27.556C42.9781 26.3775 41.7632 25.6718 39.9645 25.2532C38.7923 24.9741 38.3187 25.0062 37.8948 25.3861C37.4999 25.742 37.4228 26.4556 37.7246 26.9177C37.9368 27.2531 38.1816 27.3733 38.8626 27.5044C39.7694 27.6681 40.396 27.8805 40.9661 28.2003C42.176 28.8857 42.7395 29.9583 42.7998 31.6947C42.828 32.51 42.8998 32.7607 43.1901 33.0499C43.728 33.5785 44.6855 33.4756 45.0916 32.8431C45.2406 32.6047 45.2634 32.5009 45.2791 31.9473C45.2895 31.6045 45.2745 31.0944 45.2383 30.8204Z" fill="white"/>
<path d="M49.9775 32.3052C49.7385 28.2736 48.1312 25.0299 45.2546 22.7477C43.6338 21.4654 41.6747 20.5836 39.5273 20.1548C38.7406 20.0014 37.2923 19.8771 37.0438 19.9482C36.8094 20.0141 36.4777 20.2631 36.3299 20.4884C36.1736 20.7326 36.1384 21.278 36.2717 21.5934C36.4869 22.1208 36.8873 22.3071 38.0086 22.4033C39.7372 22.5517 41.52 23.1475 42.8671 24.0296C44.4051 25.0339 45.6276 26.4075 46.4185 28.0216C47.1019 29.4085 47.5222 31.4072 47.5105 33.1969C47.5066 33.8443 47.6085 34.2098 47.8738 34.4771C48.2744 34.888 48.8582 34.9779 49.3734 34.7049C49.9445 34.4103 50.078 33.8932 49.9775 32.3052Z" fill="white"/>
<path d="M55.2215 47.8332C55.1412 47.6028 54.9536 47.2473 54.8196 47.0433C53.9754 45.7926 49.4398 42.3102 47.1753 41.1713C45.8823 40.5197 44.9242 40.3025 44.2141 40.5065C43.4503 40.7172 43.0483 41.066 41.7686 42.6262C41.2528 43.2516 40.7235 43.8375 40.5828 43.9296C40.2344 44.1666 39.5511 44.3575 39.0687 44.3575C37.9499 44.3509 35.9199 43.64 34.3588 42.7052C33.1462 41.9811 31.592 40.6843 30.3994 39.4006C28.9924 37.8932 28.0344 36.5634 27.2773 35.0625C26.2992 33.1338 26.0513 31.9554 26.4599 31.093C26.5604 30.8758 26.6945 30.6455 26.7547 30.573C26.815 30.5072 27.4448 30.0003 28.1415 29.4473C29.5083 28.381 29.7294 28.1374 29.9839 27.4067C30.3055 26.4785 30.2185 25.5305 29.7227 24.5761C29.3408 23.8519 28.3425 22.2721 27.619 21.2517C26.661 19.9089 24.2759 17.0388 23.8001 16.6503C22.9426 15.9657 21.8439 15.8472 20.6312 16.308C19.3517 16.7952 16.9531 18.691 15.928 20.0142C15.0035 21.2122 14.6485 22.0614 14.5949 23.1805C14.548 24.102 14.6284 24.4839 15.1242 25.6622C19.0033 34.9045 24.7917 42.2839 32.7442 48.1427C36.898 51.2036 41.2059 53.534 45.6746 55.1271C48.2807 56.0552 49.4129 56.1013 50.7462 55.3378C51.3089 55.0085 52.7025 53.6064 53.4796 52.5861C54.766 50.8877 55.2417 50.1043 55.3756 49.479C55.4694 49.0511 55.3958 48.3073 55.2215 47.8332Z" fill="white"/>
<path d="M54.8017 33.2338C54.7159 30.9532 54.3246 29.0826 53.5085 26.9971C52.7028 24.9456 51.8874 23.6069 50.3474 21.7963C48.8914 20.0986 47.7606 19.1292 45.967 18.0502C43.4648 16.5468 40.4196 15.5519 37.0068 15.1335C35.843 14.9873 35.5797 14.9978 35.2227 15.2315C34.5307 15.6743 34.54 16.7787 35.2341 17.2148C35.4638 17.3536 35.6677 17.4041 36.5987 17.5236C38.0278 17.7124 38.9467 17.8903 40.0371 18.1822C44.3129 19.3289 47.601 21.6729 49.7993 25.1523C51.6389 28.0525 52.4025 30.9529 52.2941 34.6572C52.2564 35.9095 52.2838 36.1299 52.4789 36.4308C52.8526 36.9916 53.838 37.1026 54.3435 36.6372C54.6581 36.3536 54.7174 36.1406 54.7793 35.0688C54.809 34.5097 54.8154 33.6843 54.8017 33.2338Z" fill="white"/>
</g>
<defs>
<clipPath id="clip0">
<path d="M0 0.454102H70V70.4541H0V0.454102Z" fill="white"/>
</clipPath>
</defs>
</svg>
