<svg width="70" height="71" viewBox="0 0 70 71" fill="none" xmlns="http://www.w3.org/2000/svg">
<g clip-path="url(#clip0)">
<path d="M35 0.4541C54.33 0.4541 70 16.1241 70 35.4541C70 54.7841 54.33 70.4541 35 70.4541C15.67 70.4541 0 54.7841 0 35.4541C0 16.1241 15.67 0.4541 35 0.4541Z" fill="#2D5EBB"/>
<path d="M53.3017 39.4514C53.566 38.1751 53.7301 36.8167 53.7301 35.4583C53.7301 25.111 45.352 16.7419 35.0137 16.7419C33.6553 16.7419 32.3061 16.8969 31.0206 17.1704C29.2885 15.8303 27.137 15.0371 24.794 15.0371C19.1599 15.0371 14.5834 19.6137 14.5834 25.2477C14.5834 27.5907 15.3765 29.7422 16.7075 31.4653C16.4432 32.7416 16.2791 34.1 16.2791 35.4583C16.2791 45.8057 24.6572 54.1748 34.9955 54.1748C36.3539 54.1748 37.7031 54.0198 38.9886 53.7463C40.7207 55.0773 42.8722 55.8704 45.2061 55.8704C50.8402 55.8704 55.4167 51.2939 55.4167 45.6598C55.4258 43.326 54.6327 41.1745 53.3017 39.4514V39.4514ZM35.5607 47.7931C29.5802 47.7931 24.5752 45.1311 24.5752 41.8673C24.5752 40.4087 25.3957 39.0776 27.2646 39.0776C30.109 39.0776 30.3734 43.171 35.2963 43.171C37.6393 43.171 39.1527 42.1317 39.1527 40.7733C39.1527 39.0685 37.694 38.8041 35.3237 38.2207C29.6258 36.8167 24.5843 36.215 24.5843 30.271C24.5843 24.8739 29.9266 22.8774 34.5305 22.8774C39.5538 22.8774 44.6317 24.8739 44.6317 27.928C44.6317 29.4687 43.5925 30.8271 41.8694 30.8271C39.2894 30.8271 39.2074 27.773 35.0319 27.773C32.689 27.773 31.203 28.4112 31.203 29.8243C31.203 31.6294 33.0992 31.8117 37.5026 32.8327C41.2768 33.6806 45.7713 35.276 45.7713 39.9072C45.7713 45.2952 40.5657 47.7931 35.5607 47.7931V47.7931Z" fill="white"/>
</g>
<defs>
<clipPath id="clip0">
<path d="M0 0.454102H70V70.4541H0V0.454102Z" fill="white"/>
</clipPath>
</defs>
</svg>
