<svg width="70" height="71" viewBox="0 0 70 71" fill="none" xmlns="http://www.w3.org/2000/svg">
<g clip-path="url(#clip0)">
<path d="M35 0.4541C54.33 0.4541 70 16.1241 70 35.4541C70 54.7841 54.33 70.4541 35 70.4541C15.67 70.4541 0 54.7841 0 35.4541C0 16.1241 15.67 0.4541 35 0.4541Z" fill="#2D5EBB"/>
<path d="M43.9016 39.5371C44.065 38.1896 44.1875 36.8421 44.1875 35.4538C44.1875 34.0654 44.065 32.7179 43.9016 31.3704H50.8025C51.1291 32.6771 51.3333 34.045 51.3333 35.4538C51.3333 36.8625 51.1291 38.2304 50.8025 39.5371H43.9016ZM40.2879 50.8888C41.5129 48.6225 42.4521 46.1725 43.1054 43.6204H49.1283C47.1503 47.0265 44.0121 49.6066 40.2879 50.8888V50.8888ZM39.7775 39.5371H30.2225C30.0183 38.1896 29.8958 36.8421 29.8958 35.4538C29.8958 34.0654 30.0183 32.6975 30.2225 31.3704H39.7775C39.9612 32.6975 40.1041 34.0654 40.1041 35.4538C40.1041 36.8421 39.9612 38.1896 39.7775 39.5371ZM35 51.7054C33.3054 49.2554 31.9375 46.54 31.1004 43.6204H38.8996C38.0625 46.54 36.6946 49.2554 35 51.7054ZM26.8333 27.2871H20.8716C22.8293 23.8718 25.9652 21.2876 29.6916 20.0188C28.4666 22.285 27.5479 24.735 26.8333 27.2871ZM20.8716 43.6204H26.8333C27.5479 46.1725 28.4666 48.6225 29.6916 50.8888C25.973 49.6059 22.8415 47.0254 20.8716 43.6204V43.6204ZM19.1975 39.5371C18.8708 38.2304 18.6666 36.8625 18.6666 35.4538C18.6666 34.045 18.8708 32.6771 19.1975 31.3704H26.0983C25.935 32.7179 25.8125 34.0654 25.8125 35.4538C25.8125 36.8421 25.935 38.1896 26.0983 39.5371H19.1975ZM35 19.1817C36.6946 21.6317 38.0625 24.3675 38.8996 27.2871H31.1004C31.9375 24.3675 33.3054 21.6317 35 19.1817V19.1817ZM49.1283 27.2871H43.1054C42.4664 24.7584 41.5202 22.3175 40.2879 20.0188C44.0446 21.305 47.1683 23.8979 49.1283 27.2871ZM35 15.0371C23.7096 15.0371 14.5833 24.2246 14.5833 35.4538C14.5833 40.8686 16.7343 46.0617 20.5632 49.8905C22.4591 51.7864 24.7098 53.2903 27.1869 54.3163C29.6639 55.3424 32.3188 55.8704 35 55.8704C40.4148 55.8704 45.6079 53.7194 49.4367 49.8905C53.2656 46.0617 55.4166 40.8686 55.4166 35.4538C55.4166 32.7726 54.8886 30.1177 53.8625 27.6407C52.8365 25.1636 51.3326 22.9129 49.4367 21.017C47.5409 19.1212 45.2902 17.6173 42.8131 16.5912C40.336 15.5652 37.6811 15.0371 35 15.0371V15.0371Z" fill="white"/>
</g>
<defs>
<clipPath id="clip0">
<path d="M0 0.454102H70V70.4541H0V0.454102Z" fill="white"/>
</clipPath>
</defs>
</svg>
